<svg width="1737" height="901" viewBox="0 0 1737 901" fill="none" xmlns="http://www.w3.org/2000/svg">
<mask id="mask0_47_11720" style="mask-type:alpha" maskUnits="userSpaceOnUse" x="0" y="0" width="1737" height="901">
<rect width="1737" height="901" fill="#D9D9D9"/>
</mask>
<g mask="url(#mask0_47_11720)">
<path d="M-0.0103149 0H1737V905H-0.0103149V0Z" fill="#F5EFFF"/>
<path d="M333.979 675.831V662H285.043V675.831H267.504V902.302H351.51V675.831H333.979Z" fill="#DEDEF9"/>
<path d="M338.075 692.734H280.941V695.659H338.075V692.734Z" fill="#F5EFFF"/>
<path d="M338.075 718.796H280.942V721.721H338.075V718.796Z" fill="#F5EFFF"/>
<path d="M338.075 744.86H280.942V747.784H338.075V744.86Z" fill="#F5EFFF"/>
<path d="M338.075 770.914H280.942V773.839H338.075V770.914Z" fill="#F5EFFF"/>
<path d="M338.075 796.977H280.942V799.902H338.075V796.977Z" fill="#F5EFFF"/>
<path d="M338.075 823.04H280.942V825.964H338.075V823.04Z" fill="#F5EFFF"/>
<path d="M338.075 849.094H280.942V852.019H338.075V849.094Z" fill="#F5EFFF"/>
<path d="M338.075 875.158H280.942V878.082H338.075V875.158Z" fill="#F5EFFF"/>
<path d="M856.869 776.566V746.483H816.449V716.393H732.634V1031.14H773.047V1061.23H813.468V1091.32H897.283V776.566H856.869Z" fill="#DEDEF9"/>
<path d="M800.805 742.175H749.538V744.803H800.805V742.175Z" fill="#F5EFFF"/>
<path d="M800.805 786.119H749.538V788.747H800.805V786.119Z" fill="#F5EFFF"/>
<path d="M800.805 830.062H749.538V832.69H800.805V830.062Z" fill="#F5EFFF"/>
<path d="M871.258 790.611H863.09V798.807H871.258V790.611Z" fill="#F5EFFF"/>
<path d="M888.081 790.611H879.913V798.807H888.081V790.611Z" fill="#F5EFFF"/>
<path d="M871.258 811.765H863.089V819.962H871.258V811.765Z" fill="#F5EFFF"/>
<path d="M888.081 811.765H879.913V819.962H888.081V811.765Z" fill="#F5EFFF"/>
<path d="M871.258 832.926H863.09V841.122H871.258V832.926Z" fill="#F5EFFF"/>
<path d="M888.081 832.926H879.913V841.122H888.081V832.926Z" fill="#F5EFFF"/>
<path d="M871.258 854.088H863.09V862.284H871.258V854.088Z" fill="#F5EFFF"/>
<path d="M888.081 854.088H879.913V862.284H888.081V854.088Z" fill="#F5EFFF"/>
<path d="M871.258 875.241H863.089V883.437H871.258V875.241Z" fill="#F5EFFF"/>
<path d="M888.081 875.241H879.913V883.437H888.081V875.241Z" fill="#F5EFFF"/>
<path d="M871.258 896.401H863.09V904.598H871.258V896.401Z" fill="#F5EFFF"/>
<path d="M888.081 896.401H879.913V904.598H888.081V896.401Z" fill="#F5EFFF"/>
<path d="M1548.71 746.483L1589.13 716.393L1737 716.393V1031.14H1632.53V1061.23H1592.11V1091.32H1508.3V776.566L1548.71 746.483Z" fill="#DEDEF9"/>
<path d="M1604.78 742.173H1656.04V744.801H1604.78V742.173Z" fill="#F5EFFF"/>
<path d="M1604.78 786.117H1656.04V788.745H1604.78V786.117Z" fill="#F5EFFF"/>
<path d="M1604.78 830.061H1656.04V832.689H1604.78V830.061Z" fill="#F5EFFF"/>
<path d="M1534.32 790.611H1542.49V798.807H1534.32V790.611Z" fill="#F5EFFF"/>
<path d="M1517.5 790.611H1525.67V798.807H1517.5V790.611Z" fill="#F5EFFF"/>
<path d="M1534.32 811.765H1542.49V819.962H1534.32V811.765Z" fill="#F5EFFF"/>
<path d="M1517.5 811.765H1525.67V819.962H1517.5V811.765Z" fill="#F5EFFF"/>
<path d="M1534.32 832.926H1542.49V841.122H1534.32V832.926Z" fill="#F5EFFF"/>
<path d="M1517.5 832.926H1525.67V841.122H1517.5V832.926Z" fill="#F5EFFF"/>
<path d="M1534.32 854.086H1542.49V862.282H1534.32V854.086Z" fill="#F5EFFF"/>
<path d="M1517.5 854.086H1525.67V862.282H1517.5V854.086Z" fill="#F5EFFF"/>
<path d="M1534.32 875.24H1542.49V883.436H1534.32V875.24Z" fill="#F5EFFF"/>
<path d="M1517.5 875.24H1525.67V883.436H1517.5V875.24Z" fill="#F5EFFF"/>
<path d="M1534.32 896.401H1542.49V904.598H1534.32V896.401Z" fill="#F5EFFF"/>
<path d="M1517.5 896.401H1525.67V904.598H1517.5V896.401Z" fill="#F5EFFF"/>
<path d="M1243.51 613.357V811.885H1214.88V700.667H1147.38V965.787H1326.08V613.357H1243.51Z" fill="#DEDEF9"/>
<path d="M1165.3 712.024H1160.32V885.962H1165.3V712.024Z" fill="#F5EFFF"/>
<path d="M1177.75 712.024H1172.77V885.962H1177.75V712.024Z" fill="#F5EFFF"/>
<path d="M1202.65 712.024H1197.67V885.962H1202.65V712.024Z" fill="#F5EFFF"/>
<path d="M1190.2 712.024H1185.22V885.962H1190.2V712.024Z" fill="#F5EFFF"/>
<path d="M1310.02 631.875H1261.42V638.946H1310.02V631.875Z" fill="#F5EFFF"/>
<path d="M1310.02 651.104H1261.42V658.175H1310.02V651.104Z" fill="#F5EFFF"/>
<path d="M1310.02 670.324H1261.42V677.395H1310.02V670.324Z" fill="#F5EFFF"/>
<path d="M1310.02 689.545H1261.42V696.616H1310.02V689.545Z" fill="#F5EFFF"/>
<path d="M1310.02 708.774H1261.42V715.845H1310.02V708.774Z" fill="#F5EFFF"/>
<path d="M1310.02 727.996H1261.42V735.067H1310.02V727.996Z" fill="#F5EFFF"/>
<path d="M1310.02 747.216H1261.42V754.287H1310.02V747.216Z" fill="#F5EFFF"/>
<path d="M1310.02 766.445H1261.42V773.516H1310.02V766.445Z" fill="#F5EFFF"/>
<path d="M1310.02 785.667H1261.42V792.737H1310.02V785.667Z" fill="#F5EFFF"/>
<path d="M1275.33 629.644H1270.14V809.802H1275.33V629.644Z" fill="#DEDEF9"/>
<path d="M1288.32 629.644H1283.12V809.802H1288.32V629.644Z" fill="#DEDEF9"/>
<path d="M1301.31 629.644H1296.11V809.802H1301.31V629.644Z" fill="#DEDEF9"/>
<path d="M1151.76 869.045H1110.51V892.849H1151.76V869.045Z" fill="#DEDEF9"/>
<path d="M1433.72 445.676C1445.68 441.307 1454.63 431.415 1465.14 424.226C1469.42 421.301 1474.16 418.747 1479.33 418.288C1484.49 417.829 1490.14 419.865 1492.77 424.344C1494.39 427.114 1494.85 430.675 1497.3 432.755C1501.51 436.346 1507.89 433.015 1512.14 429.475C1518.39 424.263 1524.49 418.391 1532.25 415.933C1540 413.475 1550.05 415.844 1553.18 423.382C1554.6 426.825 1554.5 431.023 1557.03 433.755C1559.71 436.657 1564.17 436.672 1568.02 437.553C1571.87 438.434 1576.09 441.833 1574.77 445.565L1433.72 445.676Z" fill="#FBF9FF"/>
<path d="M77.7216 498.528C92.2872 500.216 103.023 482.379 117.456 479.758C121.308 479.055 125.882 479.847 128.583 482.394C131.453 485.104 135.63 485.978 139.186 484.275C141.584 483.127 143.923 481.572 146.189 480.269C152.948 476.367 160.813 474.427 168.605 474.724C170.893 474.812 173.246 475.109 175.224 476.264C179.393 478.692 180.5 483.749 180.588 488.814C180.64 491.812 183.436 494.004 186.329 493.278C188.033 492.849 189.752 492.301 191.464 492.116C195.198 491.724 199.869 495.551 197.559 498.528H77.7216Z" fill="#FBF9FF"/>
<path d="M435.257 656.619V634.77H427.015V619.088H408.738V634.77H400.496V656.619H388.587V908.568H447.167V656.619H435.257Z" fill="#DEDEF9"/>
<path d="M1454.13 566.032V544.182H1439.68V528.507H1407.6V544.182H1393.15V566.032H1372.25L1372.25 977.343H1475.03V566.032H1454.13Z" fill="#DEDEF9"/>
<path d="M1413 589.855H1407.81V733.933H1413V589.855Z" fill="#F5EFFF"/>
<path d="M1425.99 589.855H1420.8V733.933H1425.99V589.855Z" fill="#F5EFFF"/>
<path d="M1451.96 589.855H1446.77V733.933H1451.96V589.855Z" fill="#F5EFFF"/>
<path d="M1400.02 589.855H1394.82V733.933H1400.02V589.855Z" fill="#F5EFFF"/>
<path d="M1438.97 589.855H1433.78V733.933H1438.97V589.855Z" fill="#F5EFFF"/>
<path d="M1460.18 611.16H1385.45V615.092H1460.18V611.16Z" fill="#DEDEF9"/>
<path d="M1460.18 641.554H1385.45V645.486H1460.18V641.554Z" fill="#DEDEF9"/>
<path d="M928.434 962.271V814.862H1078.02V748.632L1127.42 768.734V962.271H928.434Z" fill="#DEDEF9"/>
<path d="M612.795 964.663V725.812L693.651 752.934V963.834L612.795 964.663Z" fill="#DEDEF9"/>
<path d="M593.079 1027.85V789L512.223 816.121V1027.02L593.079 1027.85Z" fill="#DEDEF9"/>
<path d="M464.939 565.317C461.611 558.431 457.332 552.056 451.672 546.985C443.15 539.351 431.093 535.057 420.032 537.915C412.189 539.936 404.05 545.326 396.701 541.913C389.706 538.67 388.215 529.637 384.873 522.677C377.848 508.031 359.49 500.983 343.655 504.389C327.821 507.802 314.842 519.996 307.36 534.412C305.515 537.966 303.501 542.068 299.656 543.12C296.594 543.956 293.436 542.527 290.322 541.876C282.597 540.254 274.48 543.631 268.621 548.939C264.866 552.345 258.262 559.52 256.033 565.31H464.939V565.317Z" fill="#FBF9FF"/>
<path d="M1325.56 517.216C1320.33 515.364 1314.55 514.276 1310.56 510.419C1304.31 504.377 1304.95 494.181 1300.98 486.444C1296.74 478.181 1287.26 473.45 1278 473.279C1268.74 473.109 1259.77 476.937 1252.18 482.268C1249.11 484.43 1245.79 486.984 1241.71 484.963C1240.4 484.311 1239.32 483.275 1238.49 482.061C1236.04 478.455 1235.84 474.109 1234.64 470.073C1230.76 456.938 1216.26 448.957 1202.61 449.475C1188.96 449.993 1176.4 457.442 1166.41 466.771C1158.89 473.783 1152.46 481.964 1147.39 490.923C1144.44 496.143 1138.2 498.713 1132.51 496.891C1124.5 494.337 1114.61 496.336 1107.58 501.497C1106.73 502.126 1105.9 502.792 1105.1 503.481C1100.36 507.605 1094.22 509.671 1087.96 509.315C1086.94 509.256 1085.92 509.226 1084.89 509.226C1068.39 509.226 1054.68 516.66 1051.85 526.448H1336.53C1335.07 521.902 1330.21 518.874 1325.56 517.216Z" fill="#FBF9FF"/>
<path d="M1206.97 742.138H1155.72V746.736H1206.97V742.138Z" fill="#DEDEF9"/>
<path d="M1206.97 789.525H1155.72V794.123H1206.97V789.525Z" fill="#DEDEF9"/>
<path d="M1206.97 836.91H1155.72V841.508H1206.97V836.91Z" fill="#DEDEF9"/>
<path d="M1206.97 884.297H1155.72V888.895H1206.97V884.297Z" fill="#DEDEF9"/>
<path d="M1237.91 722.449L1237.91 718.154L1208.79 718.154L1208.79 722.449L1237.91 722.449Z" fill="#D6D4FF"/>
<path d="M1208.78 735.935L1237.9 735.935L1237.9 722.449L1208.78 722.449L1208.78 735.935Z" fill="#B5B5F7"/>
<path d="M1235.07 697H1237.91V718.156H1217.82L1235.07 697Z" fill="#B5B5F7"/>
<path d="M1267.03 722.451L1267.03 718.156L1237.91 718.156L1237.91 722.451L1267.03 722.451Z" fill="#D6D4FF"/>
<path d="M1267.03 722.444H1237.91V735.93H1267.03V722.444Z" fill="#9696EA"/>
<path d="M1240.75 697H1237.91V718.156H1258L1240.75 697Z" fill="#9696EA"/>
<path d="M1199.32 906.749L1237.91 906.749L1237.91 735.877L1199.32 735.877L1199.32 906.749Z" fill="#D6D4FF"/>
<path d="M1276.5 735.878H1237.91V906.75H1276.5V735.878Z" fill="#B5B5F7"/>
<path d="M1237.91 753.182L1254.23 753.182L1254.23 746.631L1237.91 746.631L1237.91 753.182Z" fill="#9696EA"/>
<path d="M1260.36 753.187C1262.17 753.187 1263.63 751.721 1263.63 749.912C1263.63 748.103 1262.17 746.636 1260.36 746.636C1258.56 746.636 1257.1 748.103 1257.1 749.912C1257.1 751.721 1258.56 753.187 1260.36 753.187Z" fill="#9696EA"/>
<path d="M1269.92 753.187C1271.73 753.187 1273.19 751.721 1273.19 749.912C1273.19 748.103 1271.73 746.636 1269.92 746.636C1268.12 746.636 1266.66 748.103 1266.66 749.912C1266.66 751.721 1268.12 753.187 1269.92 753.187Z" fill="#9696EA"/>
<path d="M1237.91 768.964L1254.23 768.964L1254.23 762.414L1237.91 762.414L1237.91 768.964Z" fill="#9696EA"/>
<path d="M1260.36 768.965C1262.17 768.965 1263.63 767.498 1263.63 765.689C1263.63 763.88 1262.17 762.414 1260.36 762.414C1258.56 762.414 1257.1 763.88 1257.1 765.689C1257.1 767.498 1258.56 768.965 1260.36 768.965Z" fill="#9696EA"/>
<path d="M1269.92 768.965C1271.73 768.965 1273.19 767.498 1273.19 765.689C1273.19 763.88 1271.73 762.414 1269.92 762.414C1268.12 762.414 1266.66 763.88 1266.66 765.689C1266.66 767.498 1268.12 768.965 1269.92 768.965Z" fill="#9696EA"/>
<path d="M1237.91 784.742L1254.23 784.742L1254.23 778.191L1237.91 778.191L1237.91 784.742Z" fill="#9696EA"/>
<path d="M1260.36 784.747C1262.17 784.747 1263.63 783.28 1263.63 781.472C1263.63 779.663 1262.17 778.196 1260.36 778.196C1258.56 778.196 1257.1 779.663 1257.1 781.472C1257.1 783.28 1258.56 784.747 1260.36 784.747Z" fill="#9696EA"/>
<path d="M1269.92 784.747C1271.73 784.747 1273.19 783.28 1273.19 781.472C1273.19 779.663 1271.73 778.196 1269.92 778.196C1268.12 778.196 1266.66 779.663 1266.66 781.472C1266.66 783.28 1268.12 784.747 1269.92 784.747Z" fill="#9696EA"/>
<path d="M1237.91 800.525L1254.23 800.525L1254.23 793.974L1237.91 793.974L1237.91 800.525Z" fill="#9696EA"/>
<path d="M1260.36 800.523C1262.17 800.523 1263.63 799.057 1263.63 797.248C1263.63 795.439 1262.17 793.973 1260.36 793.973C1258.56 793.973 1257.1 795.439 1257.1 797.248C1257.1 799.057 1258.56 800.523 1260.36 800.523Z" fill="#9696EA"/>
<path d="M1269.92 800.523C1271.73 800.523 1273.19 799.057 1273.19 797.248C1273.19 795.439 1271.73 793.973 1269.92 793.973C1268.12 793.973 1266.66 795.439 1266.66 797.248C1266.66 799.057 1268.12 800.523 1269.92 800.523Z" fill="#9696EA"/>
<path d="M1237.91 816.302L1254.23 816.302L1254.23 809.752L1237.91 809.752L1237.91 816.302Z" fill="#9696EA"/>
<path d="M1260.36 816.304C1262.17 816.304 1263.63 814.837 1263.63 813.028C1263.63 811.219 1262.17 809.753 1260.36 809.753C1258.56 809.753 1257.1 811.219 1257.1 813.028C1257.1 814.837 1258.56 816.304 1260.36 816.304Z" fill="#9696EA"/>
<path d="M1269.92 816.304C1271.73 816.304 1273.19 814.837 1273.19 813.028C1273.19 811.219 1271.73 809.753 1269.92 809.753C1268.12 809.753 1266.66 811.219 1266.66 813.028C1266.66 814.837 1268.12 816.304 1269.92 816.304Z" fill="#9696EA"/>
<path d="M1237.91 832.083L1254.23 832.083L1254.23 825.532L1237.91 825.532L1237.91 832.083Z" fill="#9696EA"/>
<path d="M1260.36 832.081C1262.17 832.081 1263.63 830.615 1263.63 828.806C1263.63 826.997 1262.17 825.531 1260.36 825.531C1258.56 825.531 1257.1 826.997 1257.1 828.806C1257.1 830.615 1258.56 832.081 1260.36 832.081Z" fill="#9696EA"/>
<path d="M1269.92 832.081C1271.73 832.081 1273.19 830.615 1273.19 828.806C1273.19 826.997 1271.73 825.531 1269.92 825.531C1268.12 825.531 1266.66 826.997 1266.66 828.806C1266.66 830.615 1268.12 832.081 1269.92 832.081Z" fill="#9696EA"/>
<path d="M1237.91 847.859L1254.23 847.859L1254.23 841.308L1237.91 841.308L1237.91 847.859Z" fill="#9696EA"/>
<path d="M1260.36 847.864C1262.17 847.864 1263.63 846.398 1263.63 844.589C1263.63 842.78 1262.17 841.314 1260.36 841.314C1258.56 841.314 1257.1 842.78 1257.1 844.589C1257.1 846.398 1258.56 847.864 1260.36 847.864Z" fill="#9696EA"/>
<path d="M1269.92 847.864C1271.73 847.864 1273.19 846.398 1273.19 844.589C1273.19 842.78 1271.73 841.314 1269.92 841.314C1268.12 841.314 1266.66 842.78 1266.66 844.589C1266.66 846.398 1268.12 847.864 1269.92 847.864Z" fill="#9696EA"/>
<path d="M1237.91 895.201L1254.23 895.201L1254.23 888.65L1237.91 888.65L1237.91 895.201Z" fill="#9696EA"/>
<path d="M1260.36 895.2C1262.17 895.2 1263.63 893.733 1263.63 891.924C1263.63 890.115 1262.17 888.649 1260.36 888.649C1258.56 888.649 1257.1 890.115 1257.1 891.924C1257.1 893.733 1258.56 895.2 1260.36 895.2Z" fill="#9696EA"/>
<path d="M1269.92 895.2C1271.73 895.2 1273.19 893.733 1273.19 891.924C1273.19 890.115 1271.73 888.649 1269.92 888.649C1268.12 888.649 1266.66 890.115 1266.66 891.924C1266.66 893.733 1268.12 895.2 1269.92 895.2Z" fill="#9696EA"/>
<path d="M1237.91 879.419L1254.23 879.419L1254.23 872.868L1237.91 872.868L1237.91 879.419Z" fill="#9696EA"/>
<path d="M1260.36 879.423C1262.17 879.423 1263.63 877.957 1263.63 876.148C1263.63 874.339 1262.17 872.872 1260.36 872.872C1258.56 872.872 1257.1 874.339 1257.1 876.148C1257.1 877.957 1258.56 879.423 1260.36 879.423Z" fill="#9696EA"/>
<path d="M1269.92 879.423C1271.73 879.423 1273.19 877.957 1273.19 876.148C1273.19 874.339 1271.73 872.872 1269.92 872.872C1268.12 872.872 1266.66 874.339 1266.66 876.148C1266.66 877.957 1268.12 879.423 1269.92 879.423Z" fill="#9696EA"/>
<path d="M1237.91 863.641L1254.23 863.641L1254.23 857.091L1237.91 857.091L1237.91 863.641Z" fill="#9696EA"/>
<path d="M1260.36 863.64C1262.17 863.64 1263.63 862.174 1263.63 860.365C1263.63 858.556 1262.17 857.089 1260.36 857.089C1258.56 857.089 1257.1 858.556 1257.1 860.365C1257.1 862.174 1258.56 863.64 1260.36 863.64Z" fill="#9696EA"/>
<path d="M1269.92 863.64C1271.73 863.64 1273.19 862.174 1273.19 860.365C1273.19 858.556 1271.73 857.089 1269.92 857.089C1268.12 857.089 1266.66 858.556 1266.66 860.365C1266.66 862.174 1268.12 863.64 1269.92 863.64Z" fill="#9696EA"/>
<path d="M1237.91 746.636H1221.59V753.187H1237.91V746.636Z" fill="#B5B5F7"/>
<path d="M1215.45 753.187C1217.26 753.187 1218.72 751.721 1218.72 749.912C1218.72 748.103 1217.26 746.636 1215.45 746.636C1213.65 746.636 1212.19 748.103 1212.19 749.912C1212.19 751.721 1213.65 753.187 1215.45 753.187Z" fill="#B5B5F7"/>
<path d="M1205.89 753.187C1207.7 753.187 1209.16 751.721 1209.16 749.912C1209.16 748.103 1207.7 746.636 1205.89 746.636C1204.09 746.636 1202.63 748.103 1202.63 749.912C1202.63 751.721 1204.09 753.187 1205.89 753.187Z" fill="#B5B5F7"/>
<path d="M1237.91 762.414H1221.59V768.965H1237.91V762.414Z" fill="#B5B5F7"/>
<path d="M1215.45 768.965C1217.26 768.965 1218.72 767.498 1218.72 765.689C1218.72 763.88 1217.26 762.414 1215.45 762.414C1213.65 762.414 1212.19 763.88 1212.19 765.689C1212.19 767.498 1213.65 768.965 1215.45 768.965Z" fill="#B5B5F7"/>
<path d="M1205.89 768.965C1207.7 768.965 1209.16 767.498 1209.16 765.689C1209.16 763.88 1207.7 762.414 1205.89 762.414C1204.09 762.414 1202.63 763.88 1202.63 765.689C1202.63 767.498 1204.09 768.965 1205.89 768.965Z" fill="#B5B5F7"/>
<path d="M1237.91 778.196H1221.59V784.747H1237.91V778.196Z" fill="#B5B5F7"/>
<path d="M1215.45 784.747C1217.26 784.747 1218.72 783.28 1218.72 781.472C1218.72 779.663 1217.26 778.196 1215.45 778.196C1213.65 778.196 1212.19 779.663 1212.19 781.472C1212.19 783.28 1213.65 784.747 1215.45 784.747Z" fill="#B5B5F7"/>
<path d="M1205.89 784.747C1207.7 784.747 1209.16 783.28 1209.16 781.472C1209.16 779.663 1207.7 778.196 1205.89 778.196C1204.09 778.196 1202.63 779.663 1202.63 781.472C1202.63 783.28 1204.09 784.747 1205.89 784.747Z" fill="#B5B5F7"/>
<path d="M1237.91 793.973H1221.59V800.523H1237.91V793.973Z" fill="#B5B5F7"/>
<path d="M1215.45 800.523C1217.26 800.523 1218.72 799.057 1218.72 797.248C1218.72 795.439 1217.26 793.973 1215.45 793.973C1213.65 793.973 1212.19 795.439 1212.19 797.248C1212.19 799.057 1213.65 800.523 1215.45 800.523Z" fill="#B5B5F7"/>
<path d="M1205.89 800.523C1207.7 800.523 1209.16 799.057 1209.16 797.248C1209.16 795.439 1207.7 793.973 1205.89 793.973C1204.09 793.973 1202.63 795.439 1202.63 797.248C1202.63 799.057 1204.09 800.523 1205.89 800.523Z" fill="#B5B5F7"/>
<path d="M1237.91 809.753H1221.59V816.304H1237.91V809.753Z" fill="#B5B5F7"/>
<path d="M1215.45 816.304C1217.26 816.304 1218.72 814.837 1218.72 813.028C1218.72 811.219 1217.26 809.753 1215.45 809.753C1213.65 809.753 1212.19 811.219 1212.19 813.028C1212.19 814.837 1213.65 816.304 1215.45 816.304Z" fill="#B5B5F7"/>
<path d="M1205.89 816.304C1207.7 816.304 1209.16 814.837 1209.16 813.028C1209.16 811.219 1207.7 809.753 1205.89 809.753C1204.09 809.753 1202.63 811.219 1202.63 813.028C1202.63 814.837 1204.09 816.304 1205.89 816.304Z" fill="#B5B5F7"/>
<path d="M1237.91 825.531H1221.59V832.081H1237.91V825.531Z" fill="#B5B5F7"/>
<path d="M1215.45 832.081C1217.26 832.081 1218.72 830.615 1218.72 828.806C1218.72 826.997 1217.26 825.531 1215.45 825.531C1213.65 825.531 1212.19 826.997 1212.19 828.806C1212.19 830.615 1213.65 832.081 1215.45 832.081Z" fill="#B5B5F7"/>
<path d="M1205.89 832.081C1207.7 832.081 1209.16 830.615 1209.16 828.806C1209.16 826.997 1207.7 825.531 1205.89 825.531C1204.09 825.531 1202.63 826.997 1202.63 828.806C1202.63 830.615 1204.09 832.081 1205.89 832.081Z" fill="#B5B5F7"/>
<path d="M1237.91 841.314H1221.59V847.864H1237.91V841.314Z" fill="#B5B5F7"/>
<path d="M1215.45 847.864C1217.26 847.864 1218.72 846.398 1218.72 844.589C1218.72 842.78 1217.26 841.314 1215.45 841.314C1213.65 841.314 1212.19 842.78 1212.19 844.589C1212.19 846.398 1213.65 847.864 1215.45 847.864Z" fill="#B5B5F7"/>
<path d="M1205.89 847.864C1207.7 847.864 1209.16 846.398 1209.16 844.589C1209.16 842.78 1207.7 841.314 1205.89 841.314C1204.09 841.314 1202.63 842.78 1202.63 844.589C1202.63 846.398 1204.09 847.864 1205.89 847.864Z" fill="#B5B5F7"/>
<path d="M1237.91 888.649H1221.59V895.2H1237.91V888.649Z" fill="#B5B5F7"/>
<path d="M1215.45 895.2C1217.26 895.2 1218.72 893.733 1218.72 891.924C1218.72 890.115 1217.26 888.649 1215.45 888.649C1213.65 888.649 1212.19 890.115 1212.19 891.924C1212.19 893.733 1213.65 895.2 1215.45 895.2Z" fill="#B5B5F7"/>
<path d="M1205.89 895.2C1207.7 895.2 1209.16 893.733 1209.16 891.924C1209.16 890.115 1207.7 888.649 1205.89 888.649C1204.09 888.649 1202.63 890.115 1202.63 891.924C1202.63 893.733 1204.09 895.2 1205.89 895.2Z" fill="#B5B5F7"/>
<path d="M1237.91 872.872H1221.59V879.423H1237.91V872.872Z" fill="#B5B5F7"/>
<path d="M1215.45 879.423C1217.26 879.423 1218.72 877.957 1218.72 876.148C1218.72 874.339 1217.26 872.872 1215.45 872.872C1213.65 872.872 1212.19 874.339 1212.19 876.148C1212.19 877.957 1213.65 879.423 1215.45 879.423Z" fill="#B5B5F7"/>
<path d="M1205.89 879.423C1207.7 879.423 1209.16 877.957 1209.16 876.148C1209.16 874.339 1207.7 872.872 1205.89 872.872C1204.09 872.872 1202.63 874.339 1202.63 876.148C1202.63 877.957 1204.09 879.423 1205.89 879.423Z" fill="#B5B5F7"/>
<path d="M1237.91 857.089H1221.59V863.64H1237.91V857.089Z" fill="#B5B5F7"/>
<path d="M1215.45 863.64C1217.26 863.64 1218.72 862.174 1218.72 860.365C1218.72 858.556 1217.26 857.089 1215.45 857.089C1213.65 857.089 1212.19 858.556 1212.19 860.365C1212.19 862.174 1213.65 863.64 1215.45 863.64Z" fill="#B5B5F7"/>
<path d="M1205.89 863.64C1207.7 863.64 1209.16 862.174 1209.16 860.365C1209.16 858.556 1207.7 857.089 1205.89 857.089C1204.09 857.089 1202.63 858.556 1202.63 860.365C1202.63 862.174 1204.09 863.64 1205.89 863.64Z" fill="#B5B5F7"/>
<path d="M1369.27 670.457L1369.27 664.135L1326.41 664.135L1326.41 670.457L1369.27 670.457Z" fill="#D6D4FF"/>
<path d="M1326.4 690.306L1369.26 690.306L1369.26 670.457L1326.4 670.457L1326.4 690.306Z" fill="#B5B5F7"/>
<path d="M1365.09 633H1369.27V664.137H1339.7L1365.09 633Z" fill="#B5B5F7"/>
<path d="M1412.12 670.46L1412.12 664.138L1369.26 664.138L1369.26 670.46L1412.12 670.46Z" fill="#D6D4FF"/>
<path d="M1412.13 670.449H1369.27V690.298H1412.13V670.449Z" fill="#9696EA"/>
<path d="M1373.45 633H1369.27V664.137H1398.84L1373.45 633Z" fill="#9696EA"/>
<path d="M1312.46 941.712L1369.27 941.712L1369.27 690.22L1312.46 690.22L1312.46 941.712Z" fill="#D6D4FF"/>
<path d="M1426.07 690.222H1369.27V941.714H1426.07V690.222Z" fill="#B5B5F7"/>
<path d="M1369.27 715.69L1393.29 715.69L1393.29 706.048L1369.27 706.048L1369.27 715.69Z" fill="#9696EA"/>
<path d="M1402.32 715.697C1404.97 715.697 1407.12 713.539 1407.12 710.876C1407.12 708.214 1404.97 706.056 1402.32 706.056C1399.66 706.056 1397.51 708.214 1397.51 710.876C1397.51 713.539 1399.66 715.697 1402.32 715.697Z" fill="#9696EA"/>
<path d="M1416.39 715.697C1419.04 715.697 1421.19 713.539 1421.19 710.876C1421.19 708.214 1419.04 706.056 1416.39 706.056C1413.73 706.056 1411.58 708.214 1411.58 710.876C1411.58 713.539 1413.73 715.697 1416.39 715.697Z" fill="#9696EA"/>
<path d="M1369.27 738.918L1393.29 738.918L1393.29 729.277L1369.27 729.277L1369.27 738.918Z" fill="#9696EA"/>
<path d="M1402.32 738.919C1404.97 738.919 1407.12 736.761 1407.12 734.098C1407.12 731.436 1404.97 729.277 1402.32 729.277C1399.66 729.277 1397.51 731.436 1397.51 734.098C1397.51 736.761 1399.66 738.919 1402.32 738.919Z" fill="#9696EA"/>
<path d="M1416.39 738.919C1419.04 738.919 1421.19 736.761 1421.19 734.098C1421.19 731.436 1419.04 729.277 1416.39 729.277C1413.73 729.277 1411.58 731.436 1411.58 734.098C1411.58 736.761 1413.73 738.919 1416.39 738.919Z" fill="#9696EA"/>
<path d="M1369.27 762.14L1393.29 762.14L1393.29 752.498L1369.27 752.498L1369.27 762.14Z" fill="#9696EA"/>
<path d="M1402.32 762.147C1404.97 762.147 1407.12 759.989 1407.12 757.327C1407.12 754.664 1404.97 752.506 1402.32 752.506C1399.66 752.506 1397.51 754.664 1397.51 757.327C1397.51 759.989 1399.66 762.147 1402.32 762.147Z" fill="#9696EA"/>
<path d="M1416.39 762.147C1419.04 762.147 1421.19 759.989 1421.19 757.327C1421.19 754.664 1419.04 752.506 1416.39 752.506C1413.73 752.506 1411.58 754.664 1411.58 757.327C1411.58 759.989 1413.73 762.147 1416.39 762.147Z" fill="#9696EA"/>
<path d="M1369.27 785.37L1393.29 785.37L1393.29 775.728L1369.27 775.728L1369.27 785.37Z" fill="#9696EA"/>
<path d="M1402.32 785.367C1404.97 785.367 1407.12 783.209 1407.12 780.547C1407.12 777.884 1404.97 775.726 1402.32 775.726C1399.66 775.726 1397.51 777.884 1397.51 780.547C1397.51 783.209 1399.66 785.367 1402.32 785.367Z" fill="#9696EA"/>
<path d="M1416.39 785.367C1419.04 785.367 1421.19 783.209 1421.19 780.547C1421.19 777.884 1419.04 775.726 1416.39 775.726C1413.73 775.726 1411.58 777.884 1411.58 780.547C1411.58 783.209 1413.73 785.367 1416.39 785.367Z" fill="#9696EA"/>
<path d="M1369.27 808.591L1393.29 808.591L1393.29 798.95L1369.27 798.95L1369.27 808.591Z" fill="#9696EA"/>
<path d="M1402.32 808.593C1404.97 808.593 1407.12 806.435 1407.12 803.773C1407.12 801.11 1404.97 798.952 1402.32 798.952C1399.66 798.952 1397.51 801.11 1397.51 803.773C1397.51 806.435 1399.66 808.593 1402.32 808.593Z" fill="#9696EA"/>
<path d="M1416.39 808.593C1419.04 808.593 1421.19 806.435 1421.19 803.773C1421.19 801.11 1419.04 798.952 1416.39 798.952C1413.73 798.952 1411.58 801.11 1411.58 803.773C1411.58 806.435 1413.73 808.593 1416.39 808.593Z" fill="#9696EA"/>
<path d="M1369.27 831.817L1393.29 831.817L1393.29 822.176L1369.27 822.176L1369.27 831.817Z" fill="#9696EA"/>
<path d="M1402.32 831.815C1404.97 831.815 1407.12 829.657 1407.12 826.994C1407.12 824.332 1404.97 822.173 1402.32 822.173C1399.66 822.173 1397.51 824.332 1397.51 826.994C1397.51 829.657 1399.66 831.815 1402.32 831.815Z" fill="#9696EA"/>
<path d="M1416.39 831.815C1419.04 831.815 1421.19 829.657 1421.19 826.994C1421.19 824.332 1419.04 822.173 1416.39 822.173C1413.73 822.173 1411.58 824.332 1411.58 826.994C1411.58 829.657 1413.73 831.815 1416.39 831.815Z" fill="#9696EA"/>
<path d="M1369.27 855.037L1393.29 855.037L1393.29 845.396L1369.27 845.396L1369.27 855.037Z" fill="#9696EA"/>
<path d="M1402.32 855.045C1404.97 855.045 1407.12 852.887 1407.12 850.224C1407.12 847.562 1404.97 845.403 1402.32 845.403C1399.66 845.403 1397.51 847.562 1397.51 850.224C1397.51 852.887 1399.66 855.045 1402.32 855.045Z" fill="#9696EA"/>
<path d="M1416.39 855.045C1419.04 855.045 1421.19 852.887 1421.19 850.224C1421.19 847.562 1419.04 845.403 1416.39 845.403C1413.73 845.403 1411.58 847.562 1411.58 850.224C1411.58 852.887 1413.73 855.045 1416.39 855.045Z" fill="#9696EA"/>
<path d="M1369.27 901.487L1393.29 901.487L1393.29 891.846L1369.27 891.846L1369.27 901.487Z" fill="#9696EA"/>
<path d="M1402.32 901.493C1404.97 901.493 1407.12 899.335 1407.12 896.673C1407.12 894.01 1404.97 891.852 1402.32 891.852C1399.66 891.852 1397.51 894.01 1397.51 896.673C1397.51 899.335 1399.66 901.493 1402.32 901.493Z" fill="#9696EA"/>
<path d="M1416.39 901.493C1419.04 901.493 1421.19 899.335 1421.19 896.673C1421.19 894.01 1419.04 891.852 1416.39 891.852C1413.73 891.852 1411.58 894.01 1411.58 896.673C1411.58 899.335 1413.73 901.493 1416.39 901.493Z" fill="#9696EA"/>
<path d="M1369.27 878.266L1393.29 878.266L1393.29 868.624L1369.27 868.624L1369.27 878.266Z" fill="#9696EA"/>
<path d="M1402.32 878.264C1404.97 878.264 1407.12 876.105 1407.12 873.443C1407.12 870.78 1404.97 868.622 1402.32 868.622C1399.66 868.622 1397.51 870.78 1397.51 873.443C1397.51 876.105 1399.66 878.264 1402.32 878.264Z" fill="#9696EA"/>
<path d="M1416.39 878.264C1419.04 878.264 1421.19 876.105 1421.19 873.443C1421.19 870.78 1419.04 868.622 1416.39 868.622C1413.73 868.622 1411.58 870.78 1411.58 873.443C1411.58 876.105 1413.73 878.264 1416.39 878.264Z" fill="#9696EA"/>
<path d="M1369.27 706.056H1345.24V715.697H1369.27V706.056Z" fill="#B5B5F7"/>
<path d="M1336.22 715.697C1338.87 715.697 1341.02 713.539 1341.02 710.876C1341.02 708.214 1338.87 706.056 1336.22 706.056C1333.56 706.056 1331.41 708.214 1331.41 710.876C1331.41 713.539 1333.56 715.697 1336.22 715.697Z" fill="#B5B5F7"/>
<path d="M1322.15 715.697C1324.8 715.697 1326.95 713.539 1326.95 710.876C1326.95 708.214 1324.8 706.056 1322.15 706.056C1319.49 706.056 1317.34 708.214 1317.34 710.876C1317.34 713.539 1319.49 715.697 1322.15 715.697Z" fill="#B5B5F7"/>
<path d="M1369.27 729.277H1345.24V738.919H1369.27V729.277Z" fill="#B5B5F7"/>
<path d="M1336.22 738.919C1338.87 738.919 1341.02 736.761 1341.02 734.098C1341.02 731.436 1338.87 729.277 1336.22 729.277C1333.56 729.277 1331.41 731.436 1331.41 734.098C1331.41 736.761 1333.56 738.919 1336.22 738.919Z" fill="#B5B5F7"/>
<path d="M1322.15 738.919C1324.8 738.919 1326.95 736.761 1326.95 734.098C1326.95 731.436 1324.8 729.277 1322.15 729.277C1319.49 729.277 1317.34 731.436 1317.34 734.098C1317.34 736.761 1319.49 738.919 1322.15 738.919Z" fill="#B5B5F7"/>
<path d="M1369.27 752.506H1345.24V762.147H1369.27V752.506Z" fill="#B5B5F7"/>
<path d="M1336.22 762.147C1338.87 762.147 1341.02 759.989 1341.02 757.327C1341.02 754.664 1338.87 752.506 1336.22 752.506C1333.56 752.506 1331.41 754.664 1331.41 757.327C1331.41 759.989 1333.56 762.147 1336.22 762.147Z" fill="#B5B5F7"/>
<path d="M1322.15 762.147C1324.8 762.147 1326.95 759.989 1326.95 757.327C1326.95 754.664 1324.8 752.506 1322.15 752.506C1319.49 752.506 1317.34 754.664 1317.34 757.327C1317.34 759.989 1319.49 762.147 1322.15 762.147Z" fill="#B5B5F7"/>
<path d="M1369.27 775.726H1345.24V785.367H1369.27V775.726Z" fill="#B5B5F7"/>
<path d="M1336.22 785.367C1338.87 785.367 1341.02 783.209 1341.02 780.547C1341.02 777.884 1338.87 775.726 1336.22 775.726C1333.56 775.726 1331.41 777.884 1331.41 780.547C1331.41 783.209 1333.56 785.367 1336.22 785.367Z" fill="#B5B5F7"/>
<path d="M1322.15 785.367C1324.8 785.367 1326.95 783.209 1326.95 780.547C1326.95 777.884 1324.8 775.726 1322.15 775.726C1319.49 775.726 1317.34 777.884 1317.34 780.547C1317.34 783.209 1319.49 785.367 1322.15 785.367Z" fill="#B5B5F7"/>
<path d="M1369.27 798.952H1345.24V808.593H1369.27V798.952Z" fill="#B5B5F7"/>
<path d="M1336.22 808.593C1338.87 808.593 1341.02 806.435 1341.02 803.773C1341.02 801.11 1338.87 798.952 1336.22 798.952C1333.56 798.952 1331.41 801.11 1331.41 803.773C1331.41 806.435 1333.56 808.593 1336.22 808.593Z" fill="#B5B5F7"/>
<path d="M1322.15 808.593C1324.8 808.593 1326.95 806.435 1326.95 803.773C1326.95 801.11 1324.8 798.952 1322.15 798.952C1319.49 798.952 1317.34 801.11 1317.34 803.773C1317.34 806.435 1319.49 808.593 1322.15 808.593Z" fill="#B5B5F7"/>
<path d="M1369.27 822.173H1345.24V831.815H1369.27V822.173Z" fill="#B5B5F7"/>
<path d="M1336.22 831.815C1338.87 831.815 1341.02 829.657 1341.02 826.994C1341.02 824.332 1338.87 822.173 1336.22 822.173C1333.56 822.173 1331.41 824.332 1331.41 826.994C1331.41 829.657 1333.56 831.815 1336.22 831.815Z" fill="#B5B5F7"/>
<path d="M1322.15 831.815C1324.8 831.815 1326.95 829.657 1326.95 826.994C1326.95 824.332 1324.8 822.173 1322.15 822.173C1319.49 822.173 1317.34 824.332 1317.34 826.994C1317.34 829.657 1319.49 831.815 1322.15 831.815Z" fill="#B5B5F7"/>
<path d="M1369.27 845.403H1345.24V855.045H1369.27V845.403Z" fill="#B5B5F7"/>
<path d="M1336.22 855.045C1338.87 855.045 1341.02 852.887 1341.02 850.224C1341.02 847.562 1338.87 845.403 1336.22 845.403C1333.56 845.403 1331.41 847.562 1331.41 850.224C1331.41 852.887 1333.56 855.045 1336.22 855.045Z" fill="#B5B5F7"/>
<path d="M1322.15 855.045C1324.8 855.045 1326.95 852.887 1326.95 850.224C1326.95 847.562 1324.8 845.403 1322.15 845.403C1319.49 845.403 1317.34 847.562 1317.34 850.224C1317.34 852.887 1319.49 855.045 1322.15 855.045Z" fill="#B5B5F7"/>
<path d="M1369.27 891.852H1345.24V901.493H1369.27V891.852Z" fill="#B5B5F7"/>
<path d="M1336.22 901.493C1338.87 901.493 1341.02 899.335 1341.02 896.673C1341.02 894.01 1338.87 891.852 1336.22 891.852C1333.56 891.852 1331.41 894.01 1331.41 896.673C1331.41 899.335 1333.56 901.493 1336.22 901.493Z" fill="#B5B5F7"/>
<path d="M1322.15 901.493C1324.8 901.493 1326.95 899.335 1326.95 896.673C1326.95 894.01 1324.8 891.852 1322.15 891.852C1319.49 891.852 1317.34 894.01 1317.34 896.673C1317.34 899.335 1319.49 901.493 1322.15 901.493Z" fill="#B5B5F7"/>
<path d="M1369.27 868.622H1345.24V878.264H1369.27V868.622Z" fill="#B5B5F7"/>
<path d="M1336.22 878.264C1338.87 878.264 1341.02 876.105 1341.02 873.443C1341.02 870.78 1338.87 868.622 1336.22 868.622C1333.56 868.622 1331.41 870.78 1331.41 873.443C1331.41 876.105 1333.56 878.264 1336.22 878.264Z" fill="#B5B5F7"/>
<path d="M1322.15 878.264C1324.8 878.264 1326.95 876.105 1326.95 873.443C1326.95 870.78 1324.8 868.622 1322.15 868.622C1319.49 868.622 1317.34 870.78 1317.34 873.443C1317.34 876.105 1319.49 878.264 1322.15 878.264Z" fill="#B5B5F7"/>
<path d="M380.143 635.966C379.131 635.966 378.315 635.147 378.315 634.132V600.27C378.315 599.255 379.131 598.436 380.143 598.436C381.154 598.436 381.97 599.255 381.97 600.27V634.132C381.97 635.147 381.154 635.966 380.143 635.966Z" fill="#9696EA"/>
<path d="M380.141 630.854C369.542 630.854 360.953 653.207 360.953 663.842V771.499H399.334V663.842C399.328 653.207 390.74 630.854 380.141 630.854Z" fill="#D6D4FF"/>
<path d="M380.142 647.633C367.588 647.633 357.409 657.847 357.409 670.444V722.827H402.875V670.444C402.875 657.847 392.696 647.633 380.142 647.633Z" fill="#B5B5F7"/>
<path d="M402.228 704.808H358.054C355.55 704.808 353.522 706.844 353.522 709.356V903.625H406.76V709.356C406.76 706.844 404.732 704.808 402.228 704.808Z" fill="#D6D4FF"/>
<path d="M397.276 669.307H363.006V674.295H397.276V669.307Z" fill="#9696EA"/>
<path d="M397.276 681.384H363.006V686.372H397.276V681.384Z" fill="#9696EA"/>
<path d="M397.276 693.464H363.006V698.451H397.276V693.464Z" fill="#9696EA"/>
<path d="M372.815 667.737H369.155V701.6H372.815V667.737Z" fill="#B5B5F7"/>
<path d="M381.971 667.737H378.31V701.6H381.971V667.737Z" fill="#B5B5F7"/>
<path d="M391.131 667.737H387.471V701.6H391.131V667.737Z" fill="#B5B5F7"/>
<path d="M372.805 715.144H369.145V903.624H372.805V715.144Z" fill="#B5B5F7"/>
<path d="M381.962 715.144H378.302V903.624H381.962V715.144Z" fill="#B5B5F7"/>
<path d="M396.617 903.626L400.278 903.626L400.278 715.145L396.617 715.145L396.617 903.626Z" fill="#B5B5F7"/>
<path d="M359.989 903.626L363.65 903.626L363.65 715.145L359.989 715.145L359.989 903.626Z" fill="#B5B5F7"/>
<path d="M391.125 715.144H387.464V903.624H391.125V715.144Z" fill="#B5B5F7"/>
<path d="M1198.99 835.236H1111.24V854.613H1198.99V835.236Z" fill="#D6D4FF"/>
<path d="M1176.12 825.267H1127.9V835.23H1176.12V825.267Z" fill="#B5B5F7"/>
<path d="M1170.35 829.21H1133.66V831.288H1170.35V829.21Z" fill="#D6D4FF"/>
<path d="M1199.31 854.754H1111.16V909.304H1199.31V854.754Z" fill="#B5B5F7"/>
<path d="M1149.79 864.337H1118.74V891.873H1149.79V864.337Z" fill="#D6D4FF"/>
<path d="M1121.88 867.489V888.717H1146.65V867.489H1121.88Z" fill="#9696EA"/>
<path d="M1187.95 864.337H1158.96V899.538H1187.95V864.337Z" fill="#D6D4FF"/>
<path d="M1171.91 868.132H1162.55V891.756H1171.91V868.132Z" fill="#9696EA"/>
<path d="M1175.01 891.759L1184.36 891.759L1184.36 868.135L1175.01 868.135L1175.01 891.759Z" fill="#9696EA"/>
<path d="M1131.26 835.234H1130.04V854.611H1131.26V835.234Z" fill="#9696EA"/>
<path d="M1148.62 835.235H1147.4V854.612H1148.62V835.235Z" fill="#9696EA"/>
<path d="M1165.97 835.235H1164.75V854.611H1165.97V835.235Z" fill="#9696EA"/>
<path d="M1183.33 835.235H1182.11V854.612H1183.33V835.235Z" fill="#9696EA"/>
<path d="M468.622 533.895L466.008 613.323H473.084L470.47 533.895C470.434 532.702 468.658 532.702 468.622 533.895Z" fill="#B5B5F7"/>
<path d="M474.869 637.182L474.067 613.332H465.026L464.224 637.182H474.869Z" fill="#B5B5F7"/>
<path d="M462.846 682.322H476.258C486.226 679.41 493.518 670.176 493.518 659.232C493.518 649.365 487.587 640.89 479.115 637.182H459.989C451.516 640.89 445.585 649.365 445.585 659.232C445.576 670.185 452.868 679.41 462.846 682.322Z" fill="#9696EA"/>
<path d="M465.099 617.882H473.995C480.61 615.947 485.451 609.824 485.451 602.561C485.451 596.013 481.521 590.388 475.887 587.927H463.197C457.572 590.388 453.634 596.013 453.634 602.561C453.643 609.824 458.474 615.947 465.099 617.882Z" fill="#D6D4FF"/>
<path d="M479.005 611.841H474.3C466.152 611.841 459.13 605.591 458.68 597.415C458.662 597.117 458.653 596.818 458.653 596.511C458.653 594.051 459.211 591.717 460.203 589.637C456.228 592.54 453.641 597.234 453.641 602.543C453.641 609.806 458.481 615.938 465.097 617.864H473.993C478.365 616.589 481.952 613.469 483.89 609.408C482.43 610.493 480.789 611.325 479.005 611.841Z" fill="#B5B5F7"/>
<path d="M479.116 637.182H477.828C482.289 641.55 485.065 647.637 485.065 654.384C485.065 664.984 478.233 673.974 468.742 677.176C468.12 677.384 467.471 677.475 466.813 677.475H455.375C454.808 677.475 454.24 677.393 453.69 677.239C456.304 679.555 459.404 681.328 462.847 682.322H476.259C486.228 679.41 493.52 670.176 493.52 659.232C493.511 649.365 487.589 640.89 479.116 637.182Z" fill="#9696EA"/>
<path d="M457.562 911.336L462.844 682.322H476.247L481.528 911.336H457.562Z" fill="#B5B5F7"/>
<path d="M462.846 682.322H476.258C486.226 679.41 493.518 670.176 493.518 659.232C493.518 649.365 487.587 640.89 479.115 637.182H459.989C451.516 640.89 445.585 649.365 445.585 659.232C445.576 670.185 452.868 679.41 462.846 682.322Z" fill="#D6D4FF"/>
<path d="M482.477 674.454H475.302C462.963 674.454 452.426 664.903 451.832 652.531C451.814 652.142 451.804 651.753 451.804 651.364C451.804 647.529 452.715 643.902 454.31 640.683C448.983 645.096 445.585 651.762 445.585 659.233C445.585 670.176 452.877 679.411 462.846 682.323H476.258C482.729 680.433 488.047 675.874 491.003 669.932C488.525 671.976 485.64 673.532 482.477 674.454Z" fill="#B5B5F7"/>
<path d="M474.882 555.007H464.229V561.41H474.882V555.007Z" fill="#B5B5F7"/>
<path d="M479.505 689.965H459.585V696.369H479.505V689.965Z" fill="#B5B5F7"/>
<path d="M479.505 705.351H459.585V711.755H479.505V705.351Z" fill="#B5B5F7"/>
<path d="M43.0333 606.546H-0.0102916L-0.0103149 913.888H43.0333L43.0333 606.546Z" fill="#B5B5F7"/>
<path d="M113.476 606.546H42.1673V914.655H113.476V606.546Z" fill="#D6D4FF"/>
<path d="M59.7922 619.894H50.6246V885.906H59.7922V619.894Z" fill="#B5B5F7"/>
<path d="M81.1845 619.894H72.7809V885.906H81.1845V619.894Z" fill="#B5B5F7"/>
<path d="M102.574 619.894H94.1698V885.906H102.574V619.894Z" fill="#B5B5F7"/>
<path d="M42.1657 593.515H10.1823V606.546H42.1657V593.515Z" fill="#B5B5F7"/>
<path d="M42.1703 606.546L102.773 606.546L102.773 593.516L42.1703 593.516L42.1703 606.546Z" fill="#B5B5F7"/>
<path d="M99.1007 593.514L93.5263 574.362L77.7721 559.412L56.9059 554.683L36.0461 559.412L20.2919 574.362L14.7112 593.514H99.1007Z" fill="#D6D4FF"/>
<path d="M20.7442 575.091L20.0104 576.127L45.1176 594.028L45.8514 592.991L20.7442 575.091Z" fill="#B5B5F7"/>
<path d="M93.0731 575.126L67.961 593.019L68.6951 594.055L93.8071 576.162L93.0731 575.126Z" fill="#B5B5F7"/>
<path d="M36.6449 559.25L35.4242 559.59L44.8627 593.691L46.0834 593.351L36.6449 559.25Z" fill="#B5B5F7"/>
<path d="M77.1583 559.245L67.7147 593.345L68.9354 593.685L78.379 559.585L77.1583 559.245Z" fill="#B5B5F7"/>
<path d="M56.32 554.492L44.8864 593.324L46.1016 593.684L57.5351 554.852L56.32 554.492Z" fill="#B5B5F7"/>
<path d="M57.5267 554.505L56.3116 554.865L67.735 593.699L68.9501 593.339L57.5267 554.505Z" fill="#B5B5F7"/>
<path d="M207.396 744.695H134.915V806.937H207.396V744.695Z" fill="#9696EA"/>
<path d="M205.878 806.399C193.598 802.481 185.752 790.452 187.074 777.591C188.055 768.087 180.623 759.823 171.102 759.823C161.582 759.823 154.156 768.087 155.131 777.591C156.459 790.452 148.607 802.481 136.327 806.399L134.81 806.882V903.622H207.382V806.882L205.878 806.399Z" fill="#B5B5F7"/>
<path d="M171.108 782.493C168.081 782.493 165.632 784.957 165.632 787.988V801.949H176.584V787.988C176.584 784.951 174.136 782.493 171.108 782.493Z" fill="#9696EA"/>
<path d="M155.703 870.767H145.433V886.91H155.703V870.767Z" fill="#9696EA"/>
<path d="M176.244 870.767H165.974V886.91H176.244V870.767Z" fill="#9696EA"/>
<path d="M196.785 870.767H186.515V886.91H196.785V870.767Z" fill="#9696EA"/>
<path d="M155.703 838.733H145.433V854.876H155.703V838.733Z" fill="#9696EA"/>
<path d="M176.244 838.733H165.974V854.876H176.244V838.733Z" fill="#9696EA"/>
<path d="M196.785 838.733H186.515V854.876H196.785V838.733Z" fill="#9696EA"/>
<path d="M252.835 806.778H207.393V903.622H252.835V806.778Z" fill="#9696EA"/>
<path d="M223.951 776.064H216.55V783.49H223.951V776.064Z" fill="#9696EA"/>
<path d="M236.279 783.494L243.68 783.494L243.68 776.067L236.279 776.067L236.279 783.494Z" fill="#9696EA"/>
<path d="M251.026 783.282H207.393V806.937H252.835L251.026 783.282Z" fill="#B5B5F7"/>
<path d="M219.36 822.151C215.541 822.151 212.441 825.256 212.441 829.095V843.905H226.274V829.095C226.28 825.263 223.18 822.151 219.36 822.151Z" fill="#B5B5F7"/>
<path d="M219.36 859.082C215.541 859.082 212.441 862.187 212.441 866.026V880.836H226.274V866.026C226.28 862.193 223.18 859.082 219.36 859.082Z" fill="#B5B5F7"/>
<path d="M239.654 822.151C235.835 822.151 232.734 825.256 232.734 829.094V843.904H246.568V829.094C246.568 825.262 243.473 822.151 239.654 822.151Z" fill="#B5B5F7"/>
<path d="M239.654 859.081C235.835 859.081 232.734 862.186 232.734 866.025V880.835H246.568V866.025C246.568 862.192 243.473 859.081 239.654 859.081Z" fill="#B5B5F7"/>
<path d="M326.766 733.265H251.026V775H326.766V733.265Z" fill="#9696EA"/>
<path d="M317.392 761.956H313.767V754.133H301.53C301.548 753.864 301.572 753.595 301.572 753.32C301.572 746.297 295.901 740.606 288.902 740.606C281.904 740.606 276.232 746.297 276.232 753.32C276.232 753.595 276.257 753.864 276.275 754.133H264.025V761.956H251.026V903.592H326.766V761.956H317.392Z" fill="#B5B5F7"/>
<path d="M284.918 783.606H274.648V799.749H284.918V783.606Z" fill="#9696EA"/>
<path d="M305.451 783.606H295.181V799.748H305.451V783.606Z" fill="#9696EA"/>
<path d="M284.92 811.655H274.65V827.797H284.92V811.655Z" fill="#9696EA"/>
<path d="M305.453 811.654H295.183V827.797H305.453V811.654Z" fill="#9696EA"/>
<path d="M284.92 839.699H274.65V855.841H284.92V839.699Z" fill="#9696EA"/>
<path d="M305.453 839.698H295.183V855.841H305.453V839.698Z" fill="#9696EA"/>
<path d="M1299.82 467.979C1300.68 462.878 1298.22 457.587 1293.39 455.099C1288.56 452.604 1282.84 453.678 1279.21 457.345L1299.82 467.979Z" fill="#9696EA"/>
<path d="M1299.82 467.979C1298.97 462.878 1301.42 457.587 1306.26 455.099C1311.09 452.604 1316.8 453.678 1320.44 457.345L1299.82 467.979Z" fill="#9696EA"/>
<path d="M1254.35 450.233C1255.21 445.132 1252.75 439.841 1247.92 437.353C1243.09 434.858 1237.37 435.932 1233.74 439.599L1254.35 450.233Z" fill="#9696EA"/>
<path d="M1254.35 450.233C1253.5 445.132 1255.95 439.841 1260.78 437.353C1265.61 434.858 1271.33 435.932 1274.97 439.599L1254.35 450.233Z" fill="#9696EA"/>
<path d="M200.355 689C199.981 686.767 201.055 684.45 203.172 683.361C205.286 682.269 207.788 682.739 209.379 684.344L200.355 689Z" fill="#9696EA"/>
<path d="M200.355 689C200.729 686.767 199.655 684.45 197.538 683.361C195.424 682.269 192.921 682.739 191.33 684.344L200.355 689Z" fill="#9696EA"/>
<path d="M220.261 681.231C219.887 678.998 220.961 676.682 223.078 675.592C225.192 674.5 227.695 674.97 229.286 676.576L220.261 681.231Z" fill="#9696EA"/>
<path d="M220.261 681.231C220.635 678.998 219.561 676.682 217.444 675.592C215.33 674.5 212.828 674.97 211.236 676.576L220.261 681.231Z" fill="#9696EA"/>
</g>
</svg>
