<svg width="159" height="27" viewBox="0 0 159 27" fill="none" xmlns="http://www.w3.org/2000/svg">
<path d="M41.1455 25.4012C42.8385 25.4012 44.4039 24.9263 45.8426 24.0082C45.8737 23.9882 45.9139 23.9889 45.9444 24.0096C45.9756 24.031 45.9902 24.0682 45.9819 24.1047C45.9354 24.3143 45.8648 24.6313 45.8142 24.856C45.7996 24.9215 45.8155 24.9897 45.8578 25.0421C45.9001 25.0945 45.9638 25.1255 46.0311 25.1255H50.46C50.5646 25.1255 50.6554 25.0524 50.6769 24.9497C51.0428 23.2349 53.981 9.4657 54.4287 7.36899C54.4425 7.30351 54.4259 7.23525 54.3843 7.18355C54.3421 7.13117 54.2783 7.10156 54.2111 7.10156C53.3199 7.10156 50.5182 7.10156 49.7801 7.10156C49.6748 7.10156 49.5847 7.1746 49.5625 7.27661C49.2542 8.72404 47.1336 18.6665 46.9451 19.5487C46.9368 19.5901 46.916 19.628 46.8862 19.6583C45.8897 20.6619 44.6583 21.1967 43.2591 21.1967C41.0422 21.1967 39.8295 19.6804 40.3139 17.3721C40.3139 17.3714 40.3139 17.3714 40.3139 17.3707C40.3305 17.2949 42.1261 8.9784 42.474 7.36899C42.4878 7.3042 42.4719 7.23594 42.4296 7.18355C42.3873 7.13186 42.3236 7.10156 42.2564 7.10156C41.3596 7.10156 38.5336 7.10156 37.7915 7.10156C37.6868 7.10156 37.596 7.1746 37.5739 7.27661C37.2786 8.66683 35.3251 17.8497 35.3244 17.8539C34.3889 22.1962 36.8143 25.4012 41.1455 25.4012Z" fill="#f7f7f7"/>
<path d="M62.0596 25.0636C63.1102 25.0636 64.44 24.9085 65.2847 24.7169C65.3679 24.6969 65.4324 24.6314 65.4497 24.548C65.571 23.9849 66.0325 21.8351 66.2133 20.9935C66.2293 20.9198 66.2064 20.8433 66.1531 20.7902C66.0997 20.7371 66.0228 20.7151 65.9493 20.7309C65.2785 20.8771 64.7248 20.9281 64.0692 20.9281C62.1289 20.9281 61.4706 20.2388 61.8517 18.5157C61.8524 18.5129 63.1989 12.2435 63.4428 11.109C63.465 11.0069 63.555 10.9339 63.6597 10.9339C64.4414 10.9339 67.5411 10.9339 68.3242 10.9339C68.4295 10.9339 68.5196 10.8601 68.5411 10.7574C68.6776 10.1082 69.1516 7.84467 69.3152 7.06444C69.3283 6.99965 69.3117 6.93141 69.2701 6.87971C69.2279 6.82802 69.1641 6.79839 69.0976 6.79839C68.223 6.79839 65.4996 6.79839 64.6223 6.79839C64.555 6.79839 64.4913 6.76807 64.449 6.71569C64.4067 6.6633 64.3908 6.59505 64.4054 6.52958C64.6098 5.58943 65.2958 2.44574 65.5211 1.41117C65.537 1.33742 65.5148 1.26092 65.4622 1.20785C65.4088 1.15478 65.3326 1.13203 65.2591 1.14719C64.2536 1.35672 61.2897 1.9743 60.6071 2.11628C60.5212 2.1342 60.4539 2.20107 60.4352 2.28653C60.2897 2.96269 59.6598 5.87684 59.499 6.6233C59.4768 6.72531 59.386 6.79839 59.2814 6.79839C58.6633 6.79839 56.6238 6.79839 56.0036 6.79839C55.8982 6.79839 55.8075 6.87146 55.786 6.97416C55.6501 7.62343 55.1761 9.88692 55.0126 10.6672C54.9987 10.7326 55.0154 10.8002 55.0576 10.8519C55.0999 10.9036 55.163 10.9339 55.2302 10.9339C55.9045 10.9339 57.6439 10.9339 58.3202 10.9339C58.3875 10.9339 58.4505 10.9642 58.4928 11.0159C58.5351 11.0676 58.551 11.1359 58.5371 11.2013C58.2315 12.6226 56.8116 19.2235 56.7929 19.3076C56.7929 19.3076 56.7929 19.3083 56.7929 19.309C56.0313 22.9958 57.9024 25.0636 62.0596 25.0636Z" fill="#f7f7f7"/>
<path d="M77.3609 25.4671C82.9048 25.4671 87.5132 20.8836 87.5132 15.404C87.5132 10.4759 83.6671 6.75391 78.539 6.75391C72.9951 6.75391 68.3867 11.303 68.3867 16.7825C68.3867 21.7451 72.2328 25.4671 77.3609 25.4671ZM77.5688 21.1593C75.0394 21.1593 73.203 19.2294 73.203 16.5758C73.203 13.543 75.4898 11.0617 78.2964 11.0617C80.8605 11.0617 82.6969 12.9916 82.6969 15.6452C82.6969 18.6779 80.3754 21.1593 77.5688 21.1593Z" fill="#f7f7f7"/>
<path d="M87.0442 24.8616C87.0297 24.9271 87.0463 24.9946 87.0886 25.047C87.1308 25.0987 87.1939 25.129 87.2611 25.129C88.1572 25.129 90.9846 25.129 91.7274 25.129C91.8321 25.129 91.9228 25.056 91.9443 24.9533C92.2527 23.5031 94.374 13.5303 94.5618 12.6467C94.5708 12.6053 94.5909 12.5674 94.6206 12.5371C95.6137 11.5349 96.7072 11.0338 97.9013 11.0338C99.9449 11.0338 100.95 12.5488 100.501 14.8226C100.5 14.824 100.5 14.8247 100.5 14.8261C100.47 14.9646 98.6857 23.255 98.3399 24.8609C98.3261 24.9264 98.3427 24.9946 98.3843 25.0463C98.4265 25.0987 98.4903 25.129 98.5575 25.129C99.4494 25.129 102.25 25.129 102.988 25.129C103.093 25.129 103.184 25.056 103.205 24.954C103.503 23.57 105.461 14.4415 105.489 14.3091C105.489 14.3078 105.489 14.3071 105.49 14.3064C105.589 13.8163 105.656 13.3573 105.692 12.8996C105.696 12.8514 105.715 12.8052 105.749 12.7687C106.808 11.6011 107.936 11.0338 109.197 11.0338C111.207 11.0338 112.246 12.5495 111.796 14.7544C111.796 14.7551 111.796 14.7558 111.796 14.7565C111.774 14.8585 109.981 23.246 109.636 24.8616C109.622 24.9264 109.638 24.9946 109.68 25.047C109.722 25.0987 109.785 25.129 109.853 25.129C110.749 25.129 113.576 25.129 114.318 25.129C114.423 25.129 114.514 25.0553 114.536 24.9533C114.831 23.5568 116.784 14.3112 116.785 14.3077C116.785 14.3071 116.785 14.3071 116.785 14.3071C117.721 9.99925 115.399 6.79492 111.345 6.79492C109.042 6.79492 106.939 7.74955 105.162 9.52989C105.133 9.55884 105.092 9.57259 105.051 9.56708C105.011 9.56156 104.975 9.53674 104.955 9.5009C104.031 7.86462 102.301 6.79492 100.05 6.79492C98.5229 6.79492 97.0572 7.27947 95.7093 8.24856C95.6678 8.27889 95.6123 8.27958 95.5693 8.25201C95.5264 8.22375 95.5063 8.17202 95.5174 8.1224C95.57 7.89357 95.64 7.59171 95.6899 7.37597C95.7052 7.31049 95.6899 7.24155 95.6477 7.18847C95.6054 7.1354 95.5416 7.10509 95.4737 7.10509H91.013C90.9076 7.10509 90.8175 7.17813 90.7954 7.28014C90.4295 8.995 87.4912 22.7642 87.0442 24.8616Z" fill="#f7f7f7"/>
<path d="M123.052 25.4012C124.745 25.4012 126.31 24.9263 127.749 24.0082C127.78 23.9882 127.82 23.9889 127.851 24.0096C127.882 24.031 127.896 24.0682 127.888 24.1047C127.842 24.3143 127.771 24.6313 127.72 24.856C127.706 24.9215 127.722 24.9897 127.764 25.0421C127.806 25.0945 127.87 25.1255 127.937 25.1255C128.832 25.1255 131.628 25.1255 132.366 25.1255C132.471 25.1255 132.562 25.0524 132.583 24.9497C132.949 23.2349 135.887 9.4657 136.335 7.36899C136.349 7.30351 136.332 7.23525 136.291 7.18355C136.248 7.13117 136.185 7.10156 136.117 7.10156C135.226 7.10156 132.424 7.10156 131.686 7.10156C131.581 7.10156 131.491 7.1746 131.469 7.27661C131.16 8.72404 129.04 18.6665 128.851 19.5487C128.843 19.5901 128.822 19.628 128.792 19.6583C127.796 20.6619 126.565 21.1967 125.165 21.1967C122.949 21.1967 121.736 19.6804 122.22 17.3721C122.22 17.3714 122.22 17.3714 122.22 17.3707C122.237 17.2949 124.032 8.9784 124.38 7.36899C124.394 7.3042 124.378 7.23594 124.336 7.18355C124.294 7.13186 124.23 7.10156 124.163 7.10156C123.266 7.10156 120.44 7.10156 119.698 7.10156C119.593 7.10156 119.502 7.1746 119.48 7.27661C119.185 8.66683 117.231 17.8497 117.231 17.8539C116.295 22.1962 118.721 25.4012 123.052 25.4012Z" fill="#f7f7f7"/>
<path d="M143.862 25.3688C145.25 25.3688 146.605 25.0241 147.839 24.3652C147.871 24.348 147.909 24.3514 147.939 24.3735C147.967 24.3955 147.98 24.432 147.972 24.4672C147.944 24.5823 147.909 24.7284 147.878 24.8546C147.862 24.92 147.878 24.9897 147.92 25.0427C147.962 25.0965 148.027 25.1275 148.094 25.1275C148.99 25.1275 151.752 25.1275 152.484 25.1275C152.588 25.1275 152.679 25.0545 152.701 24.9525C153.146 22.8813 157.394 3.08315 157.997 0.267552C158.013 0.194491 157.991 0.11798 157.938 0.0649071C157.885 0.0118346 157.808 -0.0108935 157.735 0.00495929C156.73 0.213803 153.766 0.831377 153.083 0.974052C152.996 0.991973 152.929 1.05882 152.911 1.14498C152.719 2.04169 151.674 6.95123 151.386 8.30699C151.37 8.38143 151.317 8.44277 151.245 8.46896C151.174 8.49515 151.094 8.48275 151.033 8.43657C149.651 7.40544 147.885 6.86232 145.907 6.86232C140.293 6.86232 135.789 11.3769 135.789 16.9943C135.789 21.7502 139.289 25.3688 143.862 25.3688ZM145.214 21.1643C142.546 21.1643 140.605 19.2 140.605 16.5808C140.605 13.5136 143.031 11.1012 146.08 11.1012C147.802 11.1012 149.359 11.7877 150.303 12.843C150.349 12.8953 150.367 12.967 150.353 13.0353C150.178 13.8541 149.049 19.098 148.902 19.781C148.892 19.8293 148.866 19.8726 148.828 19.9043C147.832 20.7335 146.573 21.1643 145.214 21.1643Z" fill="#f7f7f7"/>
<path fill-rule="evenodd" clip-rule="evenodd" d="M10.6486 21.5616C10.9983 21.7679 11.4476 21.6538 11.659 21.3069C13.6795 17.985 23.0928 2.51351 23.9715 1.06928C24.0125 1.00243 24.0852 0.960938 24.1636 0.960938C24.9344 0.960938 29.004 0.960938 29.927 0.960938C30.0352 0.960938 30.128 1.03817 30.1482 1.14421C30.5476 3.25234 34.2547 22.8145 34.7336 25.3422C34.7461 25.4079 34.7287 25.4759 34.6859 25.5277C34.6431 25.5796 34.5795 25.6107 34.5124 25.6107C33.554 25.6107 30.3477 25.6107 29.5311 25.6107C29.4212 25.6107 29.3274 25.53 29.3091 25.4217C29.154 24.4938 28.4737 20.424 28.3186 19.4961C28.3003 19.3866 28.2065 19.3071 28.0966 19.3071C27.01 19.3071 21.5899 19.3071 20.0807 19.3071C20.0003 19.3071 19.9259 19.2633 19.8856 19.1941C19.8455 19.1238 19.8456 19.0374 19.886 18.9671C20.4063 18.0657 21.8052 15.6406 22.1234 15.0885C22.1637 15.0182 22.2379 14.9756 22.3182 14.9756C23.0177 14.9756 26.3441 14.9756 27.3169 14.9756C27.3833 14.9756 27.4464 14.9467 27.4892 14.8949C27.5319 14.8442 27.55 14.7762 27.5386 14.7105C27.3311 13.5163 26.4797 8.61198 26.1797 6.88421C26.1635 6.79085 26.0909 6.71709 25.9982 6.70095C25.9053 6.68366 25.8118 6.72631 25.7639 6.80815C24.8719 8.3319 22.3635 12.6162 22.3635 12.6162C22.3588 12.615 22.3537 12.6173 22.3514 12.6219C22.2921 12.7245 21.7629 13.6408 21.747 13.6685C21.7289 13.6996 21.0555 14.8499 20.9874 14.9663V14.9721L20.9928 14.9756L18.4947 19.3071H18.4923L18.4862 19.3105C18.3998 19.4581 15.5986 24.246 15.5187 24.3832L15.5186 24.3855L15.5212 24.3878L15.5229 24.3889C15.5229 24.3889 15.4092 24.5872 15.2344 24.8903C14.7374 25.7536 13.9144 26.3772 12.9523 26.6216C11.9903 26.8659 10.9709 26.708 10.126 26.1859C6.72943 24.0847 1.65212 20.9449 0.0764837 19.9698C0.0152102 19.9318 -0.0135296 19.858 0.00612849 19.7889C0.0257866 19.7186 0.0889004 19.6713 0.160865 19.6713C1.77777 19.6725 6.24741 19.6771 7.17847 19.6782C7.28768 19.6782 7.49495 19.707 7.58933 19.7624C8.08354 20.054 9.73148 21.0222 10.6486 21.5616Z" fill="#f7f7f7"/>
</svg>
