<svg width="506" height="506" viewBox="0 0 506 506" fill="none" xmlns="http://www.w3.org/2000/svg">
<circle cx="253" cy="253" r="238" fill="#F5EFFF"/>
<circle cx="253" cy="253" r="245.5" stroke="#B5B5F7" stroke-opacity="0.15" stroke-width="15"/>
<mask id="mask0_85_264" style="mask-type:alpha" maskUnits="userSpaceOnUse" x="15" y="15" width="476" height="476">
<circle cx="253" cy="253" r="238" fill="#F5EFFF"/>
</mask>
<g mask="url(#mask0_85_264)">
<path d="M462.571 170.887C456.701 168.814 450.2 167.595 445.714 163.275C438.691 156.509 439.412 145.092 434.952 136.427C430.192 127.173 419.537 121.875 409.131 121.684C398.725 121.494 388.643 125.78 380.119 131.75C376.669 134.172 372.93 137.032 368.353 134.769C366.877 134.039 365.658 132.878 364.729 131.518C361.977 127.48 361.753 122.613 360.409 118.094C356.04 103.385 339.747 94.4462 324.407 95.0267C309.076 95.6071 294.963 103.948 283.728 114.396C275.279 122.248 268.057 131.41 262.36 141.443C259.044 147.289 252.037 150.166 245.636 148.126C236.64 145.266 225.521 147.505 217.627 153.284C216.665 153.989 215.736 154.735 214.841 155.506C209.509 160.125 202.611 162.438 195.571 162.04C194.435 161.974 193.283 161.94 192.122 161.94C173.582 161.94 158.176 170.265 155 181.227H474.901C473.259 176.136 467.803 172.744 462.571 170.887Z" fill="#FBF9FF"/>
<path d="M371.342 142.907H315V470.768H371.342V142.907Z" fill="#B5B5F7"/>
<path d="M463.544 142.907H370.205V470.768H463.544V142.907Z" fill="#D6D4FF"/>
<path d="M393.282 160.75H381.74V454.383H393.282V160.75Z" fill="#B5B5F7"/>
<path d="M421.407 160.75H409.865V454.383H421.407V160.75Z" fill="#B5B5F7"/>
<path d="M449.54 160.75H437.998V454.383H449.54V160.75Z" fill="#B5B5F7"/>
<path d="M370.206 125.909H328.342V142.907H370.206V125.909Z" fill="#B5B5F7"/>
<path d="M370.215 142.907L449.541 142.907L449.541 125.909L370.215 125.909L370.215 142.907Z" fill="#B5B5F7"/>
<path d="M444.731 125.908L437.434 100.925L416.813 81.4234L389.5 75.2544L362.196 81.4234L341.574 100.925L334.27 125.908H444.731Z" fill="#D6D4FF"/>
<path d="M342.168 101.873L341.207 103.225L374.071 126.575L375.032 125.223L342.168 101.873Z" fill="#B5B5F7"/>
<path d="M436.835 101.909L403.971 125.259L404.931 126.611L437.795 103.261L436.835 101.909Z" fill="#B5B5F7"/>
<path d="M362.983 81.2081L361.385 81.6519L373.739 126.135L375.337 125.691L362.983 81.2081Z" fill="#B5B5F7"/>
<path d="M416.005 81.2002L403.65 125.683L405.248 126.127L417.603 81.644L416.005 81.2002Z" fill="#B5B5F7"/>
<path d="M388.72 75.0001L373.762 125.658L375.352 126.127L390.31 75.4697L388.72 75.0001Z" fill="#B5B5F7"/>
<path d="M390.307 75.0188L388.717 75.4883L403.67 126.146L405.26 125.676L390.307 75.0188Z" fill="#B5B5F7"/>
<path d="M123.784 158.894C122.273 158.894 121.053 157.675 121.053 156.163V105.731C121.053 104.22 122.273 103 123.784 103C125.295 103 126.515 104.22 126.515 105.731V156.163C126.515 157.675 125.295 158.894 123.784 158.894Z" fill="#9696EA"/>
<path d="M123.781 151.284C107.941 151.284 95.1055 184.575 95.1055 200.414V360.751H152.466V200.414C152.456 184.575 139.621 151.284 123.781 151.284Z" fill="#D6D4FF"/>
<path d="M123.782 176.272C105.02 176.272 89.8086 191.484 89.8086 210.246V288.262H157.756V210.246C157.756 191.484 142.544 176.272 123.782 176.272Z" fill="#B5B5F7"/>
<path d="M156.79 261.425H90.7729C87.0314 261.425 84 264.457 84 268.198V557.529H163.563V268.198C163.563 264.457 160.532 261.425 156.79 261.425Z" fill="#D6D4FF"/>
<path d="M149.389 208.553H98.1738V215.981H149.389V208.553Z" fill="#9696EA"/>
<path d="M149.389 226.541H98.1738V233.969H149.389V226.541Z" fill="#9696EA"/>
<path d="M149.389 244.529H98.1738V251.958H149.389V244.529Z" fill="#9696EA"/>
<path d="M112.832 206.213H107.361V256.646H112.832V206.213Z" fill="#B5B5F7"/>
<path d="M126.516 206.213H121.045V256.646H126.516V206.213Z" fill="#B5B5F7"/>
<path d="M140.207 206.213H134.736V256.646H140.207V206.213Z" fill="#B5B5F7"/>
<path d="M112.83 276.819H107.359V557.529H112.83V276.819Z" fill="#B5B5F7"/>
<path d="M126.512 276.819H121.041V557.529H126.512V276.819Z" fill="#B5B5F7"/>
<path d="M148.414 557.531L153.885 557.531L153.885 276.82L148.414 276.82L148.414 557.531Z" fill="#B5B5F7"/>
<path d="M93.6754 557.531L99.1465 557.531L99.1465 276.82L93.6754 276.82L93.6754 557.531Z" fill="#B5B5F7"/>
<path d="M140.204 276.819H134.732V557.529H140.204V276.819Z" fill="#B5B5F7"/>
<path d="M221.269 188.901L218.629 268.847H225.775L223.135 188.901C223.099 187.7 221.305 187.7 221.269 188.901Z" fill="#B5B5F7"/>
<path d="M227.575 292.861L226.765 268.855H217.634L216.824 292.861H227.575Z" fill="#B5B5F7"/>
<path d="M215.433 338.296H228.979C239.047 335.365 246.412 326.07 246.412 315.055C246.412 305.124 240.421 296.594 231.864 292.861H212.547C203.99 296.594 198 305.124 198 315.055C197.991 326.079 205.355 335.365 215.433 338.296Z" fill="#9696EA"/>
<path d="M217.708 273.435H226.693C233.375 271.487 238.264 265.324 238.264 258.014C238.264 251.423 234.295 245.761 228.605 243.285H215.788C210.107 245.761 206.129 251.423 206.129 258.014C206.138 265.324 211.017 271.487 217.708 273.435Z" fill="#D6D4FF"/>
<path d="M231.753 267.354H227.002C218.772 267.354 211.681 261.063 211.225 252.834C211.207 252.533 211.198 252.233 211.198 251.923C211.198 249.447 211.763 247.099 212.764 245.005C208.749 247.927 206.137 252.652 206.137 257.995C206.137 265.305 211.025 271.477 217.707 273.416H226.692C231.107 272.133 234.73 268.992 236.687 264.905C235.213 265.997 233.556 266.835 231.753 267.354Z" fill="#B5B5F7"/>
<path d="M231.866 292.861H230.564C235.07 297.258 237.874 303.385 237.874 310.176C237.874 320.845 230.974 329.894 221.388 333.116C220.76 333.326 220.105 333.417 219.44 333.417H207.888C207.314 333.417 206.741 333.335 206.186 333.18C208.826 335.51 211.957 337.295 215.435 338.296H228.98C239.049 335.365 246.413 326.07 246.413 315.055C246.404 305.124 240.423 296.594 231.866 292.861Z" fill="#9696EA"/>
<path d="M210.098 515.72L215.432 338.296H228.969L234.303 515.72H210.098Z" fill="#B5B5F7"/>
<path d="M215.433 338.296H228.979C239.047 335.365 246.412 326.07 246.412 315.055C246.412 305.124 240.421 296.594 231.864 292.861H212.547C203.99 296.594 198 305.124 198 315.055C197.991 326.079 205.355 335.365 215.433 338.296Z" fill="#D6D4FF"/>
<path d="M235.26 330.376H228.014C215.551 330.376 204.909 320.763 204.309 308.31C204.29 307.918 204.281 307.527 204.281 307.135C204.281 303.275 205.201 299.625 206.812 296.384C201.432 300.827 198 307.536 198 315.055C198 326.07 205.365 335.365 215.433 338.296H228.979C235.515 336.393 240.886 331.805 243.872 325.824C241.368 327.882 238.455 329.448 235.26 330.376Z" fill="#B5B5F7"/>
<path d="M227.584 210.148H216.824V216.594H227.584V210.148Z" fill="#B5B5F7"/>
<path d="M232.255 345.988H212.137V352.433H232.255V345.988Z" fill="#B5B5F7"/>
<path d="M232.255 361.473H212.137V367.918H232.255V361.473Z" fill="#B5B5F7"/>
<path d="M258.371 314.448C261.315 305.09 271.289 299.878 280.647 302.822C290.005 305.766 295.217 315.725 292.273 325.098C289.329 334.456 279.37 339.668 269.997 336.724C260.639 333.78 255.427 323.806 258.371 314.448Z" fill="#10002B"/>
<path d="M216.133 347.419C216.133 347.419 202.87 346.352 207.587 330.085C212.603 312.811 230.418 305.481 248.804 308.5C263.344 310.903 271.741 320.321 275.781 332.473C277.358 337.22 277.403 340.96 277.118 344.415C276.202 355.71 281.699 366.555 291.283 372.609L316.292 388.396C320.769 391.219 321.64 397.408 318.095 401.358C315.586 404.152 316.142 408.523 319.267 410.611C330.727 418.287 332.395 434.494 322.721 444.318L317.509 449.62C308.797 458.483 294.467 458.378 285.89 449.365L262.007 424.28L232.341 348.08L216.133 347.419Z" fill="#10002B"/>
<path d="M276.864 337.295C276.233 337.295 275.647 336.904 275.437 336.274L274.325 332.954C271.471 324.347 266.665 317.993 260.055 314.058C259.35 313.637 259.109 312.706 259.53 312C259.95 311.294 260.882 311.054 261.588 311.474C268.843 315.785 274.085 322.68 277.179 332.008L278.291 335.312C278.546 336.093 278.126 336.949 277.344 337.205C277.194 337.265 277.029 337.295 276.864 337.295Z" fill="#10002B"/>
<path d="M222.293 409.426C233.293 409.426 242.21 400.508 242.21 389.508C242.21 378.508 233.293 369.59 222.293 369.59C211.292 369.59 202.375 378.508 202.375 389.508C202.375 400.508 211.292 409.426 222.293 409.426Z" fill="#10002B"/>
<path d="M304.681 405.054C304.396 405.054 304.111 404.979 303.855 404.799L295.023 398.971C287.768 394.194 282.345 386.999 279.732 378.722C279.476 377.926 279.927 377.085 280.708 376.845C281.504 376.605 282.345 377.04 282.586 377.821C284.989 385.452 289.991 392.061 296.66 396.462L305.493 402.29C306.184 402.741 306.379 403.672 305.913 404.378C305.643 404.814 305.162 405.054 304.681 405.054Z" fill="#10002B"/>
<path d="M291.49 455.674C302.816 416.98 286.008 405.625 263.116 397.168H250.679C237.911 397.168 229.244 403.146 221.148 413.3H220.817L203.273 440.743C197.64 449.546 195.252 461.277 202.191 468.983C211.144 478.926 214.208 491.964 210.077 504.942L195.492 576.592C224.542 589.329 291.49 580.092 291.49 580.092V455.674Z" fill="#7D2EFF"/>
<path d="M275.314 457.942L291.492 522.352V465.663L275.314 457.942Z" fill="#10002B"/>
<path d="M271.095 373.691V399.241C271.095 408.494 265.838 416.936 257.546 421.037L257.231 421.202C248.038 425.738 237.689 417.582 239.942 407.578L245.815 381.562L271.095 373.691Z" fill="#F5968C"/>
<path d="M215.712 346.202L221.811 334.08H253.505L271.094 346.788V379.203C271.094 394.494 258.687 406.901 243.396 406.901C228.105 406.901 215.697 394.494 215.697 379.203V346.202H215.712Z" fill="#FFBBB3"/>
<path d="M249.014 396.417C249.014 391.04 243.756 386.668 237.283 386.668C230.809 386.668 225.551 391.025 225.551 396.417L249.014 396.417Z" fill="#FEFAFF"/>
<path d="M231.08 334.156C221.001 336.964 216.555 344.61 214.768 349.116C215.188 347.434 215.684 345.782 216.225 344.129L224.351 319.766L271.156 335.748V353.427C263.135 357.858 239.267 351.88 231.08 334.156Z" fill="#10002B"/>
<path d="M231.077 335.657C230.432 335.657 229.846 335.237 229.635 334.591C228.178 329.829 227.668 324.887 227.653 324.677C227.578 323.851 228.178 323.115 229.005 323.04C229.831 322.98 230.567 323.566 230.642 324.392C230.642 324.437 231.138 329.258 232.505 333.72C232.745 334.516 232.309 335.357 231.513 335.597C231.378 335.642 231.228 335.657 231.077 335.657Z" fill="#10002B"/>
<path d="M269.937 371.182C274.964 371.182 279.039 367.187 279.039 362.259C279.039 357.332 274.964 353.337 269.937 353.337C264.909 353.337 260.834 357.332 260.834 362.259C260.834 367.187 264.909 371.182 269.937 371.182Z" fill="#FFBBB3"/>
<path d="M260.836 363.762C260.01 363.762 259.334 363.086 259.334 362.259C259.334 358.88 261.016 355.695 263.84 353.743C264.516 353.277 265.463 353.442 265.928 354.118C266.394 354.794 266.229 355.74 265.553 356.206C263.54 357.603 262.353 359.856 262.353 362.259C262.338 363.101 261.662 363.762 260.836 363.762Z" fill="#F5968C"/>
<path d="M269.938 367.307C268.947 367.307 267.985 367.021 267.159 366.496C266.453 366.045 266.258 365.129 266.694 364.423C267.144 363.717 268.061 363.521 268.767 363.957C269.112 364.182 269.517 364.287 269.938 364.287C271.11 364.287 272.071 363.371 272.071 362.23C272.071 361.809 271.936 361.404 271.696 361.058C271.2 360.382 271.35 359.451 272.026 358.955C272.702 358.459 273.633 358.61 274.129 359.286C274.76 360.142 275.09 361.163 275.09 362.23C275.06 365.054 272.762 367.307 269.938 367.307Z" fill="#F5968C"/>
<path d="M268.03 339.728C264.755 339.728 260.279 337.611 256.945 334.456C256.344 333.885 256.314 332.939 256.885 332.338C257.455 331.737 258.402 331.707 259.003 332.278C261.826 334.952 265.822 336.844 268.255 336.724C269.111 336.679 269.802 337.31 269.848 338.136C269.893 338.962 269.262 339.668 268.435 339.728C268.315 339.713 268.18 339.728 268.03 339.728Z" fill="#10002B"/>
<path d="M220.88 361.343C219.363 361.343 218.131 362.575 218.131 364.092V364.873C218.131 366.39 219.363 367.622 220.88 367.622C222.397 367.622 223.629 366.39 223.629 364.873V364.092C223.629 362.575 222.397 361.343 220.88 361.343Z" fill="#291615"/>
<path d="M244.04 361.343C242.523 361.343 241.291 362.575 241.291 364.092V364.873C241.291 366.39 242.523 367.622 244.04 367.622C245.557 367.622 246.789 366.39 246.789 364.873V364.092C246.789 362.575 245.557 361.343 244.04 361.343Z" fill="#291615"/>
<path d="M219.375 377.34C212.286 377.34 206.518 371.572 206.518 364.497C206.518 357.408 212.286 351.64 219.375 351.64C226.465 351.64 232.233 357.408 232.233 364.497C232.218 371.587 226.45 377.34 219.375 377.34ZM219.375 353.247C213.172 353.247 208.125 358.294 208.125 364.497C208.125 370.701 213.172 375.748 219.375 375.748C225.579 375.748 230.626 370.701 230.626 364.497C230.626 358.294 225.579 353.247 219.375 353.247Z" fill="white"/>
<path d="M246.295 377.34C239.205 377.34 233.438 371.572 233.438 364.497C233.438 357.408 239.205 351.64 246.295 351.64C253.385 351.64 259.153 357.408 259.153 364.497C259.153 371.587 253.385 377.34 246.295 377.34ZM246.295 353.247C240.092 353.247 235.045 358.294 235.045 364.497C235.045 370.701 240.092 375.748 246.295 375.748C252.499 375.748 257.546 370.701 257.546 364.497C257.546 358.294 252.499 353.247 246.295 353.247Z" fill="white"/>
<path d="M235.074 384.941C234.999 384.941 234.924 384.941 234.849 384.926L231.905 384.476C230.493 384.25 229.261 383.424 228.54 382.178C227.819 380.931 227.699 379.459 228.195 378.107L230.493 372.024C230.793 371.242 231.649 370.867 232.431 371.152C233.212 371.453 233.602 372.309 233.302 373.09L231.004 379.173C230.823 379.669 230.868 380.21 231.124 380.661C231.394 381.111 231.83 381.412 232.355 381.502L235.3 381.952C236.126 382.072 236.681 382.839 236.561 383.665C236.441 384.401 235.795 384.941 235.074 384.941Z" fill="#F5968C"/>
<path d="M270.761 376.604C272.835 376.604 274.516 374.923 274.516 372.849C274.516 370.775 272.835 369.094 270.761 369.094C268.687 369.094 267.006 370.775 267.006 372.849C267.006 374.923 268.687 376.604 270.761 376.604Z" fill="#FFFDFF"/>
<path d="M272.307 418.212C280.689 413.255 291.504 416.034 296.475 424.416L330.317 481.615C335.274 489.997 332.495 500.812 324.114 505.784L319.232 508.668C313.539 512.032 306.209 510.155 302.844 504.462L266.118 442.381C261.147 433.999 263.925 423.169 272.307 418.212Z" fill="#7D2EFF"/>
<path d="M308.029 508.863C317.432 514.616 329.749 510.395 333.64 500.076L357.492 436.974C359.55 431.536 357.462 425.408 352.52 422.358C346.798 418.828 339.302 420.616 335.787 426.354L301.615 482.276C296.042 491.394 298.911 503.29 308.029 508.863Z" fill="#7D2EFF"/>
<path d="M309.243 471.777C308.973 471.777 308.702 471.702 308.462 471.551C307.756 471.116 307.531 470.2 307.966 469.479L314.515 458.769C314.951 458.063 315.867 457.837 316.588 458.273C317.294 458.709 317.52 459.625 317.084 460.346L310.535 471.056C310.235 471.521 309.739 471.777 309.243 471.777Z" fill="#10002B"/>
<path d="M346.373 439.797C343.193 439.173 340.475 437.124 338.944 434.258C334.874 426.655 331.457 418.651 328.708 410.32L327.163 405.642C326.732 404.336 327.178 402.88 328.218 402.153C329.213 401.47 330.521 401.782 331.189 402.866L339.241 415.74L341.96 385.343C342.079 383.977 343.193 383.011 344.397 383.219C345.451 383.398 346.239 384.437 346.239 385.64L346.269 401.633L348.631 382.373C348.824 380.828 350.102 379.774 351.453 380.041C352.746 380.294 353.652 381.616 353.534 383.086L351.825 403.979L355.732 386.694C355.97 385.655 356.861 385.016 357.797 385.194C358.778 385.387 359.461 386.442 359.313 387.555L356.936 405.479L361.066 391.981C361.452 390.704 362.73 390.11 363.814 390.689C364.646 391.134 365.122 392.144 364.973 393.169L360.486 423.269L358.941 431.303C357.827 437.139 352.182 440.94 346.373 439.797Z" fill="#FFBBB3"/>
</g>
<path d="M239.165 209.043H266.588L271.035 87H234.965L239.165 209.043ZM253 264C264.365 264 274 254.593 274 242.958C274 231.571 264.365 222.164 253 222.164C241.635 222.164 232 231.571 232 242.958C232 254.593 241.635 264 253 264Z" fill="black"/>
</svg>
