<svg width="1440" height="590" viewBox="0 0 1440 590" fill="none" xmlns="http://www.w3.org/2000/svg">
<path d="M1144.01 76L1245.61 82.9135L1242.34 132.342L1142.99 126.184C1142.99 126.184 1140.2 103.311 1147.31 100.692C1154.42 98.0734 1144.01 76 1144.01 76Z" fill="#251151"/>
<path d="M1170.44 77.8075L1223.26 81.6133C1223.26 81.6133 1229.99 110.421 1223.26 113.04C1216.52 115.658 1225.44 131.225 1225.44 131.225L1160.38 126.922C1160.38 126.922 1157.04 106.305 1167.14 107.054C1177.24 107.802 1170.44 77.8075 1170.44 77.8075Z" fill="#F2ECFF"/>
<rect x="1245.61" y="82.9141" width="3.38713" height="119.82" transform="rotate(3.78397 1245.61 82.9141)" fill="#F7F7F7"/>
<path d="M257.673 257.541L41.9644 477.091L-0.000732572 477.091L-0.000732641 637.563L1404.46 637.563L1404.46 315.822L1270.72 451.943L1033.05 210.038L929.115 315.822L747.527 131L440.437 443.56L257.673 257.541Z" fill="white" fill-opacity="0.1"/>
<path fill-rule="evenodd" clip-rule="evenodd" d="M1187.01 110.922C1187.29 111.107 1187.66 111.039 1187.84 110.771C1189.66 108.208 1198.1 96.2688 1198.89 95.1543C1198.93 95.1027 1198.99 95.0732 1199.05 95.0774C1199.68 95.1187 1202.97 95.3367 1203.72 95.3861C1203.81 95.3919 1203.88 95.459 1203.89 95.5454C1204.1 97.2623 1206.06 113.194 1206.32 115.253C1206.32 115.306 1206.31 115.36 1206.27 115.399C1206.23 115.439 1206.18 115.46 1206.12 115.457C1205.35 115.405 1202.75 115.234 1202.09 115.19C1202 115.184 1201.93 115.114 1201.92 115.026C1201.84 114.271 1201.51 110.962 1201.43 110.207C1201.42 110.118 1201.35 110.049 1201.26 110.043C1200.38 109.985 1195.99 109.695 1194.77 109.614C1194.71 109.61 1194.65 109.57 1194.62 109.513C1194.59 109.454 1194.6 109.384 1194.63 109.33C1195.1 108.633 1196.36 106.757 1196.65 106.33C1196.69 106.276 1196.75 106.246 1196.81 106.25C1197.38 106.288 1200.07 106.466 1200.86 106.518C1200.92 106.521 1200.97 106.502 1201.01 106.462C1201.04 106.424 1201.06 106.37 1201.06 106.316C1200.95 105.345 1200.52 101.355 1200.37 99.9493C1200.36 99.8733 1200.31 99.8101 1200.23 99.7922C1200.16 99.7733 1200.08 99.8026 1200.04 99.8659C1199.24 101.044 1196.98 104.355 1196.98 104.355C1196.97 104.354 1196.97 104.355 1196.97 104.359C1196.91 104.438 1196.44 105.147 1196.42 105.168C1196.4 105.192 1195.8 106.081 1195.74 106.171L1195.74 106.176L1195.74 106.179L1193.49 109.529L1193.49 109.529L1193.48 109.531C1193.4 109.645 1190.88 113.346 1190.81 113.452L1190.81 113.454L1190.81 113.456L1190.81 113.457C1190.81 113.457 1190.71 113.61 1190.55 113.845C1190.1 114.512 1189.4 114.97 1188.61 115.115C1187.82 115.26 1187 115.078 1186.34 114.613C1183.7 112.741 1179.76 109.944 1178.54 109.076C1178.49 109.042 1178.47 108.981 1178.49 108.926C1178.51 108.871 1178.56 108.836 1178.62 108.84C1179.93 108.927 1183.55 109.171 1184.3 109.221C1184.39 109.227 1184.56 109.261 1184.63 109.311C1185.02 109.572 1186.3 110.439 1187.01 110.922Z" fill="#251151"/>
<path d="M1136.08 337.886L1027.96 281.768L1118.5 362.204L1136.08 337.886Z" fill="#200064"/>
<path d="M1388.24 304.214L1237.85 195.719L1370.66 328.532L1388.24 304.214Z" fill="#200064"/>
<path d="M1362.8 320.302L1527.79 196.842V624.09H1017.86H692L1027.59 281.768L1113.64 336.39L1239.34 196.842L1362.8 320.302Z" fill="#16013C"/>
<path d="M1189.96 300.099L1166.01 278.026L1239.34 195.719L1344.1 301.596C1335.12 310.575 1318.66 328.907 1314.17 334.144C1310.05 331.525 1291.72 313.568 1281.99 307.207L1253.18 328.532L1212.4 282.515L1189.96 300.099Z" fill="#F7F7F7"/>
<path d="M1344.47 286.631L1344.1 301.596L1238.22 195.719L1368.79 289.998L1344.47 286.631Z" fill="#F0F0F0"/>
<path d="M70.707 325.167L178.829 269.049L88.2908 349.485L70.707 325.167Z" fill="#200064"/>
<path d="M-156.012 307.584L-321 184.123V611.372H188.93H514.791L179.203 269.049L93.1542 323.671L-32.5511 184.123L-156.012 307.584Z" fill="#16013C"/>
<path d="M16.8332 287.38L40.7771 265.307L-32.551 183L-137.306 288.877C-128.327 297.856 -111.865 316.188 -107.376 321.426C-103.26 318.807 -84.9283 300.849 -75.2011 294.489L-46.3936 315.814L-5.61417 269.797L16.8332 287.38Z" fill="#F7F7F7"/>
</svg>
