<svg width="299" height="117" viewBox="0 0 299 117" fill="none" xmlns="http://www.w3.org/2000/svg">
<path d="M31.7774 48.962L28.2488 49.5935L31.8325 49.5111C37.6909 49.3641 42.7686 53.4926 43.7852 59.2259L44.4142 62.7295L44.3343 59.1708C44.1911 53.3498 48.3469 48.2945 54.1177 47.2741L57.6463 46.6427L54.0626 46.7251C48.2041 46.8721 43.1265 42.7437 42.1099 37.0103L41.4809 33.5067L41.5609 37.0654C41.6915 42.8877 37.5344 47.9304 31.7774 48.962Z" fill="#4A0FC7"/>
<path d="M280.714 77.3154L273.706 78.5608L280.822 78.3885C282.997 78.3341 284.877 79.8594 285.255 81.9893L286.495 88.9479L286.328 81.8816C286.274 79.7191 287.814 77.8506 289.956 77.4717L296.964 76.2262L289.848 76.3986C287.673 76.453 285.793 74.9277 285.416 72.7978L284.175 65.8392L284.343 72.9055C284.395 75.0555 282.857 76.9365 280.714 77.3154Z" fill="#F7F7F7"/>
<path d="M76.6188 32.4785L69.6102 33.724L76.7265 33.5516C78.9014 33.4971 80.7812 35.0225 81.1589 37.1524L82.3993 44.1111L82.2319 37.0447C82.1787 34.8823 83.7178 33.0137 85.8602 32.6348L92.8688 31.3894L85.7525 31.5617C83.5775 31.6162 81.6978 30.0908 81.3201 27.9609L80.0797 21.0023L80.2471 28.0686C80.3003 30.2311 78.7611 32.0997 76.6188 32.4785Z" fill="#F7F7F7"/>
<path d="M255.338 49.5469L248.329 50.7923L255.445 50.62C257.62 50.5655 259.5 52.0909 259.878 54.2208L261.118 61.1794L260.951 54.1131C260.898 51.9506 262.437 50.082 264.579 49.7031L271.588 48.4577L264.471 48.6301C262.296 48.6845 260.417 47.1591 260.039 45.0292L258.799 38.0706L258.966 45.137C259.018 47.2869 257.48 49.168 255.338 49.5469Z" fill="#4A0FC7"/>
<path d="M211.171 35.2158L204.163 36.4613L211.279 36.2889C213.454 36.2344 215.334 37.7599 215.712 39.8897L216.952 46.8484L216.785 39.782C216.731 37.6196 218.271 35.751 220.413 35.3721L227.422 34.1267L220.305 34.299C218.13 34.3535 216.251 32.8281 215.873 30.6982L214.632 23.7396L214.8 30.8059C214.852 32.9559 213.301 34.8382 211.171 35.2158Z" fill="#FBF9FF"/>
<path d="M11.3141 70.6807L4.30556 71.9261L11.4218 71.7538C13.5967 71.6993 15.4766 73.2247 15.8542 75.3546L17.0946 82.3132L16.9273 75.2469C16.874 73.0844 18.4131 71.2158 20.5555 70.8369L27.5641 69.5915L20.4478 69.7639C18.2729 69.8183 16.3931 68.2929 16.0155 66.163L14.775 59.2044L14.9424 66.2708C14.9944 68.4207 13.444 70.3031 11.3141 70.6807Z" fill="#F7F7F7"/>
</svg>
