<svg width="696" height="675" viewBox="0 0 696 675" fill="none" xmlns="http://www.w3.org/2000/svg">
<mask id="mask0_919_238" style="mask-type:alpha" maskUnits="userSpaceOnUse" x="0" y="0" width="696" height="706">
<rect width="696" height="706" rx="16" fill="#F5EFFF"/>
</mask>
<g mask="url(#mask0_919_238)">
<path d="M602.198 422.28C599.464 421.092 597.423 418.745 596.612 415.919C594.45 408.422 592.954 400.705 592.123 392.835L591.655 388.416C591.525 387.181 592.212 385.993 593.29 385.564C594.319 385.164 595.433 385.701 595.82 386.788L600.523 399.717L608.949 373.568C609.325 372.393 610.516 371.769 611.557 372.194C612.47 372.563 612.973 373.635 612.736 374.691L609.615 388.742L615.529 372.304C616.006 370.986 617.362 370.318 618.524 370.825C619.636 371.307 620.191 372.65 619.795 373.917L614.147 391.922L621.061 377.529C621.479 376.664 622.406 376.283 623.212 376.628C624.055 376.995 624.462 378.058 624.109 379.006L618.446 394.269L624.814 383.246C625.413 382.202 626.678 381.938 627.538 382.665C628.198 383.223 628.427 384.206 628.092 385.076L618.136 410.607L615.166 417.351C613.016 422.252 607.194 424.454 602.198 422.28Z" fill="#FFBBB3"/>
<path d="M420.522 623.507C437.889 609.061 454.835 588.833 471.643 566.692C483.875 550.584 486.546 529.151 478.655 510.512L477.08 506.796L451.272 499.989L386.864 611.093C384.216 615.44 383.417 620.672 384.636 625.609L411.953 735.858L435.489 729.147C432.918 679.787 426.694 648.887 419.076 629.092C418.327 627.125 418.89 624.857 420.522 623.507Z" fill="#0AAA8D"/>
<path d="M467.11 551.353C457.253 576.255 444.141 598.518 427.161 617.659C438.022 607.665 448.751 595.607 459.377 582.405L461.589 577.78C463.308 568.935 465.143 560.129 467.11 551.353Z" fill="#292992"/>
<path d="M396.919 625.939C396.721 625.895 396.532 625.811 396.368 625.677C395.78 625.213 395.694 624.364 396.158 623.776C397.503 622.098 397.993 619.661 397.463 617.273C396.932 614.884 395.458 612.879 393.511 611.931C392.838 611.6 392.563 610.791 392.891 610.131C393.218 609.471 394.031 609.183 394.691 609.511C397.36 610.815 399.375 613.494 400.086 616.684C400.814 619.92 400.136 623.131 398.254 625.477C397.929 625.875 397.406 626.048 396.919 625.939Z" fill="#10002B"/>
<path d="M550.093 294.849C554.515 287.218 564.29 284.606 571.921 289.029C579.551 293.451 582.166 303.213 577.741 310.857C573.318 318.488 563.557 321.103 555.913 316.677C548.282 312.255 545.67 302.48 550.093 294.849Z" fill="#F04759"/>
<path d="M506.558 315.471C506.558 315.471 495.132 311.928 502.468 298.584C510.265 284.416 527.335 281.487 542.87 287.75C555.154 292.717 560.669 302.63 561.825 314.085C562.275 318.559 561.579 321.849 560.65 324.824C557.625 334.554 560.317 345.149 567.534 352.343L586.371 371.109C589.743 374.467 589.291 380.067 585.404 382.836C582.654 384.794 582.283 388.738 584.613 391.184C593.159 400.171 591.435 414.717 581.018 421.434L575.402 425.061C566.017 431.123 553.466 428.213 547.714 418.621L531.693 391.919L520.647 319.237L506.558 315.471Z" fill="#F04759"/>
<path d="M561.829 318.528C561.275 318.404 560.838 317.946 560.778 317.351L560.455 314.221C559.643 306.109 556.676 299.59 551.651 294.838C551.115 294.33 551.087 293.466 551.595 292.929C552.102 292.392 552.967 292.365 553.503 292.873C559.021 298.081 562.264 305.16 563.145 313.951L563.471 317.069C563.541 317.805 563.004 318.473 562.268 318.543C562.125 318.567 561.974 318.56 561.829 318.528Z" fill="#10002B"/>
<path d="M499.771 371.078C509.422 373.241 518.998 367.171 521.161 357.521C523.323 347.87 517.253 338.294 507.602 336.131C497.952 333.969 488.376 340.039 486.213 349.689C484.051 359.34 490.121 368.916 499.771 371.078Z" fill="#F04759"/>
<path d="M572.91 383.441C572.66 383.385 572.424 383.263 572.235 383.055L565.633 376.206C560.207 370.589 556.864 363.211 556.198 355.436C556.131 354.687 556.692 354.038 557.424 353.981C558.17 353.926 558.822 354.474 558.879 355.206C559.488 362.373 562.577 369.155 567.562 374.327L574.165 381.176C574.683 381.707 574.671 382.563 574.124 383.09C573.801 383.419 573.332 383.536 572.91 383.441Z" fill="#10002B"/>
<path d="M522.895 517.077C526.852 531.166 527.57 542.412 525.092 553.468C523.161 562.087 519.307 570.578 513.519 580.228C508.058 589.343 504.235 608.996 501.898 619.364C494.338 652.918 476.77 731.008 470.542 758.675L445.478 753.058C445.435 750.474 445.417 747.467 445.437 744.164C445.579 679.303 452.923 614.658 467.106 551.366L477.087 506.826L522.892 517.09L522.895 517.077Z" fill="url(#paint0_linear_919_238)"/>
<path d="M525.096 553.468C524.99 553.942 524.874 554.4 524.754 554.872C524.126 557.43 523.317 559.989 522.335 562.578C520.216 568.206 517.275 573.983 513.536 580.231C508.088 589.348 504.239 608.995 501.918 619.353C494.358 652.908 476.787 731.01 470.562 758.664L445.512 753.05C445.468 750.466 445.45 747.459 445.473 744.143C445.612 679.295 452.959 614.637 467.142 551.345L477.123 506.805L522.942 517.072C526.856 531.166 527.574 542.412 525.096 553.468Z" fill="#9696EA"/>
<path d="M526.522 540.045L510.429 538.986C497.09 538.114 484.104 534.429 472.287 528.183L446.475 514.538L474.894 516.547L515.387 519.393L526.077 532.708C526.371 535.223 526.516 537.664 526.522 540.045Z" fill="#10002B"/>
<path d="M459.624 663.877C459.347 663.815 459.078 663.658 458.882 663.421C458.403 662.843 458.483 661.989 459.058 661.522C461.248 659.716 462.531 656.834 462.557 653.629C462.583 650.424 461.365 647.522 459.207 645.668C458.638 645.181 458.581 644.324 459.065 643.768C459.552 643.199 460.396 643.139 460.965 643.626C463.726 646.003 465.287 649.66 465.248 653.665C465.208 657.669 463.578 661.303 460.774 663.623C460.453 663.883 460.019 663.966 459.624 663.877Z" fill="#10002B"/>
<path d="M551.389 425.257C568.931 393.537 556.418 380.271 537.998 368.352L527.087 365.907C515.886 363.397 507.107 366.937 498.008 374.254L497.718 374.189L476.931 394.816C470.259 401.43 465.858 411.253 470.431 419.377C476.33 429.861 476.455 441.901 470.28 452.475L443.399 512.465C466.381 529.35 526.93 534.407 526.93 534.407L551.389 425.257Z" fill="#7D2EFF"/>
<path d="M536.748 424.066L538.278 483.752L549.423 434.02L536.748 424.066Z" fill="#10002B"/>
<path d="M549.611 349.323L544.588 371.739C542.769 379.856 536.497 386.228 528.417 388.196L528.108 388.279C519.151 390.451 511.675 381.261 515.618 372.928L525.885 351.259L549.611 349.323Z" fill="#F5968C"/>
<path d="M506.425 314.318L514.158 304.883L541.963 311.113L554.896 325.719L548.524 354.157C545.518 367.571 532.194 376.017 518.779 373.011C505.364 370.005 496.918 356.681 499.924 343.266L506.412 314.315L506.425 314.318Z" fill="#FFBBB3"/>
<path d="M507.102 351.754C506.044 356.472 509.797 361.34 515.477 362.612C521.156 363.885 526.625 361.097 527.685 356.366L507.102 351.754Z" fill="#FEFAFF"/>
<path d="M522.271 306.771C512.877 307.254 507.473 313.088 505.019 316.69C505.719 315.296 506.478 313.944 507.278 312.601L519.196 292.824L557.116 316.047L553.641 331.557C545.733 333.867 525.968 323.93 522.271 306.771Z" fill="#F04759"/>
<path d="M521.98 308.089C521.413 307.962 520.982 307.478 520.924 306.87C520.582 302.406 521.106 297.971 521.134 297.783C521.231 297.044 521.902 296.516 522.642 296.612C523.378 296.722 523.909 297.381 523.812 298.12C523.804 298.16 523.291 302.487 523.613 306.67C523.667 307.415 523.12 308.068 522.374 308.122C522.246 308.135 522.112 308.119 521.98 308.089Z" fill="#10002B"/>
<path d="M549.087 346.894C553.497 347.882 557.858 345.179 558.827 340.856C559.795 336.533 557.005 332.227 552.595 331.239C548.185 330.25 543.824 332.954 542.855 337.277C541.887 341.6 544.677 345.905 549.087 346.894Z" fill="#FFBBB3"/>
<path d="M542.556 338.593C541.831 338.43 541.371 337.705 541.534 336.98C542.198 334.015 544.3 331.552 547.161 330.394C547.846 330.118 548.643 330.449 548.919 331.134C549.195 331.818 548.864 332.616 548.179 332.892C546.139 333.722 544.655 335.465 544.182 337.573C544.004 338.308 543.281 338.755 542.556 338.593Z" fill="#F5968C"/>
<path d="M549.846 343.494C548.976 343.299 548.189 342.86 547.567 342.236C547.036 341.702 547.045 340.86 547.566 340.326C548.1 339.795 548.943 339.804 549.476 340.325C549.735 340.591 550.07 340.763 550.439 340.845C551.467 341.076 552.49 340.461 552.715 339.459C552.798 339.09 552.759 338.708 552.616 338.358C552.314 337.667 552.629 336.88 553.319 336.578C554.01 336.276 554.797 336.591 555.099 337.281C555.484 338.156 555.573 339.117 555.364 340.053C554.782 342.524 552.323 344.049 549.846 343.494Z" fill="#F5968C"/>
<path d="M553.594 318.924C550.721 318.281 547.211 315.543 544.906 312.12C544.491 311.501 544.65 310.665 545.269 310.25C545.888 309.835 546.724 309.995 547.139 310.613C549.091 313.514 552.224 315.96 554.382 316.333C555.142 316.462 555.625 317.151 555.502 317.885C555.379 318.618 554.686 319.114 553.95 319.004C553.847 318.967 553.726 318.954 553.594 318.924Z" fill="#10002B"/>
<path d="M507.984 328.618C506.653 328.319 505.33 329.158 505.032 330.489L504.878 331.174C504.58 332.505 505.419 333.828 506.75 334.126C508.081 334.424 509.403 333.586 509.701 332.255L509.855 331.569C510.153 330.238 509.315 328.916 507.984 328.618Z" fill="#291615"/>
<path d="M528.3 333.17C526.969 332.872 525.647 333.71 525.348 335.041L525.195 335.727C524.897 337.058 525.735 338.38 527.066 338.679C528.397 338.977 529.72 338.138 530.018 336.807L530.171 336.122C530.47 334.791 529.631 333.468 528.3 333.17Z" fill="#291615"/>
<path d="M503.519 342.356C497.299 340.962 493.373 334.768 494.763 328.561C496.157 322.341 502.351 318.415 508.571 319.809C514.791 321.203 518.717 327.397 517.323 333.617C515.917 339.834 509.725 343.747 503.519 342.356ZM508.255 321.219C502.813 319.999 497.393 323.435 496.173 328.877C494.954 334.32 498.389 339.74 503.832 340.959C509.274 342.179 514.694 338.743 515.914 333.301C517.133 327.858 513.698 322.439 508.255 321.219Z" fill="white"/>
<path d="M527.132 347.647C520.912 346.253 516.986 340.059 518.377 333.852C519.77 327.632 525.964 323.706 532.184 325.1C538.404 326.494 542.331 332.688 540.937 338.908C539.543 345.128 533.352 349.041 527.132 347.647ZM531.868 326.51C526.426 325.29 521.006 328.726 519.787 334.168C518.567 339.611 522.003 345.031 527.445 346.25C532.887 347.47 538.307 344.034 539.527 338.592C540.746 333.149 537.311 327.73 531.868 326.51Z" fill="white"/>
<path d="M515.794 352.111C515.728 352.096 515.662 352.081 515.599 352.053L513.105 351.079C511.91 350.604 510.992 349.637 510.605 348.401C510.217 347.166 510.401 345.851 511.102 344.762L514.314 339.877C514.731 339.251 515.556 339.09 516.185 339.494C516.811 339.911 516.986 340.739 516.569 341.365L513.357 346.25C513.101 346.65 513.034 347.133 513.17 347.578C513.318 348.027 513.641 348.376 514.085 348.558L516.579 349.533C517.28 349.8 517.617 350.582 517.349 351.283C517.099 351.905 516.426 352.252 515.794 352.111Z" fill="#F5968C"/>
<path d="M548.748 351.814C550.567 352.222 552.373 351.078 552.78 349.258C553.188 347.439 552.044 345.633 550.224 345.226C548.405 344.818 546.599 345.962 546.191 347.782C545.784 349.601 546.928 351.407 548.748 351.814Z" fill="#FFFDFF"/>
<path d="M541.924 388.62C550.251 385.919 559.193 390.483 561.907 398.814L580.352 455.647C583.052 463.975 578.489 472.917 570.158 475.631L565.308 477.201C559.653 479.034 553.591 475.945 551.758 470.29L531.743 408.607C529.029 400.276 533.596 391.321 541.924 388.62Z" fill="#7D2EFF"/>
<path d="M555.437 475.17C562.556 482.065 574.191 480.784 579.633 472.496L612.964 421.825C615.838 417.46 615.211 411.673 611.475 408.026C607.149 403.804 600.222 403.899 596.01 408.242L555.037 450.584C548.356 457.488 548.534 468.488 555.437 475.17Z" fill="#7D2EFF"/>
<path d="M563.8 442.873C563.563 442.82 563.341 442.701 563.159 442.522C562.626 442.001 562.608 441.153 563.132 440.606L570.983 432.498C571.504 431.964 572.352 431.947 572.899 432.471C573.433 432.992 573.45 433.84 572.926 434.387L565.075 442.495C564.72 442.844 564.235 442.971 563.8 442.873Z" fill="#10002B"/>
<g filter="url(#filter0_d_919_238)">
<path d="M119 218C119 184.863 145.863 158 179 158H420C453.137 158 480 184.863 480 218V688C480 721.137 453.137 748 420 748H179C145.863 748 119 721.137 119 688V218Z" fill="url(#paint1_linear_919_238)"/>
</g>
<mask id="mask1_919_238" style="mask-type:alpha" maskUnits="userSpaceOnUse" x="134" y="172" width="331" height="576">
<path d="M134.518 216.566C134.518 192.266 154.217 172.566 178.518 172.566L238.443 172.566C240.731 172.566 242.587 174.422 242.587 176.71C242.587 188.154 251.864 197.431 263.307 197.431H336.65C348.094 197.431 357.37 188.154 357.37 176.71C357.37 174.422 359.226 172.566 361.515 172.566H420.481C444.781 172.566 464.481 192.266 464.481 216.566V700.999C464.481 726.956 443.438 747.999 417.481 747.999H181.518C155.56 747.999 134.518 726.956 134.518 700.999V216.566Z" fill="#10002B"/>
</mask>
<g mask="url(#mask1_919_238)">
<path d="M134.518 216.566C134.518 192.266 154.217 172.566 178.518 172.566L238.443 172.566C240.731 172.566 242.587 174.422 242.587 176.71C242.587 188.154 251.864 197.431 263.307 197.431H336.65C348.094 197.431 357.37 188.154 357.37 176.71C357.37 174.422 359.226 172.566 361.515 172.566H420.481C444.781 172.566 464.481 192.266 464.481 216.566V700.999C464.481 726.956 443.438 747.999 417.481 747.999H181.518C155.56 747.999 134.518 726.956 134.518 700.999V216.566Z" fill="#7D2EFF"/>
</g>
</g>
<rect x="190.152" y="339.558" width="230.401" height="75.5654" rx="23" fill="#C4C3EB"/>
<rect x="173.113" y="334.372" width="260.775" height="75.5654" rx="23" fill="#D8D7F7"/>
<rect x="162" y="324" width="283" height="78.5288" rx="23" fill="#F5EFFF"/>
<rect x="173.113" y="333.631" width="59.267" height="58.5262" rx="14" fill="url(#paint2_linear_919_238)"/>
<path fill-rule="evenodd" clip-rule="evenodd" d="M195.197 368.438C195.436 368.586 195.742 368.504 195.886 368.255C197.265 365.868 203.689 354.749 204.289 353.712C204.317 353.664 204.367 353.634 204.42 353.634C204.946 353.634 207.724 353.634 208.354 353.634C208.427 353.634 208.491 353.689 208.504 353.765C208.777 355.28 211.307 369.338 211.634 371.155C211.642 371.202 211.63 371.251 211.601 371.288C211.572 371.325 211.529 371.348 211.483 371.348C210.829 371.348 208.641 371.348 208.083 371.348C208.008 371.348 207.944 371.29 207.932 371.212C207.826 370.545 207.362 367.62 207.256 366.953C207.243 366.875 207.179 366.818 207.104 366.818C206.363 366.818 202.664 366.818 201.634 366.818C201.579 366.818 201.528 366.786 201.501 366.736C201.473 366.686 201.473 366.624 201.501 366.573C201.856 365.926 202.811 364.183 203.028 363.786C203.055 363.736 203.106 363.705 203.161 363.705C203.638 363.705 205.908 363.705 206.572 363.705C206.618 363.705 206.661 363.684 206.69 363.647C206.719 363.611 206.731 363.562 206.724 363.514C206.582 362.656 206.001 359.132 205.796 357.89C205.785 357.823 205.736 357.77 205.672 357.759C205.609 357.746 205.545 357.777 205.512 357.836C204.904 358.931 203.192 362.009 203.192 362.009C203.189 362.009 203.185 362.01 203.184 362.014C203.143 362.087 202.782 362.746 202.771 362.766C202.759 362.788 202.299 363.615 202.253 363.698V363.702L202.256 363.705L200.552 366.818H200.55L200.546 366.82C200.487 366.926 198.575 370.367 198.52 370.465L198.52 370.467L198.522 370.469L198.523 370.47C198.523 370.47 198.446 370.612 198.326 370.83C197.987 371.45 197.426 371.898 196.769 372.074C196.113 372.25 195.417 372.136 194.84 371.761C192.522 370.251 189.057 367.995 187.982 367.294C187.94 367.267 187.92 367.214 187.934 367.164C187.947 367.113 187.99 367.079 188.039 367.079C189.143 367.08 192.193 367.084 192.829 367.084C192.903 367.084 193.045 367.105 193.109 367.145C193.446 367.354 194.571 368.05 195.197 368.438Z" fill="#F7F7F7"/>
<path d="M245.936 357L250.544 345.8H253.216L257.776 357H255.264L254.128 354.056H249.504L248.352 357H245.936ZM250.224 352.2H253.424L251.824 348.072L250.224 352.2ZM261.58 357.16C260.94 357.16 260.37 357.021 259.868 356.744C259.378 356.456 258.988 356.061 258.7 355.56C258.423 355.059 258.284 354.483 258.284 353.832V348.664H260.476V353.512C260.476 354.045 260.631 354.472 260.94 354.792C261.26 355.112 261.687 355.272 262.22 355.272C262.583 355.272 262.908 355.203 263.196 355.064C263.495 354.915 263.74 354.707 263.932 354.44V348.664H266.124V357H263.932V356.328C263.292 356.883 262.508 357.16 261.58 357.16ZM271.785 357.128C270.857 357.128 270.153 356.92 269.673 356.504C269.203 356.077 268.969 355.459 268.969 354.648V350.488H267.257V348.664H268.969V346.536L271.161 346.04V348.664H273.545V350.488H271.161V354.2C271.161 354.584 271.246 354.861 271.417 355.032C271.587 355.192 271.886 355.272 272.313 355.272C272.526 355.272 272.718 355.261 272.889 355.24C273.07 355.208 273.267 355.155 273.481 355.08V356.888C273.257 356.963 272.974 357.021 272.633 357.064C272.302 357.107 272.019 357.128 271.785 357.128ZM278.584 357.16C277.752 357.16 277 356.968 276.328 356.584C275.656 356.2 275.123 355.683 274.728 355.032C274.334 354.381 274.136 353.651 274.136 352.84C274.136 352.029 274.328 351.299 274.712 350.648C275.107 349.987 275.64 349.464 276.312 349.08C276.995 348.696 277.752 348.504 278.584 348.504C279.416 348.504 280.168 348.696 280.84 349.08C281.523 349.464 282.056 349.987 282.44 350.648C282.835 351.299 283.032 352.029 283.032 352.84C283.032 353.651 282.835 354.381 282.44 355.032C282.056 355.683 281.528 356.2 280.856 356.584C280.184 356.968 279.427 357.16 278.584 357.16ZM278.584 355.256C279.022 355.256 279.411 355.149 279.752 354.936C280.104 354.723 280.382 354.435 280.584 354.072C280.798 353.699 280.904 353.288 280.904 352.84C280.904 352.381 280.798 351.971 280.584 351.608C280.382 351.245 280.104 350.957 279.752 350.744C279.411 350.52 279.022 350.408 278.584 350.408C278.158 350.408 277.768 350.52 277.416 350.744C277.064 350.957 276.787 351.245 276.584 351.608C276.382 351.971 276.28 352.381 276.28 352.84C276.28 353.288 276.382 353.699 276.584 354.072C276.787 354.435 277.064 354.723 277.416 354.936C277.768 355.149 278.158 355.256 278.584 355.256ZM284.38 357V348.664H286.572V349.304C287.169 348.771 287.894 348.504 288.748 348.504C289.292 348.504 289.777 348.616 290.204 348.84C290.63 349.053 290.982 349.357 291.26 349.752C291.601 349.347 292.001 349.037 292.46 348.824C292.929 348.611 293.446 348.504 294.012 348.504C294.641 348.504 295.19 348.648 295.66 348.936C296.14 349.213 296.513 349.603 296.78 350.104C297.057 350.595 297.196 351.171 297.196 351.832V357H295.02V352.152C295.02 351.608 294.876 351.181 294.588 350.872C294.3 350.552 293.916 350.392 293.436 350.392C293.105 350.392 292.801 350.461 292.524 350.6C292.257 350.739 292.028 350.947 291.836 351.224C291.846 351.32 291.857 351.416 291.868 351.512C291.878 351.608 291.884 351.715 291.884 351.832V357H289.692V352.152C289.692 351.608 289.548 351.181 289.26 350.872C288.982 350.552 288.604 350.392 288.124 350.392C287.793 350.392 287.494 350.456 287.228 350.584C286.972 350.712 286.753 350.904 286.572 351.16V357H284.38ZM302.018 357.16C301.378 357.16 300.807 357.021 300.306 356.744C299.815 356.456 299.426 356.061 299.138 355.56C298.861 355.059 298.722 354.483 298.722 353.832V348.664H300.914V353.512C300.914 354.045 301.069 354.472 301.378 354.792C301.698 355.112 302.125 355.272 302.658 355.272C303.021 355.272 303.346 355.203 303.634 355.064C303.933 354.915 304.178 354.707 304.37 354.44V348.664H306.562V357H304.37V356.328C303.73 356.883 302.946 357.16 302.018 357.16ZM312.126 357.112C311.337 357.112 310.622 356.92 309.982 356.536C309.342 356.152 308.83 355.64 308.446 355C308.073 354.349 307.886 353.624 307.886 352.824C307.886 352.024 308.073 351.304 308.446 350.664C308.83 350.013 309.348 349.501 309.998 349.128C310.649 348.744 311.38 348.552 312.19 348.552C312.606 348.552 313.006 348.611 313.39 348.728C313.774 348.835 314.132 348.995 314.462 349.208V345.8L316.654 345.432V357H314.494V356.312C313.812 356.845 313.022 357.112 312.126 357.112ZM312.478 355.24C312.884 355.24 313.252 355.176 313.582 355.048C313.924 354.909 314.217 354.707 314.462 354.44V351.192C314.217 350.947 313.924 350.755 313.582 350.616C313.241 350.477 312.873 350.408 312.478 350.408C312.02 350.408 311.604 350.515 311.23 350.728C310.868 350.931 310.58 351.219 310.366 351.592C310.153 351.955 310.046 352.365 310.046 352.824C310.046 353.283 310.153 353.693 310.366 354.056C310.58 354.419 310.868 354.707 311.23 354.92C311.604 355.133 312.02 355.24 312.478 355.24Z" fill="#10012C"/>
<path d="M250.535 369.929C250.015 369.929 249.532 369.839 249.085 369.659C248.645 369.473 248.255 369.216 247.915 368.889C247.582 368.556 247.322 368.173 247.135 367.739C246.955 367.299 246.865 366.826 246.865 366.319C246.865 365.813 246.955 365.343 247.135 364.909C247.322 364.469 247.582 364.086 247.915 363.759C248.255 363.426 248.648 363.169 249.095 362.989C249.542 362.803 250.022 362.709 250.535 362.709C250.902 362.709 251.258 362.759 251.605 362.859C251.958 362.953 252.282 363.089 252.575 363.269C252.875 363.449 253.135 363.666 253.355 363.919L252.655 364.639C252.395 364.326 252.078 364.089 251.705 363.929C251.332 363.763 250.942 363.679 250.535 363.679C250.162 363.679 249.815 363.746 249.495 363.879C249.182 364.013 248.908 364.199 248.675 364.439C248.442 364.673 248.258 364.949 248.125 365.269C247.998 365.589 247.935 365.939 247.935 366.319C247.935 366.693 247.998 367.039 248.125 367.359C248.258 367.679 248.445 367.959 248.685 368.199C248.925 368.439 249.205 368.626 249.525 368.759C249.845 368.893 250.192 368.959 250.565 368.959C250.972 368.959 251.355 368.879 251.715 368.719C252.082 368.553 252.392 368.319 252.645 368.019L253.335 368.719C253.102 368.966 252.835 369.183 252.535 369.369C252.242 369.549 251.922 369.689 251.575 369.789C251.235 369.883 250.888 369.929 250.535 369.929ZM254.242 369.819V364.729H255.242V369.819H254.242ZM254.742 363.909C254.576 363.909 254.432 363.849 254.312 363.729C254.192 363.603 254.132 363.456 254.132 363.289C254.132 363.116 254.192 362.973 254.312 362.859C254.432 362.739 254.576 362.679 254.742 362.679C254.916 362.679 255.062 362.739 255.182 362.859C255.302 362.973 255.362 363.116 255.362 363.289C255.362 363.456 255.302 363.603 255.182 363.729C255.062 363.849 254.916 363.909 254.742 363.909ZM258.03 369.909C257.663 369.909 257.34 369.846 257.06 369.719C256.78 369.586 256.56 369.403 256.4 369.169C256.24 368.936 256.16 368.666 256.16 368.359C256.16 367.879 256.343 367.503 256.71 367.229C257.077 366.949 257.58 366.809 258.22 366.809C258.72 366.809 259.183 366.906 259.61 367.099V366.559C259.61 366.193 259.503 365.919 259.29 365.739C259.083 365.559 258.777 365.469 258.37 365.469C258.137 365.469 257.893 365.506 257.64 365.579C257.387 365.646 257.103 365.753 256.79 365.899L256.42 365.149C256.807 364.969 257.167 364.839 257.5 364.759C257.833 364.673 258.17 364.629 258.51 364.629C259.17 364.629 259.68 364.786 260.04 365.099C260.407 365.413 260.59 365.859 260.59 366.439V369.819H259.61V369.379C259.383 369.559 259.14 369.693 258.88 369.779C258.62 369.866 258.337 369.909 258.03 369.909ZM257.12 368.339C257.12 368.586 257.223 368.786 257.43 368.939C257.643 369.086 257.92 369.159 258.26 369.159C258.527 369.159 258.77 369.123 258.99 369.049C259.217 368.969 259.423 368.846 259.61 368.679V367.819C259.417 367.706 259.213 367.626 259 367.579C258.793 367.526 258.56 367.499 258.3 367.499C257.933 367.499 257.643 367.576 257.43 367.729C257.223 367.876 257.12 368.079 257.12 368.339ZM264.162 369.919C263.669 369.919 263.219 369.803 262.812 369.569C262.412 369.336 262.096 369.019 261.862 368.619C261.629 368.219 261.512 367.773 261.512 367.279C261.512 366.786 261.629 366.339 261.862 365.939C262.096 365.539 262.412 365.223 262.812 364.989C263.219 364.749 263.669 364.629 264.162 364.629C264.662 364.629 265.112 364.749 265.512 364.989C265.912 365.223 266.229 365.539 266.462 365.939C266.696 366.339 266.812 366.786 266.812 367.279C266.812 367.773 266.696 368.219 266.462 368.619C266.229 369.019 265.912 369.336 265.512 369.569C265.112 369.803 264.662 369.919 264.162 369.919ZM264.162 369.039C264.476 369.039 264.759 368.963 265.012 368.809C265.266 368.649 265.466 368.436 265.612 368.169C265.759 367.903 265.832 367.603 265.832 367.269C265.832 366.943 265.756 366.649 265.602 366.389C265.456 366.123 265.256 365.909 265.002 365.749C264.756 365.589 264.476 365.509 264.162 365.509C263.849 365.509 263.566 365.589 263.312 365.749C263.066 365.909 262.866 366.123 262.712 366.389C262.566 366.649 262.492 366.943 262.492 367.269C262.492 367.603 262.566 367.903 262.712 368.169C262.859 368.436 263.059 368.649 263.312 368.809C263.566 368.963 263.849 369.039 264.162 369.039ZM267.184 371.249L267.804 368.919H268.864L267.944 371.249H267.184ZM273.844 369.919C273.404 369.919 272.991 369.856 272.604 369.729C272.224 369.596 271.894 369.409 271.614 369.169L272.164 368.509C272.424 368.716 272.691 368.876 272.964 368.989C273.244 369.096 273.527 369.149 273.814 369.149C274.174 369.149 274.467 369.079 274.694 368.939C274.921 368.799 275.034 368.616 275.034 368.389C275.034 368.203 274.967 368.056 274.834 367.949C274.701 367.843 274.494 367.769 274.214 367.729L273.294 367.599C272.787 367.526 272.407 367.369 272.154 367.129C271.901 366.889 271.774 366.569 271.774 366.169C271.774 365.863 271.857 365.596 272.024 365.369C272.191 365.136 272.424 364.956 272.724 364.829C273.024 364.696 273.374 364.629 273.774 364.629C274.141 364.629 274.494 364.683 274.834 364.789C275.174 364.896 275.501 365.063 275.814 365.289L275.304 365.949C275.024 365.763 274.751 365.626 274.484 365.539C274.224 365.453 273.961 365.409 273.694 365.409C273.387 365.409 273.141 365.476 272.954 365.609C272.767 365.736 272.674 365.903 272.674 366.109C272.674 366.296 272.737 366.443 272.864 366.549C272.997 366.649 273.214 366.719 273.514 366.759L274.434 366.889C274.941 366.963 275.324 367.119 275.584 367.359C275.844 367.593 275.974 367.909 275.974 368.309C275.974 368.616 275.881 368.893 275.694 369.139C275.507 369.379 275.254 369.569 274.934 369.709C274.614 369.849 274.251 369.919 273.844 369.919ZM279.211 369.919C278.718 369.919 278.268 369.803 277.861 369.569C277.461 369.336 277.145 369.019 276.911 368.619C276.678 368.219 276.561 367.773 276.561 367.279C276.561 366.786 276.678 366.339 276.911 365.939C277.145 365.539 277.461 365.223 277.861 364.989C278.268 364.749 278.718 364.629 279.211 364.629C279.711 364.629 280.161 364.749 280.561 364.989C280.961 365.223 281.278 365.539 281.511 365.939C281.745 366.339 281.861 366.786 281.861 367.279C281.861 367.773 281.745 368.219 281.511 368.619C281.278 369.019 280.961 369.336 280.561 369.569C280.161 369.803 279.711 369.919 279.211 369.919ZM279.211 369.039C279.525 369.039 279.808 368.963 280.061 368.809C280.315 368.649 280.515 368.436 280.661 368.169C280.808 367.903 280.881 367.603 280.881 367.269C280.881 366.943 280.805 366.649 280.651 366.389C280.505 366.123 280.305 365.909 280.051 365.749C279.805 365.589 279.525 365.509 279.211 365.509C278.898 365.509 278.615 365.589 278.361 365.749C278.115 365.909 277.915 366.123 277.761 366.389C277.615 366.649 277.541 366.943 277.541 367.269C277.541 367.603 277.615 367.903 277.761 368.169C277.908 368.436 278.108 368.649 278.361 368.809C278.615 368.963 278.898 369.039 279.211 369.039ZM282.807 369.819V364.729H283.807V365.249C284.2 364.836 284.71 364.629 285.337 364.629C285.73 364.629 286.073 364.713 286.367 364.879C286.667 365.046 286.9 365.279 287.067 365.579C287.24 365.879 287.327 366.226 287.327 366.619V369.819H286.327V366.789C286.327 366.389 286.213 366.076 285.987 365.849C285.767 365.616 285.457 365.499 285.057 365.499C284.79 365.499 284.55 365.556 284.337 365.669C284.123 365.783 283.947 365.946 283.807 366.159V369.819H282.807ZM290.901 369.919C290.407 369.919 289.957 369.803 289.551 369.569C289.151 369.336 288.834 369.019 288.601 368.619C288.367 368.219 288.251 367.773 288.251 367.279C288.251 366.786 288.367 366.339 288.601 365.939C288.834 365.539 289.151 365.223 289.551 364.989C289.957 364.749 290.407 364.629 290.901 364.629C291.401 364.629 291.851 364.749 292.251 364.989C292.651 365.223 292.967 365.539 293.201 365.939C293.434 366.339 293.551 366.786 293.551 367.279C293.551 367.773 293.434 368.219 293.201 368.619C292.967 369.019 292.651 369.336 292.251 369.569C291.851 369.803 291.401 369.919 290.901 369.919ZM290.901 369.039C291.214 369.039 291.497 368.963 291.751 368.809C292.004 368.649 292.204 368.436 292.351 368.169C292.497 367.903 292.571 367.603 292.571 367.269C292.571 366.943 292.494 366.649 292.341 366.389C292.194 366.123 291.994 365.909 291.741 365.749C291.494 365.589 291.214 365.509 290.901 365.509C290.587 365.509 290.304 365.589 290.051 365.749C289.804 365.909 289.604 366.123 289.451 366.389C289.304 366.649 289.231 366.943 289.231 367.269C289.231 367.603 289.304 367.903 289.451 368.169C289.597 368.436 289.797 368.649 290.051 368.809C290.304 368.963 290.587 369.039 290.901 369.039ZM296.706 369.819V362.819H299.876C300.343 362.819 300.749 362.906 301.096 363.079C301.449 363.253 301.723 363.496 301.916 363.809C302.116 364.116 302.216 364.476 302.216 364.889C302.216 365.349 302.086 365.746 301.826 366.079C301.566 366.413 301.216 366.653 300.776 366.799L302.336 369.819H301.176L299.726 366.949H297.756V369.819H296.706ZM297.756 366.069H299.796C300.209 366.069 300.539 365.966 300.786 365.759C301.039 365.546 301.166 365.259 301.166 364.899C301.166 364.553 301.039 364.273 300.786 364.059C300.539 363.846 300.209 363.739 299.796 363.739H297.756V366.069ZM304.69 369.909C304.324 369.909 304 369.846 303.72 369.719C303.44 369.586 303.22 369.403 303.06 369.169C302.9 368.936 302.82 368.666 302.82 368.359C302.82 367.879 303.004 367.503 303.37 367.229C303.737 366.949 304.24 366.809 304.88 366.809C305.38 366.809 305.844 366.906 306.27 367.099V366.559C306.27 366.193 306.164 365.919 305.95 365.739C305.744 365.559 305.437 365.469 305.03 365.469C304.797 365.469 304.554 365.506 304.3 365.579C304.047 365.646 303.764 365.753 303.45 365.899L303.08 365.149C303.467 364.969 303.827 364.839 304.16 364.759C304.494 364.673 304.83 364.629 305.17 364.629C305.83 364.629 306.34 364.786 306.7 365.099C307.067 365.413 307.25 365.859 307.25 366.439V369.819H306.27V369.379C306.044 369.559 305.8 369.693 305.54 369.779C305.28 369.866 304.997 369.909 304.69 369.909ZM303.78 368.339C303.78 368.586 303.884 368.786 304.09 368.939C304.304 369.086 304.58 369.159 304.92 369.159C305.187 369.159 305.43 369.123 305.65 369.049C305.877 368.969 306.084 368.846 306.27 368.679V367.819C306.077 367.706 305.874 367.626 305.66 367.579C305.454 367.526 305.22 367.499 304.96 367.499C304.594 367.499 304.304 367.576 304.09 367.729C303.884 367.876 303.78 368.079 303.78 368.339ZM309.016 369.819V365.569H307.836V364.729H309.016V363.959C309.016 363.426 309.163 363.019 309.456 362.739C309.756 362.459 310.183 362.319 310.736 362.319C310.876 362.319 311.006 362.329 311.126 362.349C311.253 362.363 311.366 362.386 311.466 362.419V363.279C311.346 363.246 311.239 363.223 311.146 363.209C311.053 363.189 310.949 363.179 310.836 363.179C310.556 363.179 310.346 363.246 310.206 363.379C310.073 363.506 310.006 363.709 310.006 363.989V364.729H311.466V365.569H310.006V369.819H309.016ZM313.675 369.909C313.308 369.909 312.985 369.846 312.705 369.719C312.425 369.586 312.205 369.403 312.045 369.169C311.885 368.936 311.805 368.666 311.805 368.359C311.805 367.879 311.988 367.503 312.355 367.229C312.721 366.949 313.225 366.809 313.865 366.809C314.365 366.809 314.828 366.906 315.255 367.099V366.559C315.255 366.193 315.148 365.919 314.935 365.739C314.728 365.559 314.421 365.469 314.015 365.469C313.781 365.469 313.538 365.506 313.285 365.579C313.031 365.646 312.748 365.753 312.435 365.899L312.065 365.149C312.451 364.969 312.811 364.839 313.145 364.759C313.478 364.673 313.815 364.629 314.155 364.629C314.815 364.629 315.325 364.786 315.685 365.099C316.051 365.413 316.235 365.859 316.235 366.439V369.819H315.255V369.379C315.028 369.559 314.785 369.693 314.525 369.779C314.265 369.866 313.981 369.909 313.675 369.909ZM312.765 368.339C312.765 368.586 312.868 368.786 313.075 368.939C313.288 369.086 313.565 369.159 313.905 369.159C314.171 369.159 314.415 369.123 314.635 369.049C314.861 368.969 315.068 368.846 315.255 368.679V367.819C315.061 367.706 314.858 367.626 314.645 367.579C314.438 367.526 314.205 367.499 313.945 367.499C313.578 367.499 313.288 367.576 313.075 367.729C312.868 367.876 312.765 368.079 312.765 368.339ZM319.827 369.909C319.327 369.909 318.874 369.793 318.467 369.559C318.067 369.326 317.747 369.009 317.507 368.609C317.274 368.209 317.157 367.763 317.157 367.269C317.157 366.783 317.27 366.343 317.497 365.949C317.724 365.549 318.03 365.233 318.417 364.999C318.804 364.759 319.234 364.639 319.707 364.639C320.18 364.639 320.6 364.759 320.967 364.999C321.334 365.233 321.624 365.553 321.837 365.959C322.057 366.359 322.167 366.813 322.167 367.319V367.599H318.157C318.21 367.879 318.314 368.129 318.467 368.349C318.627 368.569 318.827 368.743 319.067 368.869C319.314 368.996 319.58 369.059 319.867 369.059C320.114 369.059 320.35 369.023 320.577 368.949C320.81 368.869 321.004 368.756 321.157 368.609L321.797 369.239C321.497 369.466 321.187 369.636 320.867 369.749C320.554 369.856 320.207 369.909 319.827 369.909ZM318.167 366.849H321.177C321.137 366.583 321.044 366.349 320.897 366.149C320.757 365.943 320.58 365.783 320.367 365.669C320.16 365.549 319.934 365.489 319.687 365.489C319.434 365.489 319.2 365.546 318.987 365.659C318.774 365.773 318.594 365.933 318.447 366.139C318.307 366.339 318.214 366.576 318.167 366.849ZM323.119 369.819V362.819L324.119 362.629V369.819H323.119ZM327.717 369.919C327.224 369.919 326.774 369.803 326.367 369.569C325.967 369.336 325.65 369.019 325.417 368.619C325.184 368.219 325.067 367.773 325.067 367.279C325.067 366.786 325.184 366.339 325.417 365.939C325.65 365.539 325.967 365.223 326.367 364.989C326.774 364.749 327.224 364.629 327.717 364.629C328.217 364.629 328.667 364.749 329.067 364.989C329.467 365.223 329.784 365.539 330.017 365.939C330.25 366.339 330.367 366.786 330.367 367.279C330.367 367.773 330.25 368.219 330.017 368.619C329.784 369.019 329.467 369.336 329.067 369.569C328.667 369.803 328.217 369.919 327.717 369.919ZM327.717 369.039C328.03 369.039 328.314 368.963 328.567 368.809C328.82 368.649 329.02 368.436 329.167 368.169C329.314 367.903 329.387 367.603 329.387 367.269C329.387 366.943 329.31 366.649 329.157 366.389C329.01 366.123 328.81 365.909 328.557 365.749C328.31 365.589 328.03 365.509 327.717 365.509C327.404 365.509 327.12 365.589 326.867 365.749C326.62 365.909 326.42 366.123 326.267 366.389C326.12 366.649 326.047 366.943 326.047 367.269C326.047 367.603 326.12 367.903 326.267 368.169C326.414 368.436 326.614 368.649 326.867 368.809C327.12 368.963 327.404 369.039 327.717 369.039ZM331.403 367.819L331.283 362.769H332.313L332.193 367.819H331.403ZM331.803 369.889C331.629 369.889 331.479 369.829 331.353 369.709C331.226 369.583 331.163 369.433 331.163 369.259C331.163 369.086 331.226 368.939 331.353 368.819C331.479 368.693 331.629 368.629 331.803 368.629C331.976 368.629 332.123 368.693 332.243 368.819C332.369 368.939 332.433 369.086 332.433 369.259C332.433 369.433 332.369 369.583 332.243 369.709C332.123 369.829 331.976 369.889 331.803 369.889ZM335.681 369.819V362.819H336.731V369.819H335.681ZM338.041 369.819V362.819L339.041 362.629V369.819H338.041ZM342.309 369.819V364.729H343.309V365.379C343.469 365.139 343.665 364.953 343.899 364.819C344.139 364.679 344.409 364.609 344.709 364.609C344.915 364.616 345.085 364.646 345.219 364.699V365.599C345.125 365.559 345.029 365.533 344.929 365.519C344.829 365.499 344.729 365.489 344.629 365.489C344.335 365.489 344.075 365.569 343.849 365.729C343.622 365.883 343.442 366.109 343.309 366.409V369.819H342.309ZM347.425 369.909C347.058 369.909 346.735 369.846 346.455 369.719C346.175 369.586 345.955 369.403 345.795 369.169C345.635 368.936 345.555 368.666 345.555 368.359C345.555 367.879 345.738 367.503 346.105 367.229C346.471 366.949 346.975 366.809 347.615 366.809C348.115 366.809 348.578 366.906 349.005 367.099V366.559C349.005 366.193 348.898 365.919 348.685 365.739C348.478 365.559 348.171 365.469 347.765 365.469C347.531 365.469 347.288 365.506 347.035 365.579C346.781 365.646 346.498 365.753 346.185 365.899L345.815 365.149C346.201 364.969 346.561 364.839 346.895 364.759C347.228 364.673 347.565 364.629 347.905 364.629C348.565 364.629 349.075 364.786 349.435 365.099C349.801 365.413 349.985 365.859 349.985 366.439V369.819H349.005V369.379C348.778 369.559 348.535 369.693 348.275 369.779C348.015 369.866 347.731 369.909 347.425 369.909ZM346.515 368.339C346.515 368.586 346.618 368.786 346.825 368.939C347.038 369.086 347.315 369.159 347.655 369.159C347.921 369.159 348.165 369.123 348.385 369.049C348.611 368.969 348.818 368.846 349.005 368.679V367.819C348.811 367.706 348.608 367.626 348.395 367.579C348.188 367.526 347.955 367.499 347.695 367.499C347.328 367.499 347.038 367.576 346.825 367.729C346.618 367.876 346.515 368.079 346.515 368.339ZM351.137 369.819V364.729H352.137V365.249C352.53 364.836 353.04 364.629 353.667 364.629C354.06 364.629 354.404 364.713 354.697 364.879C354.997 365.046 355.23 365.279 355.397 365.579C355.57 365.879 355.657 366.226 355.657 366.619V369.819H354.657V366.789C354.657 366.389 354.544 366.076 354.317 365.849C354.097 365.616 353.787 365.499 353.387 365.499C353.12 365.499 352.88 365.556 352.667 365.669C352.454 365.783 352.277 365.946 352.137 366.159V369.819H351.137ZM359.331 371.959C358.957 371.959 358.594 371.916 358.241 371.829C357.887 371.743 357.567 371.619 357.281 371.459L357.661 370.679C357.961 370.833 358.241 370.943 358.501 371.009C358.767 371.083 359.034 371.119 359.301 371.119C359.747 371.119 360.084 371.016 360.311 370.809C360.544 370.603 360.661 370.299 360.661 369.899V369.319C360.214 369.673 359.704 369.849 359.131 369.849C358.664 369.849 358.234 369.736 357.841 369.509C357.454 369.276 357.147 368.963 356.921 368.569C356.694 368.169 356.581 367.729 356.581 367.249C356.581 366.763 356.694 366.323 356.921 365.929C357.154 365.529 357.464 365.216 357.851 364.989C358.244 364.756 358.684 364.639 359.171 364.639C359.444 364.639 359.707 364.686 359.961 364.779C360.221 364.866 360.457 364.993 360.671 365.159V364.729H361.661V369.899C361.661 370.559 361.457 371.066 361.051 371.419C360.651 371.779 360.077 371.959 359.331 371.959ZM359.261 368.989C359.554 368.989 359.821 368.939 360.061 368.839C360.301 368.733 360.501 368.583 360.661 368.389V366.109C360.501 365.923 360.297 365.776 360.051 365.669C359.811 365.563 359.547 365.509 359.261 365.509C358.941 365.509 358.651 365.586 358.391 365.739C358.137 365.893 357.934 366.103 357.781 366.369C357.634 366.629 357.561 366.923 357.561 367.249C357.561 367.576 357.634 367.873 357.781 368.139C357.934 368.399 358.137 368.606 358.391 368.759C358.651 368.913 358.941 368.989 359.261 368.989ZM365.276 369.909C364.776 369.909 364.323 369.793 363.916 369.559C363.516 369.326 363.196 369.009 362.956 368.609C362.723 368.209 362.606 367.763 362.606 367.269C362.606 366.783 362.719 366.343 362.946 365.949C363.173 365.549 363.479 365.233 363.866 364.999C364.253 364.759 364.683 364.639 365.156 364.639C365.629 364.639 366.049 364.759 366.416 364.999C366.783 365.233 367.073 365.553 367.286 365.959C367.506 366.359 367.616 366.813 367.616 367.319V367.599H363.606C363.659 367.879 363.763 368.129 363.916 368.349C364.076 368.569 364.276 368.743 364.516 368.869C364.763 368.996 365.029 369.059 365.316 369.059C365.563 369.059 365.799 369.023 366.026 368.949C366.259 368.869 366.453 368.756 366.606 368.609L367.246 369.239C366.946 369.466 366.636 369.636 366.316 369.749C366.003 369.856 365.656 369.909 365.276 369.909ZM363.616 366.849H366.626C366.586 366.583 366.493 366.349 366.346 366.149C366.206 365.943 366.029 365.783 365.816 365.669C365.609 365.549 365.383 365.489 365.136 365.489C364.883 365.489 364.649 365.546 364.436 365.659C364.223 365.773 364.043 365.933 363.896 366.139C363.756 366.339 363.663 366.576 363.616 366.849ZM372.998 369.899C372.525 369.899 372.092 369.783 371.698 369.549C371.305 369.316 370.995 369.003 370.768 368.609C370.542 368.209 370.428 367.763 370.428 367.269C370.428 366.776 370.542 366.333 370.768 365.939C371.002 365.546 371.315 365.233 371.708 364.999C372.102 364.766 372.538 364.649 373.018 364.649C373.298 364.649 373.568 364.693 373.828 364.779C374.088 364.866 374.328 364.993 374.548 365.159V362.819L375.548 362.629V369.819H374.558V369.329C374.125 369.709 373.605 369.899 372.998 369.899ZM373.128 369.029C373.422 369.029 373.688 368.976 373.928 368.869C374.175 368.763 374.382 368.609 374.548 368.409V366.119C374.382 365.933 374.175 365.786 373.928 365.679C373.688 365.566 373.422 365.509 373.128 365.509C372.808 365.509 372.518 365.586 372.258 365.739C371.998 365.893 371.792 366.103 371.638 366.369C371.485 366.629 371.408 366.926 371.408 367.259C371.408 367.593 371.485 367.893 371.638 368.159C371.792 368.426 371.998 368.639 372.258 368.799C372.518 368.953 372.808 369.029 373.128 369.029ZM376.733 369.819V364.729H377.733V369.819H376.733ZM377.233 363.909C377.066 363.909 376.923 363.849 376.803 363.729C376.683 363.603 376.623 363.456 376.623 363.289C376.623 363.116 376.683 362.973 376.803 362.859C376.923 362.739 377.066 362.679 377.233 362.679C377.406 362.679 377.553 362.739 377.673 362.859C377.793 362.973 377.853 363.116 377.853 363.289C377.853 363.456 377.793 363.603 377.673 363.729C377.553 363.849 377.406 363.909 377.233 363.909ZM248.685 384.819L246.485 379.729H247.585L249.175 383.539L250.765 379.729H251.825L249.645 384.819H248.685ZM253.85 384.909C253.484 384.909 253.16 384.846 252.88 384.719C252.6 384.586 252.38 384.403 252.22 384.169C252.06 383.936 251.98 383.666 251.98 383.359C251.98 382.879 252.164 382.503 252.53 382.229C252.897 381.949 253.4 381.809 254.04 381.809C254.54 381.809 255.004 381.906 255.43 382.099V381.559C255.43 381.193 255.324 380.919 255.11 380.739C254.904 380.559 254.597 380.469 254.19 380.469C253.957 380.469 253.714 380.506 253.46 380.579C253.207 380.646 252.924 380.753 252.61 380.899L252.24 380.149C252.627 379.969 252.987 379.839 253.32 379.759C253.654 379.673 253.99 379.629 254.33 379.629C254.99 379.629 255.5 379.786 255.86 380.099C256.227 380.413 256.41 380.859 256.41 381.439V384.819H255.43V384.379C255.204 384.559 254.96 384.693 254.7 384.779C254.44 384.866 254.157 384.909 253.85 384.909ZM252.94 383.339C252.94 383.586 253.044 383.786 253.25 383.939C253.464 384.086 253.74 384.159 254.08 384.159C254.347 384.159 254.59 384.123 254.81 384.049C255.037 383.969 255.244 383.846 255.43 383.679V382.819C255.237 382.706 255.034 382.626 254.82 382.579C254.614 382.526 254.38 382.499 254.12 382.499C253.754 382.499 253.464 382.576 253.25 382.729C253.044 382.876 252.94 383.079 252.94 383.339ZM257.563 384.819V377.819L258.563 377.629V384.819H257.563ZM261.71 384.919C261.317 384.919 260.97 384.836 260.67 384.669C260.37 384.503 260.137 384.269 259.97 383.969C259.804 383.663 259.72 383.313 259.72 382.919V379.729H260.71V382.749C260.71 383.149 260.824 383.466 261.05 383.699C261.284 383.933 261.594 384.049 261.98 384.049C262.254 384.049 262.497 383.993 262.71 383.879C262.924 383.759 263.097 383.593 263.23 383.379V379.729H264.23V384.819H263.23V384.299C262.837 384.713 262.33 384.919 261.71 384.919ZM267.594 384.909C267.101 384.909 266.724 384.796 266.464 384.569C266.204 384.336 266.074 383.999 266.074 383.559V380.569H264.994V379.729H266.074V378.429L267.064 378.189V379.729H268.564V380.569H267.064V383.329C267.064 383.589 267.121 383.776 267.234 383.889C267.354 383.996 267.548 384.049 267.814 384.049C267.954 384.049 268.078 384.039 268.184 384.019C268.298 383.999 268.418 383.969 268.544 383.929V384.769C268.411 384.816 268.254 384.849 268.074 384.869C267.901 384.896 267.741 384.909 267.594 384.909ZM270.911 384.909C270.544 384.909 270.221 384.846 269.941 384.719C269.661 384.586 269.441 384.403 269.281 384.169C269.121 383.936 269.041 383.666 269.041 383.359C269.041 382.879 269.224 382.503 269.591 382.229C269.958 381.949 270.461 381.809 271.101 381.809C271.601 381.809 272.064 381.906 272.491 382.099V381.559C272.491 381.193 272.384 380.919 272.171 380.739C271.964 380.559 271.658 380.469 271.251 380.469C271.018 380.469 270.774 380.506 270.521 380.579C270.268 380.646 269.984 380.753 269.671 380.899L269.301 380.149C269.688 379.969 270.048 379.839 270.381 379.759C270.714 379.673 271.051 379.629 271.391 379.629C272.051 379.629 272.561 379.786 272.921 380.099C273.288 380.413 273.471 380.859 273.471 381.439V384.819H272.491V384.379C272.264 384.559 272.021 384.693 271.761 384.779C271.501 384.866 271.218 384.909 270.911 384.909ZM270.001 383.339C270.001 383.586 270.104 383.786 270.311 383.939C270.524 384.086 270.801 384.159 271.141 384.159C271.408 384.159 271.651 384.123 271.871 384.049C272.098 383.969 272.304 383.846 272.491 383.679V382.819C272.298 382.706 272.094 382.626 271.881 382.579C271.674 382.526 271.441 382.499 271.181 382.499C270.814 382.499 270.524 382.576 270.311 382.729C270.104 382.876 270.001 383.079 270.001 383.339ZM274.323 384.819V384.079L277.183 380.589H274.353V379.729H278.433V380.459L275.573 383.959H278.483V384.819H274.323ZM279.399 384.819V379.729H280.399V384.819H279.399ZM279.899 378.909C279.732 378.909 279.589 378.849 279.469 378.729C279.349 378.603 279.289 378.456 279.289 378.289C279.289 378.116 279.349 377.973 279.469 377.859C279.589 377.739 279.732 377.679 279.899 377.679C280.072 377.679 280.219 377.739 280.339 377.859C280.459 377.973 280.519 378.116 280.519 378.289C280.519 378.456 280.459 378.603 280.339 378.729C280.219 378.849 280.072 378.909 279.899 378.909ZM283.996 384.919C283.503 384.919 283.053 384.803 282.646 384.569C282.246 384.336 281.93 384.019 281.696 383.619C281.463 383.219 281.346 382.773 281.346 382.279C281.346 381.786 281.463 381.339 281.696 380.939C281.93 380.539 282.246 380.223 282.646 379.989C283.053 379.749 283.503 379.629 283.996 379.629C284.496 379.629 284.946 379.749 285.346 379.989C285.746 380.223 286.063 380.539 286.296 380.939C286.53 381.339 286.646 381.786 286.646 382.279C286.646 382.773 286.53 383.219 286.296 383.619C286.063 384.019 285.746 384.336 285.346 384.569C284.946 384.803 284.496 384.919 283.996 384.919ZM283.996 384.039C284.31 384.039 284.593 383.963 284.846 383.809C285.1 383.649 285.3 383.436 285.446 383.169C285.593 382.903 285.666 382.603 285.666 382.269C285.666 381.943 285.59 381.649 285.436 381.389C285.29 381.123 285.09 380.909 284.836 380.749C284.59 380.589 284.31 380.509 283.996 380.509C283.683 380.509 283.4 380.589 283.146 380.749C282.9 380.909 282.7 381.123 282.546 381.389C282.4 381.649 282.326 381.943 282.326 382.269C282.326 382.603 282.4 382.903 282.546 383.169C282.693 383.436 282.893 383.649 283.146 383.809C283.4 383.963 283.683 384.039 283.996 384.039ZM287.592 384.819V379.729H288.592V380.249C288.985 379.836 289.495 379.629 290.122 379.629C290.515 379.629 290.859 379.713 291.152 379.879C291.452 380.046 291.685 380.279 291.852 380.579C292.025 380.879 292.112 381.226 292.112 381.619V384.819H291.112V381.789C291.112 381.389 290.999 381.076 290.772 380.849C290.552 380.616 290.242 380.499 289.842 380.499C289.575 380.499 289.335 380.556 289.122 380.669C288.909 380.783 288.732 380.946 288.592 381.159V384.819H287.592ZM295.706 384.909C295.206 384.909 294.752 384.793 294.346 384.559C293.946 384.326 293.626 384.009 293.386 383.609C293.152 383.209 293.036 382.763 293.036 382.269C293.036 381.783 293.149 381.343 293.376 380.949C293.602 380.549 293.909 380.233 294.296 379.999C294.682 379.759 295.112 379.639 295.586 379.639C296.059 379.639 296.479 379.759 296.846 379.999C297.212 380.233 297.502 380.553 297.716 380.959C297.936 381.359 298.046 381.813 298.046 382.319V382.599H294.036C294.089 382.879 294.192 383.129 294.346 383.349C294.506 383.569 294.706 383.743 294.946 383.869C295.192 383.996 295.459 384.059 295.746 384.059C295.992 384.059 296.229 384.023 296.456 383.949C296.689 383.869 296.882 383.756 297.036 383.609L297.676 384.239C297.376 384.466 297.066 384.636 296.746 384.749C296.432 384.856 296.086 384.909 295.706 384.909ZM294.046 381.849H297.056C297.016 381.583 296.922 381.349 296.776 381.149C296.636 380.943 296.459 380.783 296.246 380.669C296.039 380.549 295.812 380.489 295.566 380.489C295.312 380.489 295.079 380.546 294.866 380.659C294.652 380.773 294.472 380.933 294.326 381.139C294.186 381.339 294.092 381.576 294.046 381.849ZM301.088 386.859V379.729H302.078V380.219C302.505 379.839 303.025 379.649 303.638 379.649C304.118 379.649 304.551 379.766 304.938 379.999C305.331 380.233 305.641 380.546 305.868 380.939C306.095 381.333 306.208 381.776 306.208 382.269C306.208 382.763 306.091 383.209 305.858 383.609C305.631 384.003 305.321 384.316 304.928 384.549C304.541 384.783 304.105 384.899 303.618 384.899C303.338 384.899 303.068 384.856 302.808 384.769C302.548 384.676 302.308 384.546 302.088 384.379V386.859H301.088ZM303.508 384.029C303.835 384.029 304.125 383.953 304.378 383.799C304.638 383.646 304.845 383.439 304.998 383.179C305.151 382.913 305.228 382.613 305.228 382.279C305.228 381.946 305.151 381.646 304.998 381.379C304.845 381.113 304.638 380.903 304.378 380.749C304.125 380.596 303.835 380.519 303.508 380.519C303.221 380.519 302.955 380.573 302.708 380.679C302.461 380.786 302.255 380.936 302.088 381.129V383.429C302.255 383.616 302.461 383.763 302.708 383.869C302.961 383.976 303.228 384.029 303.508 384.029ZM309.602 384.909C309.102 384.909 308.649 384.793 308.242 384.559C307.842 384.326 307.522 384.009 307.282 383.609C307.049 383.209 306.932 382.763 306.932 382.269C306.932 381.783 307.046 381.343 307.272 380.949C307.499 380.549 307.806 380.233 308.192 379.999C308.579 379.759 309.009 379.639 309.482 379.639C309.956 379.639 310.376 379.759 310.742 379.999C311.109 380.233 311.399 380.553 311.612 380.959C311.832 381.359 311.942 381.813 311.942 382.319V382.599H307.932C307.986 382.879 308.089 383.129 308.242 383.349C308.402 383.569 308.602 383.743 308.842 383.869C309.089 383.996 309.356 384.059 309.642 384.059C309.889 384.059 310.126 384.023 310.352 383.949C310.586 383.869 310.779 383.756 310.932 383.609L311.572 384.239C311.272 384.466 310.962 384.636 310.642 384.749C310.329 384.856 309.982 384.909 309.602 384.909ZM307.942 381.849H310.952C310.912 381.583 310.819 381.349 310.672 381.149C310.532 380.943 310.356 380.783 310.142 380.669C309.936 380.549 309.709 380.489 309.462 380.489C309.209 380.489 308.976 380.546 308.762 380.659C308.549 380.773 308.369 380.933 308.222 381.139C308.082 381.339 307.989 381.576 307.942 381.849ZM312.895 384.819V379.729H313.895V380.379C314.055 380.139 314.251 379.953 314.485 379.819C314.725 379.679 314.995 379.609 315.295 379.609C315.501 379.616 315.671 379.646 315.805 379.699V380.599C315.711 380.559 315.615 380.533 315.515 380.519C315.415 380.499 315.315 380.489 315.215 380.489C314.921 380.489 314.661 380.569 314.435 380.729C314.208 380.883 314.028 381.109 313.895 381.409V384.819H312.895ZM318.695 384.819V377.819L319.695 377.629V384.819H318.695ZM322.483 384.909C322.117 384.909 321.793 384.846 321.513 384.719C321.233 384.586 321.013 384.403 320.853 384.169C320.693 383.936 320.613 383.666 320.613 383.359C320.613 382.879 320.797 382.503 321.163 382.229C321.53 381.949 322.033 381.809 322.673 381.809C323.173 381.809 323.637 381.906 324.063 382.099V381.559C324.063 381.193 323.957 380.919 323.743 380.739C323.537 380.559 323.23 380.469 322.823 380.469C322.59 380.469 322.347 380.506 322.093 380.579C321.84 380.646 321.557 380.753 321.243 380.899L320.873 380.149C321.26 379.969 321.62 379.839 321.953 379.759C322.287 379.673 322.623 379.629 322.963 379.629C323.623 379.629 324.133 379.786 324.493 380.099C324.86 380.413 325.043 380.859 325.043 381.439V384.819H324.063V384.379C323.837 384.559 323.593 384.693 323.333 384.779C323.073 384.866 322.79 384.909 322.483 384.909ZM321.573 383.339C321.573 383.586 321.677 383.786 321.883 383.939C322.097 384.086 322.373 384.159 322.713 384.159C322.98 384.159 323.223 384.123 323.443 384.049C323.67 383.969 323.877 383.846 324.063 383.679V382.819C323.87 382.706 323.667 382.626 323.453 382.579C323.247 382.526 323.013 382.499 322.753 382.499C322.387 382.499 322.097 382.576 321.883 382.729C321.677 382.876 321.573 383.079 321.573 383.339ZM330.465 384.909C329.972 384.909 329.595 384.796 329.335 384.569C329.075 384.336 328.945 383.999 328.945 383.559V380.569H327.865V379.729H328.945V378.429L329.935 378.189V379.729H331.435V380.569H329.935V383.329C329.935 383.589 329.992 383.776 330.105 383.889C330.225 383.996 330.419 384.049 330.685 384.049C330.825 384.049 330.949 384.039 331.055 384.019C331.169 383.999 331.289 383.969 331.415 383.929V384.769C331.282 384.816 331.125 384.849 330.945 384.869C330.772 384.896 330.612 384.909 330.465 384.909ZM334.142 384.919C333.749 384.919 333.402 384.836 333.102 384.669C332.802 384.503 332.569 384.269 332.402 383.969C332.235 383.663 332.152 383.313 332.152 382.919V379.729H333.142V382.749C333.142 383.149 333.255 383.466 333.482 383.699C333.715 383.933 334.025 384.049 334.412 384.049C334.685 384.049 334.929 383.993 335.142 383.879C335.355 383.759 335.529 383.593 335.662 383.379V379.729H336.662V384.819H335.662V384.299C335.269 384.713 334.762 384.919 334.142 384.919ZM339.456 384.909C339.089 384.909 338.766 384.846 338.486 384.719C338.206 384.586 337.986 384.403 337.826 384.169C337.666 383.936 337.586 383.666 337.586 383.359C337.586 382.879 337.769 382.503 338.136 382.229C338.503 381.949 339.006 381.809 339.646 381.809C340.146 381.809 340.609 381.906 341.036 382.099V381.559C341.036 381.193 340.929 380.919 340.716 380.739C340.509 380.559 340.203 380.469 339.796 380.469C339.563 380.469 339.319 380.506 339.066 380.579C338.813 380.646 338.529 380.753 338.216 380.899L337.846 380.149C338.233 379.969 338.593 379.839 338.926 379.759C339.259 379.673 339.596 379.629 339.936 379.629C340.596 379.629 341.106 379.786 341.466 380.099C341.833 380.413 342.016 380.859 342.016 381.439V384.819H341.036V384.379C340.809 384.559 340.566 384.693 340.306 384.779C340.046 384.866 339.763 384.909 339.456 384.909ZM338.546 383.339C338.546 383.586 338.649 383.786 338.856 383.939C339.069 384.086 339.346 384.159 339.686 384.159C339.953 384.159 340.196 384.123 340.416 384.049C340.643 383.969 340.849 383.846 341.036 383.679V382.819C340.843 382.706 340.639 382.626 340.426 382.579C340.219 382.526 339.986 382.499 339.726 382.499C339.359 382.499 339.069 382.576 338.856 382.729C338.649 382.876 338.546 383.079 338.546 383.339ZM346.868 384.909C346.501 384.909 346.178 384.846 345.898 384.719C345.618 384.586 345.398 384.403 345.238 384.169C345.078 383.936 344.998 383.666 344.998 383.359C344.998 382.879 345.181 382.503 345.548 382.229C345.915 381.949 346.418 381.809 347.058 381.809C347.558 381.809 348.021 381.906 348.448 382.099V381.559C348.448 381.193 348.341 380.919 348.128 380.739C347.921 380.559 347.615 380.469 347.208 380.469C346.975 380.469 346.731 380.506 346.478 380.579C346.225 380.646 345.941 380.753 345.628 380.899L345.258 380.149C345.645 379.969 346.005 379.839 346.338 379.759C346.671 379.673 347.008 379.629 347.348 379.629C348.008 379.629 348.518 379.786 348.878 380.099C349.245 380.413 349.428 380.859 349.428 381.439V384.819H348.448V384.379C348.221 384.559 347.978 384.693 347.718 384.779C347.458 384.866 347.175 384.909 346.868 384.909ZM345.958 383.339C345.958 383.586 346.061 383.786 346.268 383.939C346.481 384.086 346.758 384.159 347.098 384.159C347.365 384.159 347.608 384.123 347.828 384.049C348.055 383.969 348.261 383.846 348.448 383.679V382.819C348.255 382.706 348.051 382.626 347.838 382.579C347.631 382.526 347.398 382.499 347.138 382.499C346.771 382.499 346.481 382.576 346.268 382.729C346.061 382.876 345.958 383.079 345.958 383.339ZM352.501 384.919C352.108 384.919 351.761 384.836 351.461 384.669C351.161 384.503 350.928 384.269 350.761 383.969C350.595 383.663 350.511 383.313 350.511 382.919V379.729H351.501V382.749C351.501 383.149 351.615 383.466 351.841 383.699C352.075 383.933 352.385 384.049 352.771 384.049C353.045 384.049 353.288 383.993 353.501 383.879C353.715 383.759 353.888 383.593 354.021 383.379V379.729H355.021V384.819H354.021V384.299C353.628 384.713 353.121 384.919 352.501 384.919ZM358.385 384.909C357.892 384.909 357.515 384.796 357.255 384.569C356.995 384.336 356.865 383.999 356.865 383.559V380.569H355.785V379.729H356.865V378.429L357.855 378.189V379.729H359.355V380.569H357.855V383.329C357.855 383.589 357.912 383.776 358.025 383.889C358.145 383.996 358.339 384.049 358.605 384.049C358.745 384.049 358.869 384.039 358.975 384.019C359.089 383.999 359.209 383.969 359.335 383.929V384.769C359.202 384.816 359.045 384.849 358.865 384.869C358.692 384.896 358.532 384.909 358.385 384.909ZM362.434 384.919C361.94 384.919 361.49 384.803 361.084 384.569C360.684 384.336 360.367 384.019 360.134 383.619C359.9 383.219 359.784 382.773 359.784 382.279C359.784 381.786 359.9 381.339 360.134 380.939C360.367 380.539 360.684 380.223 361.084 379.989C361.49 379.749 361.94 379.629 362.434 379.629C362.934 379.629 363.384 379.749 363.784 379.989C364.184 380.223 364.5 380.539 364.734 380.939C364.967 381.339 365.084 381.786 365.084 382.279C365.084 382.773 364.967 383.219 364.734 383.619C364.5 384.019 364.184 384.336 363.784 384.569C363.384 384.803 362.934 384.919 362.434 384.919ZM362.434 384.039C362.747 384.039 363.03 383.963 363.284 383.809C363.537 383.649 363.737 383.436 363.884 383.169C364.03 382.903 364.104 382.603 364.104 382.269C364.104 381.943 364.027 381.649 363.874 381.389C363.727 381.123 363.527 380.909 363.274 380.749C363.027 380.589 362.747 380.509 362.434 380.509C362.12 380.509 361.837 380.589 361.584 380.749C361.337 380.909 361.137 381.123 360.984 381.389C360.837 381.649 360.764 381.943 360.764 382.269C360.764 382.603 360.837 382.903 360.984 383.169C361.13 383.436 361.33 383.649 361.584 383.809C361.837 383.963 362.12 384.039 362.434 384.039ZM370.559 384.909C370.059 384.909 369.606 384.793 369.199 384.559C368.799 384.326 368.479 384.009 368.239 383.609C368.006 383.209 367.889 382.763 367.889 382.269C367.889 381.783 368.003 381.343 368.229 380.949C368.456 380.549 368.763 380.233 369.149 379.999C369.536 379.759 369.966 379.639 370.439 379.639C370.913 379.639 371.333 379.759 371.699 379.999C372.066 380.233 372.356 380.553 372.569 380.959C372.789 381.359 372.899 381.813 372.899 382.319V382.599H368.889C368.943 382.879 369.046 383.129 369.199 383.349C369.359 383.569 369.559 383.743 369.799 383.869C370.046 383.996 370.313 384.059 370.599 384.059C370.846 384.059 371.083 384.023 371.309 383.949C371.543 383.869 371.736 383.756 371.889 383.609L372.529 384.239C372.229 384.466 371.919 384.636 371.599 384.749C371.286 384.856 370.939 384.909 370.559 384.909ZM368.899 381.849H371.909C371.869 381.583 371.776 381.349 371.629 381.149C371.489 380.943 371.313 380.783 371.099 380.669C370.893 380.549 370.666 380.489 370.419 380.489C370.166 380.489 369.933 380.546 369.719 380.659C369.506 380.773 369.326 380.933 369.179 381.139C369.039 381.339 368.946 381.576 368.899 381.849ZM370.199 378.789L368.919 377.569H370.139L371.039 378.789H370.199ZM378.282 384.899C377.808 384.899 377.375 384.783 376.982 384.549C376.588 384.316 376.278 384.003 376.052 383.609C375.825 383.209 375.712 382.763 375.712 382.269C375.712 381.776 375.825 381.333 376.052 380.939C376.285 380.546 376.598 380.233 376.992 379.999C377.385 379.766 377.822 379.649 378.302 379.649C378.582 379.649 378.852 379.693 379.112 379.779C379.372 379.866 379.612 379.993 379.832 380.159V377.819L380.832 377.629V384.819H379.842V384.329C379.408 384.709 378.888 384.899 378.282 384.899ZM378.412 384.029C378.705 384.029 378.972 383.976 379.212 383.869C379.458 383.763 379.665 383.609 379.832 383.409V381.119C379.665 380.933 379.458 380.786 379.212 380.679C378.972 380.566 378.705 380.509 378.412 380.509C378.092 380.509 377.802 380.586 377.542 380.739C377.282 380.893 377.075 381.103 376.922 381.369C376.768 381.629 376.692 381.926 376.692 382.259C376.692 382.593 376.768 382.893 376.922 383.159C377.075 383.426 377.282 383.639 377.542 383.799C377.802 383.953 378.092 384.029 378.412 384.029ZM382.016 384.819V379.729H383.016V384.819H382.016ZM382.516 378.909C382.349 378.909 382.206 378.849 382.086 378.729C381.966 378.603 381.906 378.456 381.906 378.289C381.906 378.116 381.966 377.973 382.086 377.859C382.206 377.739 382.349 377.679 382.516 377.679C382.689 377.679 382.836 377.739 382.956 377.859C383.076 377.973 383.136 378.116 383.136 378.289C383.136 378.456 383.076 378.603 382.956 378.729C382.836 378.849 382.689 378.909 382.516 378.909ZM384.854 384.889C384.68 384.889 384.53 384.829 384.404 384.709C384.284 384.583 384.224 384.433 384.224 384.259C384.224 384.086 384.284 383.939 384.404 383.819C384.53 383.693 384.68 383.629 384.854 383.629C385.027 383.629 385.174 383.693 385.294 383.819C385.42 383.939 385.484 384.086 385.484 384.259C385.484 384.433 385.42 384.583 385.294 384.709C385.174 384.829 385.027 384.889 384.854 384.889ZM387.354 384.889C387.18 384.889 387.03 384.829 386.904 384.709C386.784 384.583 386.724 384.433 386.724 384.259C386.724 384.086 386.784 383.939 386.904 383.819C387.03 383.693 387.18 383.629 387.354 383.629C387.527 383.629 387.674 383.693 387.794 383.819C387.92 383.939 387.984 384.086 387.984 384.259C387.984 384.433 387.92 384.583 387.794 384.709C387.674 384.829 387.527 384.889 387.354 384.889ZM389.854 384.889C389.68 384.889 389.53 384.829 389.404 384.709C389.284 384.583 389.224 384.433 389.224 384.259C389.224 384.086 389.284 383.939 389.404 383.819C389.53 383.693 389.68 383.629 389.854 383.629C390.027 383.629 390.174 383.693 390.294 383.819C390.42 383.939 390.484 384.086 390.484 384.259C390.484 384.433 390.42 384.583 390.294 384.709C390.174 384.829 390.027 384.889 389.854 384.889Z" fill="#10012C"/>
<path d="M206.904 283V233.632L194.848 238.648V228.088L211.304 221.4H218.96V283H206.904ZM227.992 283V274.728L253.688 248.68C254.92 247.389 255.888 246.187 256.592 245.072C257.354 243.957 257.882 242.872 258.176 241.816C258.528 240.701 258.704 239.587 258.704 238.472C258.704 236.184 257.736 234.277 255.8 232.752C253.922 231.227 251.517 230.464 248.584 230.464C245.768 230.464 243.157 231.051 240.752 232.224C238.346 233.339 235.706 235.275 232.832 238.032L226.32 230.112C229.781 226.885 233.389 224.48 237.144 222.896C240.898 221.253 244.829 220.432 248.936 220.432C253.101 220.432 256.768 221.165 259.936 222.632C263.104 224.099 265.568 226.123 267.328 228.704C269.088 231.285 269.968 234.307 269.968 237.768C269.968 239.763 269.674 241.64 269.088 243.4C268.56 245.16 267.68 246.949 266.448 248.768C265.216 250.528 263.573 252.435 261.52 254.488L242.864 273.232L270.936 273.144V283H227.992ZM285.125 283.88C283.189 283.88 281.517 283.176 280.109 281.768C278.701 280.36 277.997 278.688 277.997 276.752C277.997 274.757 278.701 273.056 280.109 271.648C281.517 270.24 283.189 269.536 285.125 269.536C287.061 269.536 288.733 270.24 290.141 271.648C291.549 273.056 292.253 274.757 292.253 276.752C292.253 278.688 291.549 280.36 290.141 281.768C288.733 283.176 287.061 283.88 285.125 283.88ZM285.125 250.616C283.189 250.616 281.517 249.912 280.109 248.504C278.701 247.096 277.997 245.424 277.997 243.488C277.997 241.493 278.701 239.792 280.109 238.384C281.517 236.976 283.189 236.272 285.125 236.272C287.061 236.272 288.733 236.976 290.141 238.384C291.549 239.792 292.253 241.493 292.253 243.488C292.253 245.424 291.549 247.096 290.141 248.504C288.733 249.912 287.061 250.616 285.125 250.616ZM326.221 283.968C320.882 283.968 316.16 282.648 312.053 280.008C308.005 277.309 304.837 273.584 302.549 268.832C300.32 264.021 299.205 258.477 299.205 252.2C299.205 245.864 300.32 240.32 302.549 235.568C304.837 230.816 308.005 227.12 312.053 224.48C316.16 221.781 320.882 220.432 326.221 220.432C331.618 220.432 336.341 221.781 340.389 224.48C344.496 227.12 347.664 230.816 349.893 235.568C352.181 240.32 353.325 245.864 353.325 252.2C353.325 258.477 352.181 264.021 349.893 268.832C347.664 273.584 344.496 277.309 340.389 280.008C336.341 282.648 331.618 283.968 326.221 283.968ZM326.221 273.496C329.389 273.496 332.117 272.645 334.405 270.944C336.693 269.243 338.453 266.779 339.685 263.552C340.976 260.325 341.621 256.541 341.621 252.2C341.621 247.8 340.976 244.016 339.685 240.848C338.453 237.621 336.693 235.157 334.405 233.456C332.117 231.755 329.389 230.904 326.221 230.904C323.112 230.904 320.413 231.755 318.125 233.456C315.837 235.157 314.048 237.621 312.757 240.848C311.525 244.016 310.909 247.8 310.909 252.2C310.909 256.541 311.525 260.325 312.757 263.552C314.048 266.779 315.837 269.243 318.125 270.944C320.413 272.645 323.112 273.496 326.221 273.496ZM386.463 283.968C381.125 283.968 376.402 282.648 372.295 280.008C368.247 277.309 365.079 273.584 362.791 268.832C360.562 264.021 359.447 258.477 359.447 252.2C359.447 245.864 360.562 240.32 362.791 235.568C365.079 230.816 368.247 227.12 372.295 224.48C376.402 221.781 381.125 220.432 386.463 220.432C391.861 220.432 396.583 221.781 400.631 224.48C404.738 227.12 407.906 230.816 410.135 235.568C412.423 240.32 413.567 245.864 413.567 252.2C413.567 258.477 412.423 264.021 410.135 268.832C407.906 273.584 404.738 277.309 400.631 280.008C396.583 282.648 391.861 283.968 386.463 283.968ZM386.463 273.496C389.631 273.496 392.359 272.645 394.647 270.944C396.935 269.243 398.695 266.779 399.927 263.552C401.218 260.325 401.863 256.541 401.863 252.2C401.863 247.8 401.218 244.016 399.927 240.848C398.695 237.621 396.935 235.157 394.647 233.456C392.359 231.755 389.631 230.904 386.463 230.904C383.354 230.904 380.655 231.755 378.367 233.456C376.079 235.157 374.29 237.621 372.999 240.848C371.767 244.016 371.151 247.8 371.151 252.2C371.151 256.541 371.767 260.325 372.999 263.552C374.29 266.779 376.079 269.243 378.367 270.944C380.655 272.645 383.354 273.496 386.463 273.496Z" fill="#F5EFFF"/>
<defs>
<filter id="filter0_d_919_238" x="100" y="143" width="399" height="628" filterUnits="userSpaceOnUse" color-interpolation-filters="sRGB">
<feFlood flood-opacity="0" result="BackgroundImageFix"/>
<feColorMatrix in="SourceAlpha" type="matrix" values="0 0 0 0 0 0 0 0 0 0 0 0 0 0 0 0 0 0 127 0" result="hardAlpha"/>
<feOffset dy="4"/>
<feGaussianBlur stdDeviation="9.5"/>
<feComposite in2="hardAlpha" operator="out"/>
<feColorMatrix type="matrix" values="0 0 0 0 0.588235 0 0 0 0 0.588235 0 0 0 0 0.917647 0 0 0 1 0"/>
<feBlend mode="normal" in2="BackgroundImageFix" result="effect1_dropShadow_919_238"/>
<feBlend mode="normal" in="SourceGraphic" in2="effect1_dropShadow_919_238" result="shape"/>
</filter>
<linearGradient id="paint0_linear_919_238" x1="450.06" y1="627.416" x2="505.72" y2="639.889" gradientUnits="userSpaceOnUse">
<stop stop-color="#5A5EEB"/>
<stop offset="0.3692" stop-color="#5458E0"/>
<stop offset="1" stop-color="#4447C4"/>
</linearGradient>
<linearGradient id="paint1_linear_919_238" x1="299.5" y1="158" x2="299.5" y2="748" gradientUnits="userSpaceOnUse">
<stop stop-color="#10012B"/>
<stop offset="1" stop-color="#17013D"/>
</linearGradient>
<linearGradient id="paint2_linear_919_238" x1="202.747" y1="333.631" x2="202.747" y2="392.157" gradientUnits="userSpaceOnUse">
<stop stop-color="#10012B"/>
<stop offset="1" stop-color="#17013D"/>
</linearGradient>
</defs>
</svg>
