<svg width="283" height="92" viewBox="0 0 283 92" fill="none" xmlns="http://www.w3.org/2000/svg">
<rect x="28.1514" y="15.5566" width="230.401" height="75.5654" rx="23" fill="#C9C9C9"/>
<rect x="11.1123" y="10.3711" width="260.775" height="75.5654" rx="23" fill="#ECECEC"/>
<rect width="283" height="78.5288" rx="23" fill="white"/>
<rect x="11.1123" y="9.63086" width="59.267" height="58.5262" rx="14" fill="url(#paint0_linear_1284_187)"/>
<path fill-rule="evenodd" clip-rule="evenodd" d="M33.1969 44.4368C33.4356 44.5851 33.7422 44.5031 33.8864 44.2537C35.2654 41.8666 41.6895 30.7485 42.2892 29.7107C42.3171 29.6626 42.3668 29.6328 42.4203 29.6328C42.9463 29.6328 45.7236 29.6328 46.3535 29.6328C46.4273 29.6328 46.4907 29.6883 46.5045 29.7645C46.777 31.2795 49.3069 45.3371 49.6338 47.1536C49.6423 47.2008 49.6304 47.2497 49.6012 47.2869C49.572 47.3242 49.5287 47.3466 49.4828 47.3466C48.8288 47.3466 46.6406 47.3466 46.0833 47.3466C46.0083 47.3466 45.9443 47.2886 45.9318 47.2107C45.826 46.544 45.3617 43.6193 45.2559 42.9525C45.2434 42.8738 45.1794 42.8167 45.1044 42.8167C44.3628 42.8167 40.6638 42.8167 39.6339 42.8167C39.5789 42.8167 39.5282 42.7852 39.5007 42.7355C39.4733 42.685 39.4734 42.6228 39.501 42.5723C39.856 41.9246 40.8108 40.1819 41.0279 39.7851C41.0554 39.7346 41.1061 39.704 41.1608 39.704C41.6382 39.704 43.9083 39.704 44.5722 39.704C44.6175 39.704 44.6606 39.6832 44.6898 39.646C44.719 39.6095 44.7313 39.5607 44.7235 39.5135C44.5819 38.6553 44.0009 35.131 43.7961 33.8894C43.7851 33.8223 43.7356 33.7693 43.6722 33.7577C43.6089 33.7453 43.5451 33.7759 43.5124 33.8347C42.9036 34.9297 41.1917 38.0085 41.1917 38.0085C41.1885 38.0076 41.1851 38.0093 41.1835 38.0126C41.143 38.0863 40.7819 38.7448 40.771 38.7647C40.7587 38.787 40.2991 39.6137 40.2526 39.6973V39.7015L40.2563 39.704L38.5515 42.8167H38.5499L38.5457 42.8192C38.4867 42.9252 36.575 46.3659 36.5205 46.4644L36.5204 46.4661L36.5222 46.4677L36.5234 46.4686C36.5234 46.4686 36.4458 46.6111 36.3265 46.8289C35.9873 47.4493 35.4256 47.8974 34.769 48.073C34.1125 48.2486 33.4168 48.1351 32.8402 47.7599C30.5222 46.2499 27.0572 43.9937 25.9819 43.2929C25.9401 43.2656 25.9205 43.2126 25.9339 43.1629C25.9473 43.1124 25.9904 43.0784 26.0395 43.0784C27.1429 43.0792 30.1933 43.0825 30.8287 43.0834C30.9032 43.0834 31.0446 43.1041 31.1091 43.1438C31.4463 43.3534 32.571 44.0492 33.1969 44.4368Z" fill="#F7F7F7"/>
<path d="M83.936 33L88.544 21.8H91.216L95.776 33H93.264L92.128 30.056H87.504L86.352 33H83.936ZM88.224 28.2H91.424L89.824 24.072L88.224 28.2ZM99.5804 33.16C98.9404 33.16 98.3697 33.0213 97.8684 32.744C97.3777 32.456 96.9884 32.0613 96.7004 31.56C96.423 31.0587 96.2844 30.4827 96.2844 29.832V24.664H98.4764V29.512C98.4764 30.0453 98.631 30.472 98.9404 30.792C99.2604 31.112 99.687 31.272 100.22 31.272C100.583 31.272 100.908 31.2027 101.196 31.064C101.495 30.9147 101.74 30.7067 101.932 30.44V24.664H104.124V33H101.932V32.328C101.292 32.8827 100.508 33.16 99.5804 33.16ZM109.785 33.128C108.857 33.128 108.153 32.92 107.673 32.504C107.203 32.0773 106.969 31.4587 106.969 30.648V26.488H105.257V24.664H106.969V22.536L109.161 22.04V24.664H111.545V26.488H109.161V30.2C109.161 30.584 109.246 30.8613 109.417 31.032C109.587 31.192 109.886 31.272 110.313 31.272C110.526 31.272 110.718 31.2613 110.889 31.24C111.07 31.208 111.267 31.1547 111.481 31.08V32.888C111.257 32.9627 110.974 33.0213 110.633 33.064C110.302 33.1067 110.019 33.128 109.785 33.128ZM116.584 33.16C115.752 33.16 115 32.968 114.328 32.584C113.656 32.2 113.123 31.6827 112.728 31.032C112.334 30.3813 112.136 29.6507 112.136 28.84C112.136 28.0293 112.328 27.2987 112.712 26.648C113.107 25.9867 113.64 25.464 114.312 25.08C114.995 24.696 115.752 24.504 116.584 24.504C117.416 24.504 118.168 24.696 118.84 25.08C119.523 25.464 120.056 25.9867 120.44 26.648C120.835 27.2987 121.032 28.0293 121.032 28.84C121.032 29.6507 120.835 30.3813 120.44 31.032C120.056 31.6827 119.528 32.2 118.856 32.584C118.184 32.968 117.427 33.16 116.584 33.16ZM116.584 31.256C117.022 31.256 117.411 31.1493 117.752 30.936C118.104 30.7227 118.382 30.4347 118.584 30.072C118.798 29.6987 118.904 29.288 118.904 28.84C118.904 28.3813 118.798 27.9707 118.584 27.608C118.382 27.2453 118.104 26.9573 117.752 26.744C117.411 26.52 117.022 26.408 116.584 26.408C116.158 26.408 115.768 26.52 115.416 26.744C115.064 26.9573 114.787 27.2453 114.584 27.608C114.382 27.9707 114.28 28.3813 114.28 28.84C114.28 29.288 114.382 29.6987 114.584 30.072C114.787 30.4347 115.064 30.7227 115.416 30.936C115.768 31.1493 116.158 31.256 116.584 31.256ZM122.38 33V24.664H124.572V25.304C125.169 24.7707 125.894 24.504 126.748 24.504C127.292 24.504 127.777 24.616 128.204 24.84C128.63 25.0533 128.982 25.3573 129.26 25.752C129.601 25.3467 130.001 25.0373 130.46 24.824C130.929 24.6107 131.446 24.504 132.012 24.504C132.641 24.504 133.19 24.648 133.66 24.936C134.14 25.2133 134.513 25.6027 134.78 26.104C135.057 26.5947 135.196 27.1707 135.196 27.832V33H133.02V28.152C133.02 27.608 132.876 27.1813 132.588 26.872C132.3 26.552 131.916 26.392 131.436 26.392C131.105 26.392 130.801 26.4613 130.524 26.6C130.257 26.7387 130.028 26.9467 129.836 27.224C129.846 27.32 129.857 27.416 129.868 27.512C129.878 27.608 129.884 27.7147 129.884 27.832V33H127.692V28.152C127.692 27.608 127.548 27.1813 127.26 26.872C126.982 26.552 126.604 26.392 126.124 26.392C125.793 26.392 125.494 26.456 125.228 26.584C124.972 26.712 124.753 26.904 124.572 27.16V33H122.38ZM140.018 33.16C139.378 33.16 138.807 33.0213 138.306 32.744C137.815 32.456 137.426 32.0613 137.138 31.56C136.861 31.0587 136.722 30.4827 136.722 29.832V24.664H138.914V29.512C138.914 30.0453 139.069 30.472 139.378 30.792C139.698 31.112 140.125 31.272 140.658 31.272C141.021 31.272 141.346 31.2027 141.634 31.064C141.933 30.9147 142.178 30.7067 142.37 30.44V24.664H144.562V33H142.37V32.328C141.73 32.8827 140.946 33.16 140.018 33.16ZM150.126 33.112C149.337 33.112 148.622 32.92 147.982 32.536C147.342 32.152 146.83 31.64 146.446 31C146.073 30.3493 145.886 29.624 145.886 28.824C145.886 28.024 146.073 27.304 146.446 26.664C146.83 26.0133 147.348 25.5013 147.998 25.128C148.649 24.744 149.38 24.552 150.19 24.552C150.606 24.552 151.006 24.6107 151.39 24.728C151.774 24.8347 152.132 24.9947 152.462 25.208V21.8L154.654 21.432V33H152.494V32.312C151.812 32.8453 151.022 33.112 150.126 33.112ZM150.478 31.24C150.884 31.24 151.252 31.176 151.582 31.048C151.924 30.9093 152.217 30.7067 152.462 30.44V27.192C152.217 26.9467 151.924 26.7547 151.582 26.616C151.241 26.4773 150.873 26.408 150.478 26.408C150.02 26.408 149.604 26.5147 149.23 26.728C148.868 26.9307 148.58 27.2187 148.366 27.592C148.153 27.9547 148.046 28.3653 148.046 28.824C148.046 29.2827 148.153 29.6933 148.366 30.056C148.58 30.4187 148.868 30.7067 149.23 30.92C149.604 31.1333 150.02 31.24 150.478 31.24Z" fill="#10012C"/>
<path d="M88.5351 45.9303C88.0151 45.9303 87.5317 45.8403 87.0851 45.6603C86.6451 45.4736 86.2551 45.217 85.9151 44.8903C85.5817 44.557 85.3217 44.1736 85.1351 43.7403C84.9551 43.3003 84.8651 42.827 84.8651 42.3203C84.8651 41.8136 84.9551 41.3436 85.1351 40.9103C85.3217 40.4703 85.5817 40.087 85.9151 39.7603C86.2551 39.427 86.6484 39.1703 87.0951 38.9903C87.5417 38.8036 88.0217 38.7103 88.5351 38.7103C88.9017 38.7103 89.2584 38.7603 89.6051 38.8603C89.9584 38.9536 90.2817 39.0903 90.5751 39.2703C90.8751 39.4503 91.1351 39.667 91.3551 39.9203L90.6551 40.6403C90.3951 40.327 90.0784 40.0903 89.7051 39.9303C89.3317 39.7636 88.9417 39.6803 88.5351 39.6803C88.1617 39.6803 87.8151 39.747 87.4951 39.8803C87.1817 40.0136 86.9084 40.2003 86.6751 40.4403C86.4417 40.6736 86.2584 40.9503 86.1251 41.2703C85.9984 41.5903 85.9351 41.9403 85.9351 42.3203C85.9351 42.6936 85.9984 43.0403 86.1251 43.3603C86.2584 43.6803 86.4451 43.9603 86.6851 44.2003C86.9251 44.4403 87.2051 44.627 87.5251 44.7603C87.8451 44.8936 88.1917 44.9603 88.5651 44.9603C88.9717 44.9603 89.3551 44.8803 89.7151 44.7203C90.0817 44.5536 90.3917 44.3203 90.6451 44.0203L91.3351 44.7203C91.1017 44.967 90.8351 45.1836 90.5351 45.3703C90.2417 45.5503 89.9217 45.6903 89.5751 45.7903C89.2351 45.8836 88.8884 45.9303 88.5351 45.9303ZM92.2423 45.8203V40.7303H93.2423V45.8203H92.2423ZM92.7423 39.9103C92.5757 39.9103 92.4323 39.8503 92.3123 39.7303C92.1923 39.6036 92.1323 39.457 92.1323 39.2903C92.1323 39.117 92.1923 38.9736 92.3123 38.8603C92.4323 38.7403 92.5757 38.6803 92.7423 38.6803C92.9157 38.6803 93.0623 38.7403 93.1823 38.8603C93.3023 38.9736 93.3623 39.117 93.3623 39.2903C93.3623 39.457 93.3023 39.6036 93.1823 39.7303C93.0623 39.8503 92.9157 39.9103 92.7423 39.9103ZM96.0301 45.9103C95.6634 45.9103 95.3401 45.847 95.0601 45.7203C94.7801 45.587 94.5601 45.4036 94.4001 45.1703C94.2401 44.937 94.1601 44.667 94.1601 44.3603C94.1601 43.8803 94.3434 43.5036 94.7101 43.2303C95.0767 42.9503 95.5801 42.8103 96.2201 42.8103C96.7201 42.8103 97.1834 42.907 97.6101 43.1003V42.5603C97.6101 42.1936 97.5034 41.9203 97.2901 41.7403C97.0834 41.5603 96.7767 41.4703 96.3701 41.4703C96.1367 41.4703 95.8934 41.507 95.6401 41.5803C95.3867 41.647 95.1034 41.7536 94.7901 41.9003L94.4201 41.1503C94.8067 40.9703 95.1667 40.8403 95.5001 40.7603C95.8334 40.6736 96.1701 40.6303 96.5101 40.6303C97.1701 40.6303 97.6801 40.787 98.0401 41.1003C98.4067 41.4136 98.5901 41.8603 98.5901 42.4403V45.8203H97.6101V45.3803C97.3834 45.5603 97.1401 45.6936 96.8801 45.7803C96.6201 45.867 96.3367 45.9103 96.0301 45.9103ZM95.1201 44.3403C95.1201 44.587 95.2234 44.787 95.4301 44.9403C95.6434 45.087 95.9201 45.1603 96.2601 45.1603C96.5267 45.1603 96.7701 45.1236 96.9901 45.0503C97.2167 44.9703 97.4234 44.847 97.6101 44.6803V43.8203C97.4167 43.707 97.2134 43.627 97.0001 43.5803C96.7934 43.527 96.5601 43.5003 96.3001 43.5003C95.9334 43.5003 95.6434 43.577 95.4301 43.7303C95.2234 43.877 95.1201 44.0803 95.1201 44.3403ZM102.162 45.9203C101.669 45.9203 101.219 45.8036 100.812 45.5703C100.412 45.337 100.096 45.0203 99.8623 44.6203C99.629 44.2203 99.5123 43.7736 99.5123 43.2803C99.5123 42.787 99.629 42.3403 99.8623 41.9403C100.096 41.5403 100.412 41.2236 100.812 40.9903C101.219 40.7503 101.669 40.6303 102.162 40.6303C102.662 40.6303 103.112 40.7503 103.512 40.9903C103.912 41.2236 104.229 41.5403 104.462 41.9403C104.696 42.3403 104.812 42.787 104.812 43.2803C104.812 43.7736 104.696 44.2203 104.462 44.6203C104.229 45.0203 103.912 45.337 103.512 45.5703C103.112 45.8036 102.662 45.9203 102.162 45.9203ZM102.162 45.0403C102.476 45.0403 102.759 44.9636 103.012 44.8103C103.266 44.6503 103.466 44.437 103.612 44.1703C103.759 43.9036 103.832 43.6036 103.832 43.2703C103.832 42.9436 103.756 42.6503 103.602 42.3903C103.456 42.1236 103.256 41.9103 103.002 41.7503C102.756 41.5903 102.476 41.5103 102.162 41.5103C101.849 41.5103 101.566 41.5903 101.312 41.7503C101.066 41.9103 100.866 42.1236 100.712 42.3903C100.566 42.6503 100.492 42.9436 100.492 43.2703C100.492 43.6036 100.566 43.9036 100.712 44.1703C100.859 44.437 101.059 44.6503 101.312 44.8103C101.566 44.9636 101.849 45.0403 102.162 45.0403ZM105.184 47.2503L105.804 44.9203H106.864L105.944 47.2503H105.184ZM111.844 45.9203C111.404 45.9203 110.991 45.857 110.604 45.7303C110.224 45.597 109.894 45.4103 109.614 45.1703L110.164 44.5103C110.424 44.717 110.691 44.877 110.964 44.9903C111.244 45.097 111.527 45.1503 111.814 45.1503C112.174 45.1503 112.467 45.0803 112.694 44.9403C112.921 44.8003 113.034 44.617 113.034 44.3903C113.034 44.2036 112.967 44.057 112.834 43.9503C112.701 43.8436 112.494 43.7703 112.214 43.7303L111.294 43.6003C110.787 43.527 110.407 43.3703 110.154 43.1303C109.901 42.8903 109.774 42.5703 109.774 42.1703C109.774 41.8636 109.857 41.597 110.024 41.3703C110.191 41.137 110.424 40.957 110.724 40.8303C111.024 40.697 111.374 40.6303 111.774 40.6303C112.141 40.6303 112.494 40.6836 112.834 40.7903C113.174 40.897 113.501 41.0636 113.814 41.2903L113.304 41.9503C113.024 41.7636 112.751 41.627 112.484 41.5403C112.224 41.4536 111.961 41.4103 111.694 41.4103C111.387 41.4103 111.141 41.477 110.954 41.6103C110.767 41.737 110.674 41.9036 110.674 42.1103C110.674 42.297 110.737 42.4436 110.864 42.5503C110.997 42.6503 111.214 42.7203 111.514 42.7603L112.434 42.8903C112.941 42.9636 113.324 43.1203 113.584 43.3603C113.844 43.5936 113.974 43.9103 113.974 44.3103C113.974 44.617 113.881 44.8936 113.694 45.1403C113.507 45.3803 113.254 45.5703 112.934 45.7103C112.614 45.8503 112.251 45.9203 111.844 45.9203ZM117.211 45.9203C116.718 45.9203 116.268 45.8036 115.861 45.5703C115.461 45.337 115.145 45.0203 114.911 44.6203C114.678 44.2203 114.561 43.7736 114.561 43.2803C114.561 42.787 114.678 42.3403 114.911 41.9403C115.145 41.5403 115.461 41.2236 115.861 40.9903C116.268 40.7503 116.718 40.6303 117.211 40.6303C117.711 40.6303 118.161 40.7503 118.561 40.9903C118.961 41.2236 119.278 41.5403 119.511 41.9403C119.745 42.3403 119.861 42.787 119.861 43.2803C119.861 43.7736 119.745 44.2203 119.511 44.6203C119.278 45.0203 118.961 45.337 118.561 45.5703C118.161 45.8036 117.711 45.9203 117.211 45.9203ZM117.211 45.0403C117.525 45.0403 117.808 44.9636 118.061 44.8103C118.315 44.6503 118.515 44.437 118.661 44.1703C118.808 43.9036 118.881 43.6036 118.881 43.2703C118.881 42.9436 118.805 42.6503 118.651 42.3903C118.505 42.1236 118.305 41.9103 118.051 41.7503C117.805 41.5903 117.525 41.5103 117.211 41.5103C116.898 41.5103 116.615 41.5903 116.361 41.7503C116.115 41.9103 115.915 42.1236 115.761 42.3903C115.615 42.6503 115.541 42.9436 115.541 43.2703C115.541 43.6036 115.615 43.9036 115.761 44.1703C115.908 44.437 116.108 44.6503 116.361 44.8103C116.615 44.9636 116.898 45.0403 117.211 45.0403ZM120.807 45.8203V40.7303H121.807V41.2503C122.2 40.837 122.71 40.6303 123.337 40.6303C123.73 40.6303 124.073 40.7136 124.367 40.8803C124.667 41.047 124.9 41.2803 125.067 41.5803C125.24 41.8803 125.327 42.227 125.327 42.6203V45.8203H124.327V42.7903C124.327 42.3903 124.213 42.077 123.987 41.8503C123.767 41.617 123.457 41.5003 123.057 41.5003C122.79 41.5003 122.55 41.557 122.337 41.6703C122.123 41.7836 121.947 41.947 121.807 42.1603V45.8203H120.807ZM128.901 45.9203C128.407 45.9203 127.957 45.8036 127.551 45.5703C127.151 45.337 126.834 45.0203 126.601 44.6203C126.367 44.2203 126.251 43.7736 126.251 43.2803C126.251 42.787 126.367 42.3403 126.601 41.9403C126.834 41.5403 127.151 41.2236 127.551 40.9903C127.957 40.7503 128.407 40.6303 128.901 40.6303C129.401 40.6303 129.851 40.7503 130.251 40.9903C130.651 41.2236 130.967 41.5403 131.201 41.9403C131.434 42.3403 131.551 42.787 131.551 43.2803C131.551 43.7736 131.434 44.2203 131.201 44.6203C130.967 45.0203 130.651 45.337 130.251 45.5703C129.851 45.8036 129.401 45.9203 128.901 45.9203ZM128.901 45.0403C129.214 45.0403 129.497 44.9636 129.751 44.8103C130.004 44.6503 130.204 44.437 130.351 44.1703C130.497 43.9036 130.571 43.6036 130.571 43.2703C130.571 42.9436 130.494 42.6503 130.341 42.3903C130.194 42.1236 129.994 41.9103 129.741 41.7503C129.494 41.5903 129.214 41.5103 128.901 41.5103C128.587 41.5103 128.304 41.5903 128.051 41.7503C127.804 41.9103 127.604 42.1236 127.451 42.3903C127.304 42.6503 127.231 42.9436 127.231 43.2703C127.231 43.6036 127.304 43.9036 127.451 44.1703C127.597 44.437 127.797 44.6503 128.051 44.8103C128.304 44.9636 128.587 45.0403 128.901 45.0403ZM134.706 45.8203V38.8203H137.876C138.343 38.8203 138.749 38.907 139.096 39.0803C139.449 39.2536 139.723 39.497 139.916 39.8103C140.116 40.117 140.216 40.477 140.216 40.8903C140.216 41.3503 140.086 41.747 139.826 42.0803C139.566 42.4136 139.216 42.6536 138.776 42.8003L140.336 45.8203H139.176L137.726 42.9503H135.756V45.8203H134.706ZM135.756 42.0703H137.796C138.209 42.0703 138.539 41.967 138.786 41.7603C139.039 41.547 139.166 41.2603 139.166 40.9003C139.166 40.5536 139.039 40.2736 138.786 40.0603C138.539 39.847 138.209 39.7403 137.796 39.7403H135.756V42.0703ZM142.69 45.9103C142.324 45.9103 142 45.847 141.72 45.7203C141.44 45.587 141.22 45.4036 141.06 45.1703C140.9 44.937 140.82 44.667 140.82 44.3603C140.82 43.8803 141.004 43.5036 141.37 43.2303C141.737 42.9503 142.24 42.8103 142.88 42.8103C143.38 42.8103 143.844 42.907 144.27 43.1003V42.5603C144.27 42.1936 144.164 41.9203 143.95 41.7403C143.744 41.5603 143.437 41.4703 143.03 41.4703C142.797 41.4703 142.554 41.507 142.3 41.5803C142.047 41.647 141.764 41.7536 141.45 41.9003L141.08 41.1503C141.467 40.9703 141.827 40.8403 142.16 40.7603C142.494 40.6736 142.83 40.6303 143.17 40.6303C143.83 40.6303 144.34 40.787 144.7 41.1003C145.067 41.4136 145.25 41.8603 145.25 42.4403V45.8203H144.27V45.3803C144.044 45.5603 143.8 45.6936 143.54 45.7803C143.28 45.867 142.997 45.9103 142.69 45.9103ZM141.78 44.3403C141.78 44.587 141.884 44.787 142.09 44.9403C142.304 45.087 142.58 45.1603 142.92 45.1603C143.187 45.1603 143.43 45.1236 143.65 45.0503C143.877 44.9703 144.084 44.847 144.27 44.6803V43.8203C144.077 43.707 143.874 43.627 143.66 43.5803C143.454 43.527 143.22 43.5003 142.96 43.5003C142.594 43.5003 142.304 43.577 142.09 43.7303C141.884 43.877 141.78 44.0803 141.78 44.3403ZM147.016 45.8203V41.5703H145.836V40.7303H147.016V39.9603C147.016 39.427 147.163 39.0203 147.456 38.7403C147.756 38.4603 148.183 38.3203 148.736 38.3203C148.876 38.3203 149.006 38.3303 149.126 38.3503C149.253 38.3636 149.366 38.387 149.466 38.4203V39.2803C149.346 39.247 149.239 39.2236 149.146 39.2103C149.053 39.1903 148.949 39.1803 148.836 39.1803C148.556 39.1803 148.346 39.247 148.206 39.3803C148.073 39.507 148.006 39.7103 148.006 39.9903V40.7303H149.466V41.5703H148.006V45.8203H147.016ZM151.675 45.9103C151.308 45.9103 150.985 45.847 150.705 45.7203C150.425 45.587 150.205 45.4036 150.045 45.1703C149.885 44.937 149.805 44.667 149.805 44.3603C149.805 43.8803 149.988 43.5036 150.355 43.2303C150.721 42.9503 151.225 42.8103 151.865 42.8103C152.365 42.8103 152.828 42.907 153.255 43.1003V42.5603C153.255 42.1936 153.148 41.9203 152.935 41.7403C152.728 41.5603 152.421 41.4703 152.015 41.4703C151.781 41.4703 151.538 41.507 151.285 41.5803C151.031 41.647 150.748 41.7536 150.435 41.9003L150.065 41.1503C150.451 40.9703 150.811 40.8403 151.145 40.7603C151.478 40.6736 151.815 40.6303 152.155 40.6303C152.815 40.6303 153.325 40.787 153.685 41.1003C154.051 41.4136 154.235 41.8603 154.235 42.4403V45.8203H153.255V45.3803C153.028 45.5603 152.785 45.6936 152.525 45.7803C152.265 45.867 151.981 45.9103 151.675 45.9103ZM150.765 44.3403C150.765 44.587 150.868 44.787 151.075 44.9403C151.288 45.087 151.565 45.1603 151.905 45.1603C152.171 45.1603 152.415 45.1236 152.635 45.0503C152.861 44.9703 153.068 44.847 153.255 44.6803V43.8203C153.061 43.707 152.858 43.627 152.645 43.5803C152.438 43.527 152.205 43.5003 151.945 43.5003C151.578 43.5003 151.288 43.577 151.075 43.7303C150.868 43.877 150.765 44.0803 150.765 44.3403ZM157.827 45.9103C157.327 45.9103 156.874 45.7936 156.467 45.5603C156.067 45.327 155.747 45.0103 155.507 44.6103C155.274 44.2103 155.157 43.7636 155.157 43.2703C155.157 42.7836 155.27 42.3436 155.497 41.9503C155.724 41.5503 156.03 41.2336 156.417 41.0003C156.804 40.7603 157.234 40.6403 157.707 40.6403C158.18 40.6403 158.6 40.7603 158.967 41.0003C159.334 41.2336 159.624 41.5536 159.837 41.9603C160.057 42.3603 160.167 42.8136 160.167 43.3203V43.6003H156.157C156.21 43.8803 156.314 44.1303 156.467 44.3503C156.627 44.5703 156.827 44.7436 157.067 44.8703C157.314 44.997 157.58 45.0603 157.867 45.0603C158.114 45.0603 158.35 45.0236 158.577 44.9503C158.81 44.8703 159.004 44.757 159.157 44.6103L159.797 45.2403C159.497 45.467 159.187 45.637 158.867 45.7503C158.554 45.857 158.207 45.9103 157.827 45.9103ZM156.167 42.8503H159.177C159.137 42.5836 159.044 42.3503 158.897 42.1503C158.757 41.9436 158.58 41.7836 158.367 41.6703C158.16 41.5503 157.934 41.4903 157.687 41.4903C157.434 41.4903 157.2 41.547 156.987 41.6603C156.774 41.7736 156.594 41.9336 156.447 42.1403C156.307 42.3403 156.214 42.577 156.167 42.8503ZM161.119 45.8203V38.8203L162.119 38.6303V45.8203H161.119ZM165.717 45.9203C165.224 45.9203 164.774 45.8036 164.367 45.5703C163.967 45.337 163.65 45.0203 163.417 44.6203C163.184 44.2203 163.067 43.7736 163.067 43.2803C163.067 42.787 163.184 42.3403 163.417 41.9403C163.65 41.5403 163.967 41.2236 164.367 40.9903C164.774 40.7503 165.224 40.6303 165.717 40.6303C166.217 40.6303 166.667 40.7503 167.067 40.9903C167.467 41.2236 167.784 41.5403 168.017 41.9403C168.25 42.3403 168.367 42.787 168.367 43.2803C168.367 43.7736 168.25 44.2203 168.017 44.6203C167.784 45.0203 167.467 45.337 167.067 45.5703C166.667 45.8036 166.217 45.9203 165.717 45.9203ZM165.717 45.0403C166.03 45.0403 166.314 44.9636 166.567 44.8103C166.82 44.6503 167.02 44.437 167.167 44.1703C167.314 43.9036 167.387 43.6036 167.387 43.2703C167.387 42.9436 167.31 42.6503 167.157 42.3903C167.01 42.1236 166.81 41.9103 166.557 41.7503C166.31 41.5903 166.03 41.5103 165.717 41.5103C165.404 41.5103 165.12 41.5903 164.867 41.7503C164.62 41.9103 164.42 42.1236 164.267 42.3903C164.12 42.6503 164.047 42.9436 164.047 43.2703C164.047 43.6036 164.12 43.9036 164.267 44.1703C164.414 44.437 164.614 44.6503 164.867 44.8103C165.12 44.9636 165.404 45.0403 165.717 45.0403ZM169.403 43.8203L169.283 38.7703H170.313L170.193 43.8203H169.403ZM169.803 45.8903C169.629 45.8903 169.479 45.8303 169.353 45.7103C169.226 45.5836 169.163 45.4336 169.163 45.2603C169.163 45.087 169.226 44.9403 169.353 44.8203C169.479 44.6936 169.629 44.6303 169.803 44.6303C169.976 44.6303 170.123 44.6936 170.243 44.8203C170.369 44.9403 170.433 45.087 170.433 45.2603C170.433 45.4336 170.369 45.5836 170.243 45.7103C170.123 45.8303 169.976 45.8903 169.803 45.8903ZM173.681 45.8203V38.8203H174.731V45.8203H173.681ZM176.041 45.8203V38.8203L177.041 38.6303V45.8203H176.041ZM180.309 45.8203V40.7303H181.309V41.3803C181.469 41.1403 181.665 40.9536 181.899 40.8203C182.139 40.6803 182.409 40.6103 182.709 40.6103C182.915 40.617 183.085 40.647 183.219 40.7003V41.6003C183.125 41.5603 183.029 41.5336 182.929 41.5203C182.829 41.5003 182.729 41.4903 182.629 41.4903C182.335 41.4903 182.075 41.5703 181.849 41.7303C181.622 41.8836 181.442 42.1103 181.309 42.4103V45.8203H180.309ZM185.425 45.9103C185.058 45.9103 184.735 45.847 184.455 45.7203C184.175 45.587 183.955 45.4036 183.795 45.1703C183.635 44.937 183.555 44.667 183.555 44.3603C183.555 43.8803 183.738 43.5036 184.105 43.2303C184.471 42.9503 184.975 42.8103 185.615 42.8103C186.115 42.8103 186.578 42.907 187.005 43.1003V42.5603C187.005 42.1936 186.898 41.9203 186.685 41.7403C186.478 41.5603 186.171 41.4703 185.765 41.4703C185.531 41.4703 185.288 41.507 185.035 41.5803C184.781 41.647 184.498 41.7536 184.185 41.9003L183.815 41.1503C184.201 40.9703 184.561 40.8403 184.895 40.7603C185.228 40.6736 185.565 40.6303 185.905 40.6303C186.565 40.6303 187.075 40.787 187.435 41.1003C187.801 41.4136 187.985 41.8603 187.985 42.4403V45.8203H187.005V45.3803C186.778 45.5603 186.535 45.6936 186.275 45.7803C186.015 45.867 185.731 45.9103 185.425 45.9103ZM184.515 44.3403C184.515 44.587 184.618 44.787 184.825 44.9403C185.038 45.087 185.315 45.1603 185.655 45.1603C185.921 45.1603 186.165 45.1236 186.385 45.0503C186.611 44.9703 186.818 44.847 187.005 44.6803V43.8203C186.811 43.707 186.608 43.627 186.395 43.5803C186.188 43.527 185.955 43.5003 185.695 43.5003C185.328 43.5003 185.038 43.577 184.825 43.7303C184.618 43.877 184.515 44.0803 184.515 44.3403ZM189.137 45.8203V40.7303H190.137V41.2503C190.53 40.837 191.04 40.6303 191.667 40.6303C192.06 40.6303 192.404 40.7136 192.697 40.8803C192.997 41.047 193.23 41.2803 193.397 41.5803C193.57 41.8803 193.657 42.227 193.657 42.6203V45.8203H192.657V42.7903C192.657 42.3903 192.544 42.077 192.317 41.8503C192.097 41.617 191.787 41.5003 191.387 41.5003C191.12 41.5003 190.88 41.557 190.667 41.6703C190.454 41.7836 190.277 41.947 190.137 42.1603V45.8203H189.137ZM197.331 47.9603C196.957 47.9603 196.594 47.917 196.241 47.8303C195.887 47.7436 195.567 47.6203 195.281 47.4603L195.661 46.6803C195.961 46.8336 196.241 46.9436 196.501 47.0103C196.767 47.0836 197.034 47.1203 197.301 47.1203C197.747 47.1203 198.084 47.017 198.311 46.8103C198.544 46.6036 198.661 46.3003 198.661 45.9003V45.3203C198.214 45.6736 197.704 45.8503 197.131 45.8503C196.664 45.8503 196.234 45.737 195.841 45.5103C195.454 45.277 195.147 44.9636 194.921 44.5703C194.694 44.1703 194.581 43.7303 194.581 43.2503C194.581 42.7636 194.694 42.3236 194.921 41.9303C195.154 41.5303 195.464 41.217 195.851 40.9903C196.244 40.757 196.684 40.6403 197.171 40.6403C197.444 40.6403 197.707 40.687 197.961 40.7803C198.221 40.867 198.457 40.9936 198.671 41.1603V40.7303H199.661V45.9003C199.661 46.5603 199.457 47.067 199.051 47.4203C198.651 47.7803 198.077 47.9603 197.331 47.9603ZM197.261 44.9903C197.554 44.9903 197.821 44.9403 198.061 44.8403C198.301 44.7336 198.501 44.5836 198.661 44.3903V42.1103C198.501 41.9236 198.297 41.777 198.051 41.6703C197.811 41.5636 197.547 41.5103 197.261 41.5103C196.941 41.5103 196.651 41.587 196.391 41.7403C196.137 41.8936 195.934 42.1036 195.781 42.3703C195.634 42.6303 195.561 42.9236 195.561 43.2503C195.561 43.577 195.634 43.8736 195.781 44.1403C195.934 44.4003 196.137 44.607 196.391 44.7603C196.651 44.9136 196.941 44.9903 197.261 44.9903ZM203.276 45.9103C202.776 45.9103 202.323 45.7936 201.916 45.5603C201.516 45.327 201.196 45.0103 200.956 44.6103C200.723 44.2103 200.606 43.7636 200.606 43.2703C200.606 42.7836 200.719 42.3436 200.946 41.9503C201.173 41.5503 201.479 41.2336 201.866 41.0003C202.253 40.7603 202.683 40.6403 203.156 40.6403C203.629 40.6403 204.049 40.7603 204.416 41.0003C204.783 41.2336 205.073 41.5536 205.286 41.9603C205.506 42.3603 205.616 42.8136 205.616 43.3203V43.6003H201.606C201.659 43.8803 201.763 44.1303 201.916 44.3503C202.076 44.5703 202.276 44.7436 202.516 44.8703C202.763 44.997 203.029 45.0603 203.316 45.0603C203.563 45.0603 203.799 45.0236 204.026 44.9503C204.259 44.8703 204.453 44.757 204.606 44.6103L205.246 45.2403C204.946 45.467 204.636 45.637 204.316 45.7503C204.003 45.857 203.656 45.9103 203.276 45.9103ZM201.616 42.8503H204.626C204.586 42.5836 204.493 42.3503 204.346 42.1503C204.206 41.9436 204.029 41.7836 203.816 41.6703C203.609 41.5503 203.383 41.4903 203.136 41.4903C202.883 41.4903 202.649 41.547 202.436 41.6603C202.223 41.7736 202.043 41.9336 201.896 42.1403C201.756 42.3403 201.663 42.577 201.616 42.8503ZM210.998 45.9003C210.525 45.9003 210.092 45.7836 209.698 45.5503C209.305 45.317 208.995 45.0036 208.768 44.6103C208.542 44.2103 208.428 43.7636 208.428 43.2703C208.428 42.777 208.542 42.3336 208.768 41.9403C209.002 41.547 209.315 41.2336 209.708 41.0003C210.102 40.767 210.538 40.6503 211.018 40.6503C211.298 40.6503 211.568 40.6936 211.828 40.7803C212.088 40.867 212.328 40.9936 212.548 41.1603V38.8203L213.548 38.6303V45.8203H212.558V45.3303C212.125 45.7103 211.605 45.9003 210.998 45.9003ZM211.128 45.0303C211.422 45.0303 211.688 44.977 211.928 44.8703C212.175 44.7636 212.382 44.6103 212.548 44.4103V42.1203C212.382 41.9336 212.175 41.787 211.928 41.6803C211.688 41.567 211.422 41.5103 211.128 41.5103C210.808 41.5103 210.518 41.587 210.258 41.7403C209.998 41.8936 209.792 42.1036 209.638 42.3703C209.485 42.6303 209.408 42.927 209.408 43.2603C209.408 43.5936 209.485 43.8936 209.638 44.1603C209.792 44.427 209.998 44.6403 210.258 44.8003C210.518 44.9536 210.808 45.0303 211.128 45.0303ZM214.733 45.8203V40.7303H215.733V45.8203H214.733ZM215.233 39.9103C215.066 39.9103 214.923 39.8503 214.803 39.7303C214.683 39.6036 214.623 39.457 214.623 39.2903C214.623 39.117 214.683 38.9736 214.803 38.8603C214.923 38.7403 215.066 38.6803 215.233 38.6803C215.406 38.6803 215.553 38.7403 215.673 38.8603C215.793 38.9736 215.853 39.117 215.853 39.2903C215.853 39.457 215.793 39.6036 215.673 39.7303C215.553 39.8503 215.406 39.9103 215.233 39.9103ZM86.6851 60.8203L84.4851 55.7303H85.5851L87.1751 59.5403L88.7651 55.7303H89.8251L87.6451 60.8203H86.6851ZM91.8504 60.9103C91.4837 60.9103 91.1604 60.847 90.8804 60.7203C90.6004 60.587 90.3804 60.4036 90.2204 60.1703C90.0604 59.937 89.9804 59.667 89.9804 59.3603C89.9804 58.8803 90.1637 58.5036 90.5304 58.2303C90.8971 57.9503 91.4004 57.8103 92.0404 57.8103C92.5404 57.8103 93.0037 57.907 93.4304 58.1003V57.5603C93.4304 57.1936 93.3237 56.9203 93.1104 56.7403C92.9037 56.5603 92.5971 56.4703 92.1904 56.4703C91.9571 56.4703 91.7137 56.507 91.4604 56.5803C91.2071 56.647 90.9237 56.7536 90.6104 56.9003L90.2404 56.1503C90.6271 55.9703 90.9871 55.8403 91.3204 55.7603C91.6537 55.6736 91.9904 55.6303 92.3304 55.6303C92.9904 55.6303 93.5004 55.787 93.8604 56.1003C94.2271 56.4136 94.4104 56.8603 94.4104 57.4403V60.8203H93.4304V60.3803C93.2037 60.5603 92.9604 60.6936 92.7004 60.7803C92.4404 60.867 92.1571 60.9103 91.8504 60.9103ZM90.9404 59.3403C90.9404 59.587 91.0437 59.787 91.2504 59.9403C91.4637 60.087 91.7404 60.1603 92.0804 60.1603C92.3471 60.1603 92.5904 60.1236 92.8104 60.0503C93.0371 59.9703 93.2437 59.847 93.4304 59.6803V58.8203C93.2371 58.707 93.0337 58.627 92.8204 58.5803C92.6137 58.527 92.3804 58.5003 92.1204 58.5003C91.7537 58.5003 91.4637 58.577 91.2504 58.7303C91.0437 58.877 90.9404 59.0803 90.9404 59.3403ZM95.5627 60.8203V53.8203L96.5627 53.6303V60.8203H95.5627ZM99.7104 60.9203C99.3171 60.9203 98.9704 60.837 98.6704 60.6703C98.3704 60.5036 98.1371 60.2703 97.9704 59.9703C97.8037 59.6636 97.7204 59.3136 97.7204 58.9203V55.7303H98.7104V58.7503C98.7104 59.1503 98.8237 59.467 99.0504 59.7003C99.2837 59.9336 99.5937 60.0503 99.9804 60.0503C100.254 60.0503 100.497 59.9936 100.71 59.8803C100.924 59.7603 101.097 59.5936 101.23 59.3803V55.7303H102.23V60.8203H101.23V60.3003C100.837 60.7136 100.33 60.9203 99.7104 60.9203ZM105.594 60.9103C105.101 60.9103 104.724 60.797 104.464 60.5703C104.204 60.337 104.074 60.0003 104.074 59.5603V56.5703H102.994V55.7303H104.074V54.4303L105.064 54.1903V55.7303H106.564V56.5703H105.064V59.3303C105.064 59.5903 105.121 59.777 105.234 59.8903C105.354 59.997 105.548 60.0503 105.814 60.0503C105.954 60.0503 106.078 60.0403 106.184 60.0203C106.298 60.0003 106.418 59.9703 106.544 59.9303V60.7703C106.411 60.817 106.254 60.8503 106.074 60.8703C105.901 60.897 105.741 60.9103 105.594 60.9103ZM108.911 60.9103C108.544 60.9103 108.221 60.847 107.941 60.7203C107.661 60.587 107.441 60.4036 107.281 60.1703C107.121 59.937 107.041 59.667 107.041 59.3603C107.041 58.8803 107.224 58.5036 107.591 58.2303C107.958 57.9503 108.461 57.8103 109.101 57.8103C109.601 57.8103 110.064 57.907 110.491 58.1003V57.5603C110.491 57.1936 110.384 56.9203 110.171 56.7403C109.964 56.5603 109.658 56.4703 109.251 56.4703C109.018 56.4703 108.774 56.507 108.521 56.5803C108.268 56.647 107.984 56.7536 107.671 56.9003L107.301 56.1503C107.688 55.9703 108.048 55.8403 108.381 55.7603C108.714 55.6736 109.051 55.6303 109.391 55.6303C110.051 55.6303 110.561 55.787 110.921 56.1003C111.288 56.4136 111.471 56.8603 111.471 57.4403V60.8203H110.491V60.3803C110.264 60.5603 110.021 60.6936 109.761 60.7803C109.501 60.867 109.218 60.9103 108.911 60.9103ZM108.001 59.3403C108.001 59.587 108.104 59.787 108.311 59.9403C108.524 60.087 108.801 60.1603 109.141 60.1603C109.408 60.1603 109.651 60.1236 109.871 60.0503C110.098 59.9703 110.304 59.847 110.491 59.6803V58.8203C110.298 58.707 110.094 58.627 109.881 58.5803C109.674 58.527 109.441 58.5003 109.181 58.5003C108.814 58.5003 108.524 58.577 108.311 58.7303C108.104 58.877 108.001 59.0803 108.001 59.3403ZM112.323 60.8203V60.0803L115.183 56.5903H112.353V55.7303H116.433V56.4603L113.573 59.9603H116.483V60.8203H112.323ZM117.399 60.8203V55.7303H118.399V60.8203H117.399ZM117.899 54.9103C117.732 54.9103 117.589 54.8503 117.469 54.7303C117.349 54.6036 117.289 54.457 117.289 54.2903C117.289 54.117 117.349 53.9736 117.469 53.8603C117.589 53.7403 117.732 53.6803 117.899 53.6803C118.072 53.6803 118.219 53.7403 118.339 53.8603C118.459 53.9736 118.519 54.117 118.519 54.2903C118.519 54.457 118.459 54.6036 118.339 54.7303C118.219 54.8503 118.072 54.9103 117.899 54.9103ZM121.996 60.9203C121.503 60.9203 121.053 60.8036 120.646 60.5703C120.246 60.337 119.93 60.0203 119.696 59.6203C119.463 59.2203 119.346 58.7736 119.346 58.2803C119.346 57.787 119.463 57.3403 119.696 56.9403C119.93 56.5403 120.246 56.2236 120.646 55.9903C121.053 55.7503 121.503 55.6303 121.996 55.6303C122.496 55.6303 122.946 55.7503 123.346 55.9903C123.746 56.2236 124.063 56.5403 124.296 56.9403C124.53 57.3403 124.646 57.787 124.646 58.2803C124.646 58.7736 124.53 59.2203 124.296 59.6203C124.063 60.0203 123.746 60.337 123.346 60.5703C122.946 60.8036 122.496 60.9203 121.996 60.9203ZM121.996 60.0403C122.31 60.0403 122.593 59.9636 122.846 59.8103C123.1 59.6503 123.3 59.437 123.446 59.1703C123.593 58.9036 123.666 58.6036 123.666 58.2703C123.666 57.9436 123.59 57.6503 123.436 57.3903C123.29 57.1236 123.09 56.9103 122.836 56.7503C122.59 56.5903 122.31 56.5103 121.996 56.5103C121.683 56.5103 121.4 56.5903 121.146 56.7503C120.9 56.9103 120.7 57.1236 120.546 57.3903C120.4 57.6503 120.326 57.9436 120.326 58.2703C120.326 58.6036 120.4 58.9036 120.546 59.1703C120.693 59.437 120.893 59.6503 121.146 59.8103C121.4 59.9636 121.683 60.0403 121.996 60.0403ZM125.592 60.8203V55.7303H126.592V56.2503C126.985 55.837 127.495 55.6303 128.122 55.6303C128.515 55.6303 128.859 55.7136 129.152 55.8803C129.452 56.047 129.685 56.2803 129.852 56.5803C130.025 56.8803 130.112 57.227 130.112 57.6203V60.8203H129.112V57.7903C129.112 57.3903 128.999 57.077 128.772 56.8503C128.552 56.617 128.242 56.5003 127.842 56.5003C127.575 56.5003 127.335 56.557 127.122 56.6703C126.909 56.7836 126.732 56.947 126.592 57.1603V60.8203H125.592ZM133.706 60.9103C133.206 60.9103 132.752 60.7936 132.346 60.5603C131.946 60.327 131.626 60.0103 131.386 59.6103C131.152 59.2103 131.036 58.7636 131.036 58.2703C131.036 57.7836 131.149 57.3436 131.376 56.9503C131.602 56.5503 131.909 56.2336 132.296 56.0003C132.682 55.7603 133.112 55.6403 133.586 55.6403C134.059 55.6403 134.479 55.7603 134.846 56.0003C135.212 56.2336 135.502 56.5536 135.716 56.9603C135.936 57.3603 136.046 57.8136 136.046 58.3203V58.6003H132.036C132.089 58.8803 132.192 59.1303 132.346 59.3503C132.506 59.5703 132.706 59.7436 132.946 59.8703C133.192 59.997 133.459 60.0603 133.746 60.0603C133.992 60.0603 134.229 60.0236 134.456 59.9503C134.689 59.8703 134.882 59.757 135.036 59.6103L135.676 60.2403C135.376 60.467 135.066 60.637 134.746 60.7503C134.432 60.857 134.086 60.9103 133.706 60.9103ZM132.046 57.8503H135.056C135.016 57.5836 134.922 57.3503 134.776 57.1503C134.636 56.9436 134.459 56.7836 134.246 56.6703C134.039 56.5503 133.812 56.4903 133.566 56.4903C133.312 56.4903 133.079 56.547 132.866 56.6603C132.652 56.7736 132.472 56.9336 132.326 57.1403C132.186 57.3403 132.092 57.577 132.046 57.8503ZM139.088 62.8603V55.7303H140.078V56.2203C140.505 55.8403 141.025 55.6503 141.638 55.6503C142.118 55.6503 142.551 55.767 142.938 56.0003C143.331 56.2336 143.641 56.547 143.868 56.9403C144.095 57.3336 144.208 57.777 144.208 58.2703C144.208 58.7636 144.091 59.2103 143.858 59.6103C143.631 60.0036 143.321 60.317 142.928 60.5503C142.541 60.7836 142.105 60.9003 141.618 60.9003C141.338 60.9003 141.068 60.857 140.808 60.7703C140.548 60.677 140.308 60.547 140.088 60.3803V62.8603H139.088ZM141.508 60.0303C141.835 60.0303 142.125 59.9536 142.378 59.8003C142.638 59.647 142.845 59.4403 142.998 59.1803C143.151 58.9136 143.228 58.6136 143.228 58.2803C143.228 57.947 143.151 57.647 142.998 57.3803C142.845 57.1136 142.638 56.9036 142.378 56.7503C142.125 56.597 141.835 56.5203 141.508 56.5203C141.221 56.5203 140.955 56.5736 140.708 56.6803C140.461 56.787 140.255 56.937 140.088 57.1303V59.4303C140.255 59.617 140.461 59.7636 140.708 59.8703C140.961 59.977 141.228 60.0303 141.508 60.0303ZM147.602 60.9103C147.102 60.9103 146.649 60.7936 146.242 60.5603C145.842 60.327 145.522 60.0103 145.282 59.6103C145.049 59.2103 144.932 58.7636 144.932 58.2703C144.932 57.7836 145.046 57.3436 145.272 56.9503C145.499 56.5503 145.806 56.2336 146.192 56.0003C146.579 55.7603 147.009 55.6403 147.482 55.6403C147.956 55.6403 148.376 55.7603 148.742 56.0003C149.109 56.2336 149.399 56.5536 149.612 56.9603C149.832 57.3603 149.942 57.8136 149.942 58.3203V58.6003H145.932C145.986 58.8803 146.089 59.1303 146.242 59.3503C146.402 59.5703 146.602 59.7436 146.842 59.8703C147.089 59.997 147.356 60.0603 147.642 60.0603C147.889 60.0603 148.126 60.0236 148.352 59.9503C148.586 59.8703 148.779 59.757 148.932 59.6103L149.572 60.2403C149.272 60.467 148.962 60.637 148.642 60.7503C148.329 60.857 147.982 60.9103 147.602 60.9103ZM145.942 57.8503H148.952C148.912 57.5836 148.819 57.3503 148.672 57.1503C148.532 56.9436 148.356 56.7836 148.142 56.6703C147.936 56.5503 147.709 56.4903 147.462 56.4903C147.209 56.4903 146.976 56.547 146.762 56.6603C146.549 56.7736 146.369 56.9336 146.222 57.1403C146.082 57.3403 145.989 57.577 145.942 57.8503ZM150.895 60.8203V55.7303H151.895V56.3803C152.055 56.1403 152.251 55.9536 152.485 55.8203C152.725 55.6803 152.995 55.6103 153.295 55.6103C153.501 55.617 153.671 55.647 153.805 55.7003V56.6003C153.711 56.5603 153.615 56.5336 153.515 56.5203C153.415 56.5003 153.315 56.4903 153.215 56.4903C152.921 56.4903 152.661 56.5703 152.435 56.7303C152.208 56.8836 152.028 57.1103 151.895 57.4103V60.8203H150.895ZM156.695 60.8203V53.8203L157.695 53.6303V60.8203H156.695ZM160.483 60.9103C160.117 60.9103 159.793 60.847 159.513 60.7203C159.233 60.587 159.013 60.4036 158.853 60.1703C158.693 59.937 158.613 59.667 158.613 59.3603C158.613 58.8803 158.797 58.5036 159.163 58.2303C159.53 57.9503 160.033 57.8103 160.673 57.8103C161.173 57.8103 161.637 57.907 162.063 58.1003V57.5603C162.063 57.1936 161.957 56.9203 161.743 56.7403C161.537 56.5603 161.23 56.4703 160.823 56.4703C160.59 56.4703 160.347 56.507 160.093 56.5803C159.84 56.647 159.557 56.7536 159.243 56.9003L158.873 56.1503C159.26 55.9703 159.62 55.8403 159.953 55.7603C160.287 55.6736 160.623 55.6303 160.963 55.6303C161.623 55.6303 162.133 55.787 162.493 56.1003C162.86 56.4136 163.043 56.8603 163.043 57.4403V60.8203H162.063V60.3803C161.837 60.5603 161.593 60.6936 161.333 60.7803C161.073 60.867 160.79 60.9103 160.483 60.9103ZM159.573 59.3403C159.573 59.587 159.677 59.787 159.883 59.9403C160.097 60.087 160.373 60.1603 160.713 60.1603C160.98 60.1603 161.223 60.1236 161.443 60.0503C161.67 59.9703 161.877 59.847 162.063 59.6803V58.8203C161.87 58.707 161.667 58.627 161.453 58.5803C161.247 58.527 161.013 58.5003 160.753 58.5003C160.387 58.5003 160.097 58.577 159.883 58.7303C159.677 58.877 159.573 59.0803 159.573 59.3403ZM168.465 60.9103C167.972 60.9103 167.595 60.797 167.335 60.5703C167.075 60.337 166.945 60.0003 166.945 59.5603V56.5703H165.865V55.7303H166.945V54.4303L167.935 54.1903V55.7303H169.435V56.5703H167.935V59.3303C167.935 59.5903 167.992 59.777 168.105 59.8903C168.225 59.997 168.419 60.0503 168.685 60.0503C168.825 60.0503 168.949 60.0403 169.055 60.0203C169.169 60.0003 169.289 59.9703 169.415 59.9303V60.7703C169.282 60.817 169.125 60.8503 168.945 60.8703C168.772 60.897 168.612 60.9103 168.465 60.9103ZM172.142 60.9203C171.749 60.9203 171.402 60.837 171.102 60.6703C170.802 60.5036 170.569 60.2703 170.402 59.9703C170.235 59.6636 170.152 59.3136 170.152 58.9203V55.7303H171.142V58.7503C171.142 59.1503 171.255 59.467 171.482 59.7003C171.715 59.9336 172.025 60.0503 172.412 60.0503C172.685 60.0503 172.929 59.9936 173.142 59.8803C173.355 59.7603 173.529 59.5936 173.662 59.3803V55.7303H174.662V60.8203H173.662V60.3003C173.269 60.7136 172.762 60.9203 172.142 60.9203ZM177.456 60.9103C177.089 60.9103 176.766 60.847 176.486 60.7203C176.206 60.587 175.986 60.4036 175.826 60.1703C175.666 59.937 175.586 59.667 175.586 59.3603C175.586 58.8803 175.769 58.5036 176.136 58.2303C176.503 57.9503 177.006 57.8103 177.646 57.8103C178.146 57.8103 178.609 57.907 179.036 58.1003V57.5603C179.036 57.1936 178.929 56.9203 178.716 56.7403C178.509 56.5603 178.203 56.4703 177.796 56.4703C177.563 56.4703 177.319 56.507 177.066 56.5803C176.813 56.647 176.529 56.7536 176.216 56.9003L175.846 56.1503C176.233 55.9703 176.593 55.8403 176.926 55.7603C177.259 55.6736 177.596 55.6303 177.936 55.6303C178.596 55.6303 179.106 55.787 179.466 56.1003C179.833 56.4136 180.016 56.8603 180.016 57.4403V60.8203H179.036V60.3803C178.809 60.5603 178.566 60.6936 178.306 60.7803C178.046 60.867 177.763 60.9103 177.456 60.9103ZM176.546 59.3403C176.546 59.587 176.649 59.787 176.856 59.9403C177.069 60.087 177.346 60.1603 177.686 60.1603C177.953 60.1603 178.196 60.1236 178.416 60.0503C178.643 59.9703 178.849 59.847 179.036 59.6803V58.8203C178.843 58.707 178.639 58.627 178.426 58.5803C178.219 58.527 177.986 58.5003 177.726 58.5003C177.359 58.5003 177.069 58.577 176.856 58.7303C176.649 58.877 176.546 59.0803 176.546 59.3403ZM184.868 60.9103C184.501 60.9103 184.178 60.847 183.898 60.7203C183.618 60.587 183.398 60.4036 183.238 60.1703C183.078 59.937 182.998 59.667 182.998 59.3603C182.998 58.8803 183.181 58.5036 183.548 58.2303C183.915 57.9503 184.418 57.8103 185.058 57.8103C185.558 57.8103 186.021 57.907 186.448 58.1003V57.5603C186.448 57.1936 186.341 56.9203 186.128 56.7403C185.921 56.5603 185.615 56.4703 185.208 56.4703C184.975 56.4703 184.731 56.507 184.478 56.5803C184.225 56.647 183.941 56.7536 183.628 56.9003L183.258 56.1503C183.645 55.9703 184.005 55.8403 184.338 55.7603C184.671 55.6736 185.008 55.6303 185.348 55.6303C186.008 55.6303 186.518 55.787 186.878 56.1003C187.245 56.4136 187.428 56.8603 187.428 57.4403V60.8203H186.448V60.3803C186.221 60.5603 185.978 60.6936 185.718 60.7803C185.458 60.867 185.175 60.9103 184.868 60.9103ZM183.958 59.3403C183.958 59.587 184.061 59.787 184.268 59.9403C184.481 60.087 184.758 60.1603 185.098 60.1603C185.365 60.1603 185.608 60.1236 185.828 60.0503C186.055 59.9703 186.261 59.847 186.448 59.6803V58.8203C186.255 58.707 186.051 58.627 185.838 58.5803C185.631 58.527 185.398 58.5003 185.138 58.5003C184.771 58.5003 184.481 58.577 184.268 58.7303C184.061 58.877 183.958 59.0803 183.958 59.3403ZM190.501 60.9203C190.108 60.9203 189.761 60.837 189.461 60.6703C189.161 60.5036 188.928 60.2703 188.761 59.9703C188.595 59.6636 188.511 59.3136 188.511 58.9203V55.7303H189.501V58.7503C189.501 59.1503 189.615 59.467 189.841 59.7003C190.075 59.9336 190.385 60.0503 190.771 60.0503C191.045 60.0503 191.288 59.9936 191.501 59.8803C191.715 59.7603 191.888 59.5936 192.021 59.3803V55.7303H193.021V60.8203H192.021V60.3003C191.628 60.7136 191.121 60.9203 190.501 60.9203ZM196.385 60.9103C195.892 60.9103 195.515 60.797 195.255 60.5703C194.995 60.337 194.865 60.0003 194.865 59.5603V56.5703H193.785V55.7303H194.865V54.4303L195.855 54.1903V55.7303H197.355V56.5703H195.855V59.3303C195.855 59.5903 195.912 59.777 196.025 59.8903C196.145 59.997 196.339 60.0503 196.605 60.0503C196.745 60.0503 196.869 60.0403 196.975 60.0203C197.089 60.0003 197.209 59.9703 197.335 59.9303V60.7703C197.202 60.817 197.045 60.8503 196.865 60.8703C196.692 60.897 196.532 60.9103 196.385 60.9103ZM200.434 60.9203C199.94 60.9203 199.49 60.8036 199.084 60.5703C198.684 60.337 198.367 60.0203 198.134 59.6203C197.9 59.2203 197.784 58.7736 197.784 58.2803C197.784 57.787 197.9 57.3403 198.134 56.9403C198.367 56.5403 198.684 56.2236 199.084 55.9903C199.49 55.7503 199.94 55.6303 200.434 55.6303C200.934 55.6303 201.384 55.7503 201.784 55.9903C202.184 56.2236 202.5 56.5403 202.734 56.9403C202.967 57.3403 203.084 57.787 203.084 58.2803C203.084 58.7736 202.967 59.2203 202.734 59.6203C202.5 60.0203 202.184 60.337 201.784 60.5703C201.384 60.8036 200.934 60.9203 200.434 60.9203ZM200.434 60.0403C200.747 60.0403 201.03 59.9636 201.284 59.8103C201.537 59.6503 201.737 59.437 201.884 59.1703C202.03 58.9036 202.104 58.6036 202.104 58.2703C202.104 57.9436 202.027 57.6503 201.874 57.3903C201.727 57.1236 201.527 56.9103 201.274 56.7503C201.027 56.5903 200.747 56.5103 200.434 56.5103C200.12 56.5103 199.837 56.5903 199.584 56.7503C199.337 56.9103 199.137 57.1236 198.984 57.3903C198.837 57.6503 198.764 57.9436 198.764 58.2703C198.764 58.6036 198.837 58.9036 198.984 59.1703C199.13 59.437 199.33 59.6503 199.584 59.8103C199.837 59.9636 200.12 60.0403 200.434 60.0403ZM208.559 60.9103C208.059 60.9103 207.606 60.7936 207.199 60.5603C206.799 60.327 206.479 60.0103 206.239 59.6103C206.006 59.2103 205.889 58.7636 205.889 58.2703C205.889 57.7836 206.003 57.3436 206.229 56.9503C206.456 56.5503 206.763 56.2336 207.149 56.0003C207.536 55.7603 207.966 55.6403 208.439 55.6403C208.913 55.6403 209.333 55.7603 209.699 56.0003C210.066 56.2336 210.356 56.5536 210.569 56.9603C210.789 57.3603 210.899 57.8136 210.899 58.3203V58.6003H206.889C206.943 58.8803 207.046 59.1303 207.199 59.3503C207.359 59.5703 207.559 59.7436 207.799 59.8703C208.046 59.997 208.313 60.0603 208.599 60.0603C208.846 60.0603 209.083 60.0236 209.309 59.9503C209.543 59.8703 209.736 59.757 209.889 59.6103L210.529 60.2403C210.229 60.467 209.919 60.637 209.599 60.7503C209.286 60.857 208.939 60.9103 208.559 60.9103ZM206.899 57.8503H209.909C209.869 57.5836 209.776 57.3503 209.629 57.1503C209.489 56.9436 209.313 56.7836 209.099 56.6703C208.893 56.5503 208.666 56.4903 208.419 56.4903C208.166 56.4903 207.933 56.547 207.719 56.6603C207.506 56.7736 207.326 56.9336 207.179 57.1403C207.039 57.3403 206.946 57.577 206.899 57.8503ZM208.199 54.7903L206.919 53.5703H208.139L209.039 54.7903H208.199ZM216.282 60.9003C215.808 60.9003 215.375 60.7836 214.982 60.5503C214.588 60.317 214.278 60.0036 214.052 59.6103C213.825 59.2103 213.712 58.7636 213.712 58.2703C213.712 57.777 213.825 57.3336 214.052 56.9403C214.285 56.547 214.598 56.2336 214.992 56.0003C215.385 55.767 215.822 55.6503 216.302 55.6503C216.582 55.6503 216.852 55.6936 217.112 55.7803C217.372 55.867 217.612 55.9936 217.832 56.1603V53.8203L218.832 53.6303V60.8203H217.842V60.3303C217.408 60.7103 216.888 60.9003 216.282 60.9003ZM216.412 60.0303C216.705 60.0303 216.972 59.977 217.212 59.8703C217.458 59.7636 217.665 59.6103 217.832 59.4103V57.1203C217.665 56.9336 217.458 56.787 217.212 56.6803C216.972 56.567 216.705 56.5103 216.412 56.5103C216.092 56.5103 215.802 56.587 215.542 56.7403C215.282 56.8936 215.075 57.1036 214.922 57.3703C214.768 57.6303 214.692 57.927 214.692 58.2603C214.692 58.5936 214.768 58.8936 214.922 59.1603C215.075 59.427 215.282 59.6403 215.542 59.8003C215.802 59.9536 216.092 60.0303 216.412 60.0303ZM220.016 60.8203V55.7303H221.016V60.8203H220.016ZM220.516 54.9103C220.349 54.9103 220.206 54.8503 220.086 54.7303C219.966 54.6036 219.906 54.457 219.906 54.2903C219.906 54.117 219.966 53.9736 220.086 53.8603C220.206 53.7403 220.349 53.6803 220.516 53.6803C220.689 53.6803 220.836 53.7403 220.956 53.8603C221.076 53.9736 221.136 54.117 221.136 54.2903C221.136 54.457 221.076 54.6036 220.956 54.7303C220.836 54.8503 220.689 54.9103 220.516 54.9103ZM222.854 60.8903C222.68 60.8903 222.53 60.8303 222.404 60.7103C222.284 60.5836 222.224 60.4336 222.224 60.2603C222.224 60.087 222.284 59.9403 222.404 59.8203C222.53 59.6936 222.68 59.6303 222.854 59.6303C223.027 59.6303 223.174 59.6936 223.294 59.8203C223.42 59.9403 223.484 60.087 223.484 60.2603C223.484 60.4336 223.42 60.5836 223.294 60.7103C223.174 60.8303 223.027 60.8903 222.854 60.8903ZM225.354 60.8903C225.18 60.8903 225.03 60.8303 224.904 60.7103C224.784 60.5836 224.724 60.4336 224.724 60.2603C224.724 60.087 224.784 59.9403 224.904 59.8203C225.03 59.6936 225.18 59.6303 225.354 59.6303C225.527 59.6303 225.674 59.6936 225.794 59.8203C225.92 59.9403 225.984 60.087 225.984 60.2603C225.984 60.4336 225.92 60.5836 225.794 60.7103C225.674 60.8303 225.527 60.8903 225.354 60.8903ZM227.854 60.8903C227.68 60.8903 227.53 60.8303 227.404 60.7103C227.284 60.5836 227.224 60.4336 227.224 60.2603C227.224 60.087 227.284 59.9403 227.404 59.8203C227.53 59.6936 227.68 59.6303 227.854 59.6303C228.027 59.6303 228.174 59.6936 228.294 59.8203C228.42 59.9403 228.484 60.087 228.484 60.2603C228.484 60.4336 228.42 60.5836 228.294 60.7103C228.174 60.8303 228.027 60.8903 227.854 60.8903Z" fill="#10012C"/>
<defs>
<linearGradient id="paint0_linear_1284_187" x1="40.7458" y1="9.63086" x2="40.7458" y2="68.157" gradientUnits="userSpaceOnUse">
<stop stop-color="#10012B"/>
<stop offset="1" stop-color="#17013D"/>
</linearGradient>
</defs>
</svg>
