<svg width="131" height="128" viewBox="0 0 131 128" fill="none" xmlns="http://www.w3.org/2000/svg">
<circle cx="47.0547" cy="47.0547" r="47.0547" transform="matrix(-1 0 0 1 112.695 17)" fill="#F5EFFF"/>
<circle cx="36.9716" cy="36.9716" r="36.9716" transform="matrix(-1 0 0 1 102.612 27.083)" fill="#9696EA"/>
<path d="M89.818 40.1309C90.0367 39.9121 90.3914 39.9121 90.6102 40.1309L93.4849 43.0055C93.4948 43.0154 93.5101 43.0418 93.5275 43.0754C93.612 43.2384 93.6489 43.4245 93.6489 43.6079V110.903H37.0712V43.888V43.6079C37.0712 43.3278 37.2008 43.041 37.2363 43.0055L40.1109 40.1309C40.3297 39.9121 40.6844 39.9121 40.9031 40.1309L43.6137 42.8415L46.3243 40.1309C46.5431 39.9121 46.8978 39.9121 47.1165 40.1309L49.8271 42.8415L52.5377 40.1309C52.7565 39.9121 53.1111 39.9121 53.3299 40.1309L56.0405 42.8415L58.7511 40.1309C58.9698 39.9121 59.3245 39.9121 59.5433 40.1309L62.2539 42.8415L64.9645 40.1309C65.1832 39.9121 65.5379 39.9121 65.7567 40.1309L68.4673 42.8415L71.1779 40.1309C71.3966 39.9121 71.7513 39.9121 71.97 40.1309L74.6806 42.8415L77.3912 40.1309C77.61 39.9121 77.9647 39.9121 78.1834 40.1309L80.894 42.8415L83.6046 40.1309C83.8234 39.9121 84.1781 39.9121 84.3968 40.1309L87.1074 42.8415L89.818 40.1309Z" fill="white" stroke="#16013C" stroke-width="1.67686"/>
<path fill-rule="evenodd" clip-rule="evenodd" d="M57.7977 72.457C56.5602 72.457 55.557 71.4538 55.557 70.2163C55.557 68.9788 56.5602 67.9756 57.7977 67.9756C59.0352 67.9756 60.0384 68.9788 60.0384 70.2163C60.0384 71.4538 59.0352 72.457 57.7977 72.457ZM72.9224 72.457C71.6849 72.457 70.6817 71.4538 70.6817 70.2163C70.6817 68.9788 71.6849 67.9756 72.9224 67.9756C74.1599 67.9756 75.1631 68.9788 75.1631 70.2163C75.1631 71.4538 74.1599 72.457 72.9224 72.457Z" fill="#16013C"/>
<path d="M56.117 84.6104C58.1362 81.6692 61.5228 79.7402 65.3599 79.7402C69.197 79.7402 72.5836 81.6692 74.6028 84.6104" stroke="#16013C" stroke-width="2.79476" stroke-linecap="round"/>
<circle cx="1.68053" cy="1.68053" r="1.68053" transform="matrix(-1 0 0 1 85.2461 29.8838)" stroke="#16013C" stroke-width="1.67686"/>
<circle cx="1.12035" cy="1.12035" r="1.12035" transform="matrix(-1 0 0 1 21.9463 83.1016)" stroke="#16013C" stroke-width="1.67686"/>
<path d="M83.5657 50.0508H58.3578M83.5657 55.9326H68.4409" stroke="#F5EFFF" stroke-width="1.67686" stroke-linecap="round"/>
<path d="M88.0471 103.826H42.6729M88.0471 98.2244H60.8226" stroke="#F5EFFF" stroke-width="1.67686" stroke-linecap="round"/>
<circle cx="2.52079" cy="2.52079" r="2.52079" transform="matrix(-1 0 0 1 111.014 73.0176)" stroke="#16013C" stroke-width="1.67686"/>
<path d="M129.5 111.109H1.5" stroke="#16013C" stroke-width="1.67686" stroke-linecap="round"/>
<path d="M31.4501 42.7681H25.8677M35.3906 37.9354V33.2451" stroke="#16013C" stroke-width="1.67686" stroke-linecap="round"/>
<path d="M31.7786 38.929L28.0654 35.2158" stroke="#16013C" stroke-width="1.67686" stroke-linecap="round"/>
</svg>
